SplineFontDB: 3.2
FontName: ComputerVision
FullName: ComputerVision
FamilyName: ComputerVision
Weight: Regular
Copyright: Copyright (c) 2023, Simon Thiefes
Version: 001.000
ItalicAngle: 0
UnderlinePosition: -80
UnderlineWidth: 40
Ascent: 692
Descent: 308
InvalidEm: 0
LayerCount: 2
Layer: 0 0 "Hinten" 1
Layer: 1 0 "Vorne" 0
XUID: [1021 694 -516466584 4177015]
FSType: 0
OS2Version: 0
OS2_WeightWidthSlopeOnly: 0
OS2_UseTypoMetrics: 1
CreationTime: 1678365446
ModificationTime: 1699745341
PfmFamily: 17
TTFWeight: 400
TTFWidth: 5
LineGap: 72
VLineGap: 0
OS2TypoAscent: 0
OS2TypoAOffset: 1
OS2TypoDescent: 0
OS2TypoDOffset: 1
OS2TypoLinegap: 72
OS2WinAscent: 0
OS2WinAOffset: 1
OS2WinDescent: 0
OS2WinDOffset: 1
HheadAscent: 0
HheadAOffset: 1
HheadDescent: 0
HheadDOffset: 1
OS2Vendor: 'PfEd'
Lookup: 4 0 0 "liga" { "liga-1"  } []
MarkAttachClasses: 1
DEI: 91125
LangName: 1033
Encoding: Custom
UnicodeInterp: none
NameList: AGL For New Fonts
DisplaySize: -48
AntiAlias: 1
FitToEm: 0
BeginPrivate: 0
EndPrivate
BeginChars: 170 167

StartChar: glyph0
Encoding: -1 65 0
Width: 535
VWidth: 0
Flags: HW
LayerCount: 2
Fore
SplineSet
325.014648438 428.916015625 m 2
 325.014648438 443.440429688 322.65625 455.231445312 319.751953125 455.231445312 c 0
 316.846679688 455.231445312 314.48828125 443.440429688 314.48828125 428.916015625 c 2
 314.48828125 296.474609375 l 1
 3.7841796875 244.690429688 l 2
 0.9609375 244.219726562 -1.30078125 232.615234375 -1.30078125 218.388671875 c 0
 -1.30078125 203.551757812 1.1591796875 191.590820312 4.1396484375 192.087890625 c 2
 319.9296875 244.719726562 l 2
 322.752929688 245.190429688 325.014648438 256.794921875 325.014648438 271.020507812 c 2
 325.014648438 428.916015625 l 2
477.646484375 -123.715820312 m 0
 476.54296875 -123.715820312 450.633789062 -129.114257812 414.39453125 -129.114257812 c 0
 344.240234375 -129.114257812 275.033203125 -109.256835938 215.15625 -71.2939453125 c 0
 150.4375 -30.2626953125 101.318359375 27.3369140625 70.9892578125 91.458984375 c 0
 58.5078125 117.84765625 36.1728515625 173.810546875 36.1728515625 236.381835938 c 0
 36.1728515625 260.208984375 39.7216796875 302.0078125 59.044921875 352.994140625 c 0
 63.8701171875 365.727539062 62.0361328125 402.600585938 56.59375 402.600585938 c 0
 55.708984375 402.600585938 54.875 401.505859375 54.142578125 399.57421875 c 0
 44.1748046875 373.271484375 25.646484375 317.538085938 25.646484375 236.381835938 c 0
 25.646484375 60.3916015625 112.194335938 -59.0751953125 213.821289062 -123.505859375 c 0
 238.416992188 -139.099609375 338.939453125 -200.208007812 477.830078125 -176.33203125 c 0
 480.650390625 -175.846679688 482.91015625 -164.248046875 482.91015625 -150.032226562 c 0
 482.91015625 -135.5078125 480.551757812 -123.715820312 477.646484375 -123.715820312 c 0
529.2421875 139.952148438 m 2
 532.49609375 136.698242188 535.541015625 149.161132812 535.541015625 165.7578125 c 0
 535.541015625 178.5078125 533.723632812 189.153320312 531.314453125 191.5625 c 2
 268.15625 454.720703125 l 2
 264.90234375 457.975585938 261.857421875 445.512695312 261.857421875 428.916015625 c 0
 261.857421875 416.165039062 263.674804688 405.520507812 266.083984375 403.111328125 c 2
 529.2421875 139.952148438 l 2
EndSplineSet
EndChar

StartChar: glyph1
Encoding: 0 12 1
Width: 485
VWidth: 0
Flags: HW
LayerCount: 2
Fore
SplineSet
221.384765625 377.20703125 m 2
 217.59375 380.240234375 200.791992188 378.689453125 204.952148438 375.361328125 c 2
 467.263671875 165.51171875 l 1
 309.797851562 -96.931640625 l 2
 307.735351562 -100.368164062 325.095703125 -101.1484375 327.063476562 -97.869140625 c 2
 484.958984375 165.2890625 l 2
 485.25390625 165.78125 485.064453125 166.262695312 484.541992188 166.680664062 c 2
 221.384765625 377.20703125 l 2
55.2734375 -92.13671875 m 2
 51.5087890625 -92.13671875 51.4892578125 -102.663085938 55.2734375 -102.663085938 c 2
 476.325195312 -102.663085938 l 2
 479.37890625 -102.663085938 480.2109375 -95.2646484375 477.7421875 -92.7958984375 c 2
 214.584960938 170.361328125 l 2
 213.963867188 170.982421875 213.166015625 171.219726562 212.384765625 170.829101562 c 2
 1.8583984375 65.5673828125 l 2
 -1.6279296875 63.82421875 -0.361328125 53.5302734375 3.4248046875 55.423828125 c 2
 212.795898438 160.108398438 l 1
 465.041015625 -92.13671875 l 1
 55.2734375 -92.13671875 l 2
52.84765625 10.802734375 m 2
 50.7119140625 5.107421875 55.6015625 -0.6669921875 57.6982421875 4.923828125 c 2
 215.592773438 425.9765625 l 2
 217.728515625 431.671875 212.838867188 437.446289062 210.7421875 431.85546875 c 2
 52.84765625 10.802734375 l 2
EndSplineSet
EndChar

StartChar: glyph2
Encoding: 1 116 2
Width: 473
VWidth: 0
Flags: HW
LayerCount: 2
Fore
SplineSet
229.133789062 236.997070312 m 0
 218.864257812 247.267578125 202.1875 247.267578125 191.91796875 236.997070312 c 0
 186.782226562 231.862304688 184.21484375 225.125976562 184.21484375 218.388671875 c 2
 184.215820312 113.125976562 l 2
 184.215820312 106.389648438 186.784179688 99.6533203125 191.918945312 94.5185546875 c 0
 203.092773438 83.34375 222.659179688 83.8759765625 232.4375 98.54296875 c 2
 442.962890625 414.333007812 l 2
 449.77734375 424.5546875 448.676757812 438.5078125 439.661132812 447.524414062 c 0
 428.486328125 458.698242188 408.919921875 458.166015625 399.141601562 443.499023438 c 2
 236.836914062 200.040039062 l 1
 236.836914062 218.389648438 l 2
 236.836914062 225.125976562 234.268554688 231.862304688 229.133789062 236.997070312 c 0
191.91796875 -116.008789062 m 0
 202.1875 -126.278320312 218.864257812 -126.278320312 229.133789062 -116.008789062 c 0
 234.268554688 -110.873046875 236.836914062 -104.13671875 236.836914062 -97.400390625 c 2
 236.836914062 138.38671875 l 1
 428.313476562 193.094726562 l 2
 448.255859375 198.79296875 453.086914062 223.572265625 439.661132812 236.998046875 c 0
 434.525390625 242.133789062 427.7890625 244.701171875 421.052734375 244.701171875 c 2
 210.525390625 244.700195312 l 2
 196.369140625 244.700195312 184.21484375 232.552734375 184.21484375 218.389648438 c 2
 184.21484375 178.090820312 l 1
 45.37109375 138.420898438 l 2
 25.4287109375 132.72265625 20.59765625 107.943359375 34.0234375 94.517578125 c 0
 41.0234375 87.517578125 50.998046875 85.2890625 59.892578125 87.830078125 c 2
 184.21484375 123.3515625 l 1
 184.21484375 -97.400390625 l 2
 184.21484375 -104.13671875 186.783203125 -110.873046875 191.91796875 -116.008789062 c 0
349.8125 -184.055664062 m 2
 348.87890625 -184.989257812 348.030273438 -185.975585938 347.265625 -187.005859375 c 0
 304.068359375 -207.543945312 249.764648438 -198.227539062 215.837890625 -164.30078125 c 0
 198.915039062 -147.377929688 186.9375 -124.387695312 184.08203125 -94.8505859375 c 0
 181.629882812 -69.4912109375 190.849609375 -44.59765625 208.430664062 -27.0166015625 c 0
 213.086914062 -22.3603515625 218.369140625 -18.1787109375 224.208984375 -14.62109375 c 0
 239.704101562 -5.181640625 240.537109375 15.068359375 229.133789062 26.4716796875 c 0
 220.379882812 35.2255859375 206.970703125 36.517578125 196.842773438 30.34765625 c 0
 187.426757812 24.611328125 178.853515625 17.837890625 171.21484375 10.2001953125 c 0
 142.627929688 -18.3876953125 127.703125 -58.5380859375 131.706054688 -99.9501953125 c 0
 135.720703125 -141.481445312 153.259765625 -176.155273438 178.622070312 -201.516601562 c 0
 250.80859375 -273.703125 386.451171875 -270.52734375 444.26171875 -162.446289062 c 0
 449.587890625 -152.489257812 448.053710938 -139.81640625 439.661132812 -131.423828125 c 0
 429.390625 -121.153320312 412.71484375 -121.153320312 402.444335938 -131.423828125 c 2
 349.8125 -184.055664062 l 2
EndSplineSet
EndChar

StartChar: hy
Encoding: 2 -1 3
Width: 343
VWidth: 0
Flags: HW
LayerCount: 2
Fore
SplineSet
148.965820312 394.892578125 m 0
 135.939453125 407.918945312 111.866210938 404.034179688 105.399414062 384.634765625 c 2
 0.1357421875 68.8447265625 l 2
 -2.91796875 59.6845703125 -0.80078125 49.1728515625 6.4853515625 41.88671875 c 0
 16.755859375 31.6162109375 33.431640625 31.6162109375 43.7021484375 41.88671875 c 2
 148.965820312 147.150390625 l 2
 159.236328125 157.419921875 159.236328125 174.096679688 148.965820312 184.366210938 c 0
 138.6953125 194.63671875 122.01953125 194.63671875 111.75 184.366210938 c 2
 85.314453125 157.931640625 l 1
 155.315429688 367.93359375 l 2
 158.369140625 377.09375 156.252929688 387.60546875 148.965820312 394.892578125 c 0
340.083984375 258.254882812 m 2
 342.293945312 256.044921875 344.172851562 262.9296875 344.172851562 271.020507812 c 0
 344.172851562 277.180664062 343.112304688 282.357421875 341.682617188 283.787109375 c 2
 335.227539062 290.2421875 l 1
 342.853515625 313.12109375 l 2
 345.243164062 320.288085938 344.06640625 336.811523438 340.8828125 336.811523438 c 2
 288.251953125 336.811523438 l 2
 286.436523438 336.811523438 284.961914062 330.916015625 284.961914062 323.654296875 c 0
 284.961914062 317.494140625 286.022460938 312.317382812 287.452148438 310.887695312 c 2
 320.22265625 278.1171875 l 1
 233.649414062 18.396484375 l 2
 231.260742188 11.2294921875 232.436523438 -5.2939453125 235.620117188 -5.2939453125 c 0
 236.359375 -5.2939453125 237.041992188 -4.3173828125 237.590820312 -2.6689453125 c 2
 328.4453125 269.893554688 l 1
 340.083984375 258.254882812 l 2
185.432617188 221.720703125 m 2
 181.758789062 225.393554688 176.842773438 218.7578125 180.54296875 215.057617188 c 2
 285.807617188 109.795898438 l 2
 289.48046875 106.122070312 294.396484375 112.7578125 290.696289062 116.458007812 c 2
 185.432617188 221.720703125 l 2
EndSplineSet
Ligature2: "liga-1" h y
EndChar

StartChar: ".alt1"
Encoding: 3 -1 4
Width: 221
VWidth: 0
Flags: HW
LayerCount: 2
Fore
SplineSet
104 7.5986328125 m 2
 104.82421875 4.3017578125 117.958984375 4.6640625 117.092773438 8.1279296875 c 2
 16.4619140625 410.650390625 l 1
 209.69921875 217.4140625 l 2
 212.703125 214.409179688 225.224609375 216.061523438 221.920898438 219.365234375 c 2
 11.3935546875 429.891601562 l 2
 8.818359375 432.466796875 -2.0498046875 431.795898438 -1.2626953125 428.651367188 c 2
 104 7.5986328125 l 2
EndSplineSet
EndChar

StartChar: VD
Encoding: 4 -1 5
Width: 822
VWidth: 0
Flags: HW
LayerCount: 2
Fore
SplineSet
202.310546875 -47.0751953125 m 2
 206.1015625 -54.6572265625 222.904296875 -50.7822265625 218.743164062 -42.4609375 c 2
 82.3359375 230.353515625 l 1
 203.504882812 109.184570312 l 2
 208.283203125 104.40625 219.298828125 106.759765625 219.298828125 113.125976562 c 0
 219.298828125 114.604492188 218.647460938 115.96875 217.548828125 117.067382812 c 2
 59.6533203125 274.962890625 l 2
 54.16796875 280.448242188 40.67578125 276.193359375 44.4150390625 268.713867188 c 2
 202.310546875 -47.0751953125 l 2
307.353515625 111.318359375 m 0
 310.333007812 103.493164062 327.46484375 106.427734375 324.225585938 114.93359375 c 0
 291.693359375 200.358398438 340.255859375 293.407226562 424.184570312 317.505859375 c 0
 459.78125 327.727539062 492.310546875 332.322265625 521.803710938 332.322265625 c 0
 679.349609375 332.322265625 761.635742188 198.9921875 761.635742188 60.4951171875 c 0
 761.635742188 -78.001953125 679.349609375 -211.333007812 521.803710938 -211.333007812 c 0
 493.875 -211.333007812 463.223632812 -207.212890625 429.82421875 -198.096679688 c 1
 429.82421875 165.7578125 l 2
 429.82421875 169.388671875 425.893554688 172.3359375 421.052734375 172.3359375 c 0
 416.2109375 172.3359375 412.280273438 169.388671875 412.280273438 165.7578125 c 2
 412.280273438 -202.663085938 l 2
 412.280273438 -205.466796875 414.624023438 -207.86328125 417.920898438 -208.809570312 c 0
 455.19140625 -219.51171875 489.828125 -224.491210938 521.803710938 -224.491210938 c 0
 695.729492188 -224.491210938 779.1796875 -79.4140625 779.1796875 60.4951171875 c 0
 779.1796875 200.404296875 695.729492188 345.48046875 521.803710938 345.48046875 c 0
 489.829101562 345.48046875 455.19140625 340.500976562 417.920898438 329.798828125 c 0
 342.577148438 308.165039062 296.491210938 240.838867188 296.491210938 170.006835938 c 0
 296.491210938 150.533203125 299.969726562 130.705078125 307.353515625 111.318359375 c 0
EndSplineSet
Ligature2: "liga-1" V D
EndChar

StartChar: glyph6
Encoding: 5 51 6
Width: 314
VWidth: 0
Flags: HW
LayerCount: 2
Fore
SplineSet
6.4853515625 447.524414062 m 0
 -6.0625 434.975585938 -3.181640625 411.87890625 15.2978515625 404.487304688 c 2
 258.814453125 307.081054688 l 1
 209.669921875 12.216796875 l 2
 208.319335938 4.115234375 210.767578125 -4.4990234375 217.012695312 -10.7451171875 c 0
 230.73828125 -24.470703125 256.0390625 -18.966796875 261.142578125 1.44921875 c 2
 313.7734375 211.975585938 l 2
 316.375976562 222.385742188 312.719726562 234.791015625 301.204101562 241.303710938 c 1
 314.203125 319.299804688 l 2
 316.038085938 330.309570312 310.561523438 343.077148438 298.047851562 348.08203125 c 2
 34.8896484375 453.344726562 l 2
 25.408203125 457.137695312 14.1591796875 455.197265625 6.4853515625 447.524414062 c 0
254.228515625 41.8876953125 m 2
 264.499023438 52.1572265625 264.499023438 68.8330078125 254.228515625 79.103515625 c 0
 243.958984375 89.373046875 227.282226562 89.373046875 217.012695312 79.103515625 c 2
 173.795898438 35.88671875 l 1
 259.159179688 206.61328125 l 2
 264.086914062 216.46875 262.443359375 228.783203125 254.227539062 236.998046875 c 0
 249.092773438 242.133789062 242.356445312 244.701171875 235.619140625 244.701171875 c 2
 182.98828125 244.700195312 l 2
 176.251953125 244.700195312 169.515625 242.131835938 164.380859375 236.997070312 c 0
 154.110351562 226.727539062 154.110351562 210.05078125 164.380859375 199.78125 c 0
 169.515625 194.646484375 176.252929688 192.078125 182.989257812 192.078125 c 2
 193.036132812 192.079101562 l 1
 54.185546875 -85.6240234375 l 2
 49.2578125 -95.4794921875 50.9013671875 -107.79296875 59.1171875 -116.008789062 c 0
 69.38671875 -126.278320312 86.0625 -126.278320312 96.3330078125 -116.008789062 c 2
 254.228515625 41.8876953125 l 2
269.64453125 41.8876953125 m 2
 279.915039062 31.6171875 296.590820312 31.6171875 306.860351562 41.8876953125 c 0
 317.130859375 52.1572265625 317.130859375 68.8330078125 306.860351562 79.103515625 c 2
 148.965820312 236.998046875 l 2
 136.466796875 249.497070312 113.475585938 246.715820312 105.990234375 228.337890625 c 0
 77.6328125 158.715820312 59.30078125 85.400390625 51.5546875 10.5927734375 c 0
 45.931640625 -43.7119140625 45.9326171875 -98.45703125 51.5556640625 -152.760742188 c 0
 52.15625 -158.560546875 54.6767578125 -164.19921875 59.1181640625 -168.639648438 c 0
 69.3876953125 -178.91015625 86.0634765625 -178.91015625 96.333984375 -168.639648438 c 0
 102.163085938 -162.809570312 104.68359375 -154.916015625 103.895507812 -147.301757812 c 0
 93.0283203125 -42.35546875 104.795898438 67.27734375 140.612304688 170.919921875 c 1
 269.64453125 41.8876953125 l 2
EndSplineSet
EndChar

StartChar: glyph7
Encoding: 6 92 7
Width: 315
VWidth: 0
Flags: HW
LayerCount: 2
Fore
SplineSet
77.3564453125 385.303710938 m 2
 70.4599609375 404.26953125 46.828125 407.697265625 34.0224609375 394.892578125 c 0
 27.2451171875 388.114257812 24.9404296875 378.545898438 27.109375 369.870117188 c 2
 79.7421875 159.342773438 l 2
 80.4580078125 156.478515625 81.662109375 153.7109375 83.353515625 151.173828125 c 2
 134.243164062 74.8388671875 l 1
 238.43359375 -211.682617188 l 2
 245.330078125 -230.6484375 268.961914062 -234.076171875 281.766601562 -221.271484375 c 0
 289.231445312 -213.806640625 291.270507812 -202.958007812 287.883789062 -193.643554688 c 2
 223.030273438 -15.2978515625 l 1
 237.912109375 -7.2626953125 240.319335938 10.6220703125 232.436523438 22.4462890625 c 2
 181.546875 98.7822265625 l 1
 77.3564453125 385.303710938 l 2
EndSplineSet
EndChar

StartChar: ".alt2"
Encoding: 8 -1 8
Width: 166
VWidth: 0
Flags: HW
LayerCount: 2
Fore
SplineSet
53.3037109375 -150.032226562 m 2
 53.3037109375 -156.807617188 59.8828125 -156.842773438 59.8828125 -150.032226562 c 2
 59.8828125 60.4951171875 l 2
 59.8828125 61.7373046875 59.61328125 62.87890625 59.1630859375 63.779296875 c 2
 7.728515625 166.6484375 l 1
 59.6494140625 374.333007812 l 2
 61.2744140625 380.834960938 55.080078125 384.404296875 53.5380859375 378.236328125 c 2
 0.90625 167.708984375 l 2
 0.4423828125 165.8515625 0.7138671875 163.829101562 1.392578125 162.473632812 c 2
 53.3037109375 58.650390625 l 1
 53.3037109375 -150.032226562 l 2
105.063476562 110.354492188 m 2
 106.7734375 100.091796875 115.2578125 104.678710938 113.387695312 115.899414062 c 2
 60.755859375 431.688476562 l 2
 60.1748046875 435.172851562 58.5302734375 437.688476562 56.59375 437.688476562 c 2
 3.9619140625 437.688476562 l 2
 1.541015625 437.688476562 -0.423828125 433.7578125 -0.423828125 428.916015625 c 0
 -0.423828125 424.075195312 1.541015625 420.14453125 3.9619140625 420.14453125 c 2
 53.431640625 420.14453125 l 1
 105.063476562 110.354492188 l 2
7.0625 119.328125 m 2
 4.37890625 124.697265625 -0.423828125 120.834960938 -0.423828125 113.126953125 c 0
 -0.423828125 110.706054688 0.0673828125 108.513671875 0.861328125 106.92578125 c 2
 158.755859375 -208.865234375 l 2
 161.440429688 -214.233398438 166.2421875 -210.37109375 166.2421875 -202.663085938 c 2
 166.2421875 -150.032226562 l 2
 166.2421875 -145.190429688 164.27734375 -141.259765625 161.856445312 -141.259765625 c 0
 159.435546875 -141.259765625 157.470703125 -145.190429688 157.470703125 -150.032226562 c 2
 157.470703125 -181.48828125 l 1
 7.0625 119.328125 l 2
EndSplineSet
EndChar

StartChar: ".alt3"
Encoding: 9 -1 9
Width: 249
VWidth: 0
Flags: HW
LayerCount: 2
Fore
SplineSet
151.370117188 -10.7451171875 m 0
 161.639648438 -21.0146484375 178.31640625 -21.0146484375 188.5859375 -10.7451171875 c 0
 192.766601562 -6.564453125 195.245117188 -1.322265625 196.022460938 4.1171875 c 2
 248.655273438 372.538085938 l 2
 249.787109375 380.4609375 247.30859375 388.802734375 241.21875 394.892578125 c 0
 230.94921875 405.162109375 214.272460938 405.162109375 204.002929688 394.892578125 c 0
 199.822265625 390.711914062 197.34375 385.469726562 196.56640625 380.030273438 c 2
 143.93359375 11.609375 l 2
 142.801757812 3.6865234375 145.280273438 -4.6552734375 151.370117188 -10.7451171875 c 0
135.956054688 -116.008789062 m 0
 149.408203125 -102.556640625 144.532226562 -77.7216796875 124.520507812 -72.080078125 c 0
 50.806640625 -51.298828125 27.7724609375 41.2080078125 82.9296875 94.130859375 c 0
 116.891601562 126.719726562 170.434570312 126.719726562 204.397460938 94.130859375 c 0
 214.696289062 84.25 231.079101562 84.37890625 241.21875 94.5185546875 c 0
 251.571289062 104.870117188 251.577148438 121.803710938 240.82421875 132.12109375 c 0
 185.952148438 184.771484375 98.9375 184.602539062 44.146484375 129.8125 c 0
 -36.8291015625 48.8369140625 -2.0126953125 -91.0927734375 110.17578125 -122.720703125 c 0
 119.047851562 -125.22265625 128.979492188 -122.984375 135.956054688 -116.008789062 c 0
220.26171875 55.7841796875 m 2
 226.483398438 52.673828125 230.940429688 62.2158203125 224.959960938 65.2060546875 c 2
 119.696289062 117.837890625 l 2
 115.655273438 119.857421875 110.822265625 116.0546875 112.352539062 111.463867188 c 2
 217.616210938 -204.327148438 l 2
 219.668945312 -210.484375 229.849609375 -207.732421875 227.60546875 -201 c 2
 126.360351562 102.735351562 l 1
 220.26171875 55.7841796875 l 2
EndSplineSet
EndChar

StartChar: "+ALsA-S"
Encoding: 10 -1 10
Width: 269
VWidth: 0
Flags: HW
LayerCount: 2
Fore
SplineSet
52.349609375 -97.400390625 m 0
 52.349609375 -104.821289062 53.716796875 -110.967773438 55.4384765625 -110.537109375 c 2
 265.962890625 -57.9052734375 l 2
 267.500976562 -57.521484375 268.72265625 -51.7822265625 268.72265625 -44.7685546875 c 0
 268.72265625 -38.4892578125 267.743164062 -33.2314453125 266.434570312 -31.9228515625 c 2
 3.2783203125 231.234375 l 2
 1.3359375 233.17578125 -0.2822265625 226.372070312 -0.2822265625 218.388671875 c 0
 -0.2822265625 212.110351562 0.697265625 206.852539062 2.005859375 205.543945312 c 2
 244.470703125 -36.921875 l 1
 55.109375 -84.2626953125 l 2
 53.5712890625 -84.646484375 52.349609375 -90.38671875 52.349609375 -97.400390625 c 0
EndSplineSet
Ligature2: "liga-1" » S
EndChar

StartChar: \.alt1
Encoding: 11 -1 11
Width: 163
VWidth: 0
Flags: HW
LayerCount: 2
Fore
SplineSet
4.5830078125 115.5859375 m 2
 1.771484375 118.396484375 -2.1328125 113.5 0.7001953125 110.66796875 c 2
 158.594726562 -47.2275390625 l 2
 161.405273438 -50.0380859375 165.309570312 -45.1416015625 162.477539062 -42.3095703125 c 2
 4.5830078125 115.5859375 l 2
EndSplineSet
EndChar

StartChar: glyph12
Encoding: 12 124 12
Width: 580
VWidth: 0
Flags: HW
LayerCount: 2
Fore
SplineSet
107.35546875 -95.14453125 m 0
 104.065429688 -92.7275390625 99.919921875 -97.267578125 103.168945312 -99.654296875 c 0
 154.740234375 -137.546875 209.22265625 -154.0703125 261.404296875 -154.0703125 c 0
 405.579101562 -154.0703125 530.719726562 -28.4541015625 530.719726562 114.879882812 c 0
 530.719726562 166.8125 514.291992188 221.102539062 476.440429688 272.6171875 c 0
 427.5390625 339.169921875 356.57421875 369.814453125 286.32421875 369.814453125 c 0
 175.99609375 369.814453125 67.9267578125 294.352539062 49.369140625 166.134765625 c 0
 48.8154296875 162.311523438 55.3603515625 161.690429688 55.89453125 165.3828125 c 0
 74.0634765625 290.922851562 179.458007812 363.966796875 286.32421875 363.966796875 c 0
 354.349609375 363.966796875 423.172851562 334.418945312 470.928710938 269.424804688 c 0
 508.088867188 218.850585938 524.141601562 165.6953125 524.141601562 114.879882812 c 0
 524.141601562 -25.7509765625 401.1953125 -148.22265625 261.404296875 -148.22265625 c 0
 210.837890625 -148.22265625 157.875 -132.264648438 107.35546875 -95.14453125 c 0
371.252929688 319.19140625 m 2
 372.58984375 325.206054688 370.83984375 332.42578125 368.420898438 332.42578125 c 0
 367.215820312 332.42578125 366.162109375 330.6953125 365.588867188 328.116210938 c 2
 260.326171875 -145.569335938 l 2
 258.989257812 -151.583984375 260.739257812 -158.803710938 263.158203125 -158.803710938 c 0
 264.362304688 -158.803710938 265.416992188 -157.073242188 265.990234375 -154.494140625 c 2
 371.252929688 319.19140625 l 2
315.790039062 51.7236328125 m 2
 317.60546875 51.7236328125 319.079101562 55.654296875 319.079101562 60.4951171875 c 0
 319.079101562 65.3369140625 317.60546875 69.267578125 315.790039062 69.267578125 c 2
 224.595703125 69.267578125 l 1
 247.243164062 93.814453125 281.116210938 107.479492188 315.676757812 104.360351562 c 0
 358.358398438 100.506835938 392.809570312 74.9287109375 410.444335938 41.955078125 c 0
 419.30078125 25.39453125 423.443359375 8.0146484375 423.443359375 -8.0732421875 c 0
 423.443359375 -17.6953125 422.021484375 -28.041015625 418.53125 -39.1357421875 c 0
 416.749023438 -44.8037109375 418.338867188 -53.5400390625 421.052734375 -53.5400390625 c 0
 422.064453125 -53.5400390625 422.970703125 -52.3193359375 423.57421875 -50.400390625 c 0
 436.05859375 -10.7119140625 429.0390625 28.611328125 414.215820312 56.3291015625 c 0
 394.825195312 92.5849609375 359.379882812 117.96875 315.903320312 121.893554688 c 0
 273.543945312 125.716796875 232.02734375 105.553710938 208.823242188 68 c 0
 206.162109375 63.693359375 207.153320312 51.7236328125 210.526367188 51.7236328125 c 2
 315.790039062 51.7236328125 l 2
EndSplineSet
EndChar

StartChar: glyph13
Encoding: 13 121 13
Width: 526
VWidth: 0
Flags: HW
LayerCount: 2
Fore
SplineSet
244.55078125 -168.639648438 m 0
 257.611328125 -181.700195312 281.75 -177.7421875 288.150390625 -158.282226562 c 0
 331.600585938 -26.1650390625 310.875 118.700195312 232.23828125 233.265625 c 0
 216.353515625 256.408203125 198.813476562 277.373046875 178.466796875 297.342773438 c 1
 473.684570312 297.34375 l 2
 480.420898438 297.34375 487.157226562 299.911132812 492.29296875 305.045898438 c 0
 502.5625 315.31640625 502.5625 331.9921875 492.29296875 342.26171875 c 0
 487.157226562 347.397460938 480.420898438 349.96484375 473.684570312 349.96484375 c 2
 105.263671875 349.963867188 l 2
 98.52734375 349.963867188 91.791015625 347.396484375 86.6552734375 342.260742188 c 0
 75.5546875 331.16015625 76.001953125 311.815429688 90.38671875 301.94140625 c 0
 129.00390625 275.43359375 162.307617188 242.130859375 188.813476562 203.512695312 c 0
 258.267578125 102.326171875 276.47265625 -25.310546875 238.16796875 -141.780273438 c 0
 235.162109375 -150.916992188 237.290039062 -161.37890625 244.55078125 -168.639648438 c 0
34.0234375 342.260742188 m 0
 22.0888671875 330.326171875 23.7763671875 308.653320312 40.85546875 300.114257812 c 2
 251.380859375 194.849609375 l 2
 261.236328125 189.921875 273.55078125 191.56640625 281.765625 199.78125 c 0
 293.701171875 211.715820312 292.013671875 233.388671875 274.934570312 241.928710938 c 2
 64.4091796875 347.192382812 l 2
 54.5537109375 352.120117188 42.2392578125 350.4765625 34.0234375 342.260742188 c 0
EndSplineSet
EndChar

StartChar: \.alt2
Encoding: 14 -1 14
Width: 579
VWidth: 0
Flags: HW
LayerCount: 2
Fore
SplineSet
208.345703125 62.638671875 m 2
 204.497070312 60.7138671875 208.6796875 56.337890625 212.708984375 58.3525390625 c 2
 317.970703125 110.983398438 l 2
 318.92578125 111.4609375 319.548828125 112.243164062 319.548828125 113.126953125 c 2
 319.548828125 218.389648438 l 2
 319.548828125 221.778320312 312.029296875 221.795898438 312.029296875 218.389648438 c 2
 312.029296875 114.48046875 l 1
 208.345703125 62.638671875 l 2
368.420898438 -57.92578125 m 0
 386.842773438 -57.92578125 401.119140625 -48.0419921875 391.973632812 -38.896484375 c 2
 234.080078125 118.998046875 l 2
 229.76171875 123.31640625 220.83203125 126.28515625 210.52734375 126.28515625 c 0
 192.104492188 126.28515625 177.829101562 116.400390625 186.973632812 107.255859375 c 2
 344.868164062 -50.6396484375 l 2
 349.186523438 -54.9580078125 358.116210938 -57.92578125 368.420898438 -57.92578125 c 0
EndSplineSet
EndChar

StartChar: ci
Encoding: 15 -1 15
Width: 280
VWidth: 0
Flags: HW
LayerCount: 2
Fore
SplineSet
8.7607421875 -38.2724609375 m 2
 1.8798828125 -36.8955078125 0.4951171875 -49.9462890625 7.087890625 -51.2646484375 c 2
 270.24609375 -103.896484375 l 2
 277.126953125 -105.272460938 278.51171875 -92.22265625 271.918945312 -90.904296875 c 2
 8.7607421875 -38.2724609375 l 2
-0.5859375 -43.7021484375 m 2
 -3.4111328125 -49.3515625 13.736328125 -51.2294921875 16.435546875 -45.8330078125 c 2
 66.4150390625 54.1259765625 l 1
 267.166992188 3.9384765625 l 2
 277.53515625 1.3466796875 284.963867188 9.2978515625 274.99609375 11.7900390625 c 2
 64.470703125 64.4208984375 l 2
 59.080078125 65.7685546875 53.28515625 64.041015625 52.044921875 61.560546875 c 2
 -0.5859375 -43.7021484375 l 2
EndSplineSet
Ligature2: "liga-1" c i
EndChar

StartChar: fA
Encoding: 16 -1 16
Width: 366
VWidth: 0
Flags: HW
LayerCount: 2
Fore
SplineSet
6.4853515625 -168.639648438 m 0
 17.9306640625 -180.083984375 38.2919921875 -179.192382812 47.6689453125 -163.564453125 c 2
 272.458007812 211.083007812 l 1
 210.098632812 -38.3544921875 l 2
 207.9296875 -47.0302734375 210.234375 -56.5986328125 217.012695312 -63.376953125 c 0
 230.73828125 -77.1025390625 256.0390625 -71.5986328125 261.142578125 -51.1826171875 c 2
 366.405273438 369.870117188 l 2
 368.57421875 378.545898438 366.26953125 388.114257812 359.4921875 394.892578125 c 0
 348.046875 406.336914062 327.685546875 405.4453125 318.30859375 389.81640625 c 2
 2.5185546875 -136.499023438 l 2
 -3.5478515625 -146.609375 -2.2255859375 -159.928710938 6.4853515625 -168.639648438 c 0
EndSplineSet
Ligature2: "liga-1" f A
EndChar

StartChar: SN
Encoding: 17 -1 17
Width: 287
VWidth: 0
Flags: HW
LayerCount: 2
Fore
SplineSet
11.88671875 116.416015625 m 0
 2.060546875 116.416015625 -4.896484375 113.633789062 0.720703125 111.38671875 c 2
 263.87890625 6.123046875 l 2
 266.205078125 5.193359375 270.337890625 4.5732421875 275.044921875 4.5732421875 c 0
 284.872070312 4.5732421875 291.829101562 7.3564453125 286.2109375 9.603515625 c 2
 23.052734375 114.8671875 l 2
 20.7275390625 115.796875 16.59375 116.416015625 11.88671875 116.416015625 c 0
EndSplineSet
Ligature2: "liga-1" S N
EndChar

StartChar: ".alt4"
Encoding: 18 -1 18
Width: 210
VWidth: 0
Flags: HW
LayerCount: 2
Fore
SplineSet
105.26171875 -152.662109375 m 2
 110.102539062 -152.662109375 110.127929688 -147.399414062 105.26171875 -147.399414062 c 2
 57.1064453125 -147.399414062 l 1
 161.596679688 270.565429688 l 2
 162.456054688 274.002929688 155.01171875 274.760742188 154.190429688 271.477539062 c 2
 48.9287109375 -149.575195312 l 2
 48.501953125 -151.280273438 50.400390625 -152.662109375 52.6318359375 -152.662109375 c 2
 105.26171875 -152.662109375 l 2
EndSplineSet
EndChar

StartChar: glyph19
Encoding: 19 60 19
Width: 578
VWidth: 0
Flags: HW
LayerCount: 2
Fore
SplineSet
54.017578125 -36.4443359375 m 2
 48.4794921875 -32.751953125 45.986328125 -49.5859375 51.2451171875 -53.0927734375 c 2
 209.140625 -158.35546875 l 2
 209.46484375 -158.572265625 209.805664062 -158.713867188 210.158203125 -158.7734375 c 2
 525.947265625 -211.405273438 l 2
 528.600585938 -211.846679688 530.702148438 -207.666992188 530.702148438 -202.663085938 c 0
 530.702148438 -198.0703125 528.932617188 -194.296875 526.684570312 -193.921875 c 2
 211.416992188 -141.377929688 l 1
 54.017578125 -36.4443359375 l 2
366.463867188 -105.250976562 m 2
 371.647460938 -110.434570312 375.362304688 -94.533203125 370.377929688 -89.548828125 c 2
 189.153320312 91.6767578125 l 1
 420.188476562 -0.73828125 l 2
 425.90625 -3.025390625 427.352539062 14.2900390625 421.916015625 16.46484375 c 2
 158.7578125 121.728515625 l 2
 153.643554688 123.774414062 151.642578125 109.571289062 155.9375 105.276367188 c 2
 366.463867188 -105.250976562 l 2
365.94921875 159.948242188 m 2
 372.073242188 155.866210938 376.79296875 167.6328125 370.892578125 171.56640625 c 2
 55.103515625 382.09375 l 2
 48.9794921875 386.17578125 44.259765625 374.409179688 50.1611328125 370.475585938 c 2
 365.94921875 159.948242188 l 2
EndSplineSet
EndChar

StartChar: glyph20
Encoding: 20 52 20
Width: 399
VWidth: 0
Flags: HW
LayerCount: 2
Fore
SplineSet
49.5634765625 -19.810546875 m 2
 30.1875 -26.26953125 26.2744140625 -50.345703125 39.306640625 -63.376953125 c 0
 46.5927734375 -70.6630859375 57.1044921875 -72.7802734375 66.2646484375 -69.7265625 c 2
 382.0546875 35.537109375 l 2
 401.430664062 41.99609375 405.34375 66.072265625 392.3125 79.103515625 c 0
 385.025390625 86.390625 374.513671875 88.5068359375 365.353515625 85.453125 c 2
 49.5634765625 -19.810546875 l 2
367.4609375 -204.743164062 m 2
 370.026367188 -212.439453125 382.751953125 -208.999023438 379.947265625 -200.583984375 c 2
 327.315429688 -42.6884765625 l 2
 326.444335938 -40.0751953125 323.9765625 -38.189453125 321.072265625 -38.189453125 c 2
 5.283203125 -38.189453125 l 2
 -3.1875 -38.189453125 -3.2314453125 -51.34765625 5.283203125 -51.34765625 c 2
 316.329101562 -51.34765625 l 1
 367.4609375 -204.743164062 l 2
158.52734375 12.5146484375 m 2
 152.573242188 6.560546875 161.794921875 -2.822265625 167.829101562 3.2119140625 c 2
 325.723632812 161.106445312 l 2
 329.216796875 164.599609375 327.538085938 170.538085938 323.151367188 172 c 2
 7.3623046875 277.263671875 l 2
 -0.9453125 280.033203125 -4.685546875 267.407226562 3.203125 264.778320312 c 2
 308.893554688 162.880859375 l 1
 158.52734375 12.5146484375 l 2
EndSplineSet
EndChar

StartChar: glyph21
Encoding: 21 123 21
Width: 300
VWidth: 0
Flags: HW
LayerCount: 2
Fore
SplineSet
224.010742188 -168.639648438 m 0
 234.280273438 -178.91015625 250.956054688 -178.91015625 261.2265625 -168.639648438 c 0
 266.361328125 -163.504882812 268.928710938 -156.768554688 268.928710938 -150.03125 c 2
 268.9296875 -44.7685546875 l 2
 268.930664062 -30.6123046875 256.783203125 -18.4580078125 242.619140625 -18.4580078125 c 2
 163.666015625 -18.4580078125 l 1
 163.666015625 323.653320312 l 2
 163.666015625 330.389648438 161.098632812 337.125976562 155.963867188 342.260742188 c 0
 145.693359375 352.53125 129.017578125 352.53125 118.747070312 342.260742188 c 0
 113.612304688 337.125976562 111.044921875 330.389648438 111.044921875 323.653320312 c 2
 111.044921875 -44.7685546875 l 2
 111.044921875 -58.9248046875 123.192382812 -71.0791015625 137.35546875 -71.0791015625 c 2
 216.30859375 -71.0791015625 l 1
 216.307617188 -150.03125 l 2
 216.307617188 -156.767578125 218.875 -163.504882812 224.010742188 -168.639648438 c 0
247.004882812 165.7578125 m 0
 247.004882812 174.196289062 244.251953125 181.262695312 241.233398438 178.243164062 c 2
 188.600585938 125.61328125 l 2
 186.858398438 123.87109375 185.6015625 118.935546875 185.6015625 113.126953125 c 0
 185.6015625 104.6875 188.354492188 97.6220703125 191.373046875 100.640625 c 2
 244.005859375 153.271484375 l 2
 245.748046875 155.013671875 247.004882812 159.948242188 247.004882812 165.7578125 c 0
293.248046875 259.3125 m 0
 296.290039062 254.618164062 299.635742188 261.737304688 299.635742188 271.020507812 c 0
 299.635742188 276.120117188 298.666992188 280.545898438 297.251953125 282.729492188 c 0
 271.04296875 323.17578125 227.993164062 345.014648438 183.329101562 345.014648438 c 0
 167.803710938 345.014648438 152.084960938 342.326171875 136.817382812 336.713867188 c 0
 73.6748046875 313.499023438 34.6142578125 273.83203125 14.8037109375 225.0859375 c 0
 4.87109375 200.645507812 -0.45703125 172.750976562 -0.45703125 143.24609375 c 0
 -0.45703125 101.125976562 10.046875 62.798828125 26.6767578125 30.50390625 c 0
 60.169921875 -34.541015625 122.072265625 -81.94921875 198.995117188 -81.94921875 c 0
 229.268554688 -81.94921875 261.868164062 -74.537109375 295.96484375 -57.751953125 c 0
 298.045898438 -56.7275390625 299.635742188 -51.30078125 299.635742188 -44.7685546875 c 0
 299.635742188 -36.99609375 297.357421875 -30.39453125 294.536132812 -31.7841796875 c 0
 260.912109375 -48.3369140625 228.782226562 -55.6328125 198.995117188 -55.6328125 c 0
 123.239257812 -55.6328125 62.642578125 -7.9951171875 31.4345703125 52.611328125 c 0
 15.712890625 83.1416015625 8.3154296875 115.291992188 8.3154296875 143.24609375 c 0
 8.3154296875 162.623046875 11.69921875 183.415039062 20.361328125 204.73046875 c 0
 37.7412109375 247.497070312 75.4033203125 287.619140625 137.893554688 310.594726562 c 0
 152.775390625 316.065429688 168.1484375 318.698242188 183.329101562 318.698242188 c 0
 227.045898438 318.698242188 269.177734375 296.458007812 293.248046875 259.3125 c 0
EndSplineSet
EndChar

StartChar: ".alt5"
Encoding: 22 -1 22
Width: 113
VWidth: 0
Flags: HW
LayerCount: 2
Fore
SplineSet
8.8232421875 63.021484375 m 2
 6.3349609375 70.4853515625 -3.63671875 66.18359375 -0.8984375 57.96875 c 2
 51.7333984375 -99.92578125 l 2
 54.2216796875 -107.390625 64.193359375 -103.088867188 61.455078125 -94.8740234375 c 2
 8.8232421875 63.021484375 l 2
59.8779296875 434.055664062 m 2
 54.5419921875 439.392578125 48.04296875 429.04296875 53.3095703125 423.776367188 c 2
 102.841796875 374.243164062 l 1
 57.3017578125 237.620117188 l 1
 8.9873046875 430.877929688 l 2
 7.048828125 438.631835938 -3.1767578125 435.411132812 -1.0625 426.954101562 c 2
 51.5693359375 216.426757812 l 2
 53.0009765625 210.700195312 59.6220703125 210.364257812 61.455078125 215.86328125 c 2
 114.0859375 373.758789062 l 2
 115.067382812 376.702148438 114.165039062 379.768554688 112.509765625 381.423828125 c 2
 59.8779296875 434.055664062 l 2
EndSplineSet
EndChar

StartChar: glyph23
Encoding: 23 45 23
Width: 532
VWidth: 0
Flags: HW
LayerCount: 2
Fore
SplineSet
479.50390625 430.2734375 m 2
 478.454101562 436.573242188 472.0078125 434.387695312 473.146484375 427.55859375 c 2
 525.778320312 111.76953125 l 2
 526.828125 105.469726562 533.274414062 107.655273438 532.135742188 114.484375 c 2
 479.50390625 430.2734375 l 2
106.1640625 -207.129882812 m 2
 109.810546875 -210.776367188 113.220703125 -201.7734375 109.643554688 -198.197265625 c 2
 57.9287109375 -146.481445312 l 1
 5.697265625 62.447265625 l 2
 4.1943359375 68.4560546875 -2.0654296875 65.150390625 -0.4140625 58.5439453125 c 2
 52.2177734375 -151.983398438 l 2
 52.478515625 -153.028320312 52.943359375 -153.908203125 53.533203125 -154.498046875 c 2
 106.1640625 -207.129882812 l 2
EndSplineSet
EndChar

StartChar: glyph24
Encoding: 24 79 24
Width: 400
VWidth: 0
Flags: HW
LayerCount: 2
Fore
SplineSet
248.512695312 236.998046875 m 0
 235.737304688 224.223632812 239.086914062 200.650390625 258.01953125 193.694335938 c 0
 279.671875 185.740234375 296.736328125 174.477539062 309.94921875 161.265625 c 0
 362.637695312 108.576171875 358.303710938 17.8955078125 307.272460938 -33.1357421875 c 0
 285.127929688 -55.2802734375 254.317382812 -70.2158203125 213.911132812 -71.095703125 c 0
 161.377929688 -72.2392578125 123.711914062 -54.875 97.65234375 -28.8154296875 c 0
 71.4306640625 -2.59375 56.146484375 34.05859375 53.103515625 72.421875 c 0
 49.29296875 120.48046875 64.84375 169.627929688 97.65234375 202.436523438 c 0
 123.711914062 228.49609375 161.377929688 245.861328125 213.912109375 244.717773438 c 0
 220.838867188 244.567382812 227.815429688 247.1328125 233.096679688 252.4140625 c 0
 242.11328125 261.430664062 243.213867188 275.383789062 236.399414062 285.60546875 c 2
 131.135742188 443.498046875 l 2
 121.356445312 458.16796875 101.7890625 458.6953125 90.6171875 447.5234375 c 0
 81.6015625 438.506835938 80.5009765625 424.553710938 87.3154296875 414.33203125 c 2
 167.596679688 293.91015625 l 1
 123.798828125 286.338867188 87.6279296875 266.844726562 60.4365234375 239.653320312 c 0
 14.9931640625 194.208984375 -4.234375 129.802734375 0.6484375 68.2314453125 c 0
 4.5615234375 18.890625 24.056640625 -29.65234375 60.4365234375 -66.0322265625 c 0
 96.91015625 -102.505859375 149.540039062 -125.130859375 215.064453125 -123.705078125 c 0
 268.643554688 -122.538085938 312.953125 -101.887695312 344.48828125 -70.3525390625 c 0
 414.885742188 0.044921875 422.26953125 123.376953125 347.165039062 198.481445312 c 0
 328.342773438 217.303710938 304.606445312 232.657226562 276.220703125 243.0859375 c 0
 266.889648438 246.513671875 255.999023438 244.484375 248.512695312 236.998046875 c 0
EndSplineSet
EndChar

StartChar: \.alt3
Encoding: 25 -1 25
Width: 235
VWidth: 0
Flags: HW
LayerCount: 2
Fore
SplineSet
11.88671875 379.573242188 m 2
 4.6240234375 379.573242188 -1.271484375 378.099609375 -1.271484375 376.284179688 c 0
 -1.271484375 374.46875 4.6240234375 372.994140625 11.88671875 372.994140625 c 2
 169.782226562 372.994140625 l 2
 177.043945312 372.994140625 182.939453125 374.46875 182.939453125 376.284179688 c 0
 182.939453125 378.099609375 177.043945312 379.573242188 169.782226562 379.573242188 c 2
 11.88671875 379.573242188 l 2
64.5185546875 116.416015625 m 0
 56.6630859375 116.416015625 49.9765625 114.6640625 51.5859375 112.517578125 c 2
 209.481445312 -98.0087890625 l 2
 210.625 -99.533203125 215.983398438 -100.688476562 222.413085938 -100.688476562 c 0
 230.268554688 -100.688476562 236.955078125 -98.9365234375 235.345703125 -96.7900390625 c 2
 77.451171875 113.736328125 l 2
 76.306640625 115.260742188 70.9482421875 116.416015625 64.5185546875 116.416015625 c 0
EndSplineSet
EndChar

StartChar: \.alt4
Encoding: 26 -1 26
Width: 577
VWidth: 0
Flags: HW
LayerCount: 2
Fore
SplineSet
47.9501953125 389.337890625 m 2
 38.7841796875 405.377929688 18.0576171875 406.463867188 6.4853515625 394.892578125 c 0
 -2.087890625 386.318359375 -3.50390625 373.279296875 2.23828125 363.23046875 c 2
 212.764648438 -5.1904296875 l 2
 217.029296875 -12.654296875 224.502929688 -16.005859375 230.43359375 -18.970703125 c 1
 205.5859375 -23.9365234375 200.787109375 -60.8994140625 227.26953125 -69.7265625 c 2
 543.05859375 -174.989257812 l 2
 552.21875 -178.04296875 562.73046875 -175.926757812 570.017578125 -168.639648438 c 0
 581.952148438 -156.705078125 580.264648438 -135.03125 563.186523438 -126.4921875 c 2
 254.51953125 27.841796875 l 1
 47.9501953125 389.337890625 l 2
322.276367188 -10.744140625 m 0
 332.546875 -21.0146484375 349.22265625 -21.0146484375 359.493164062 -10.744140625 c 2
 412.124023438 41.88671875 l 2
 422.393554688 52.1572265625 422.392578125 68.8330078125 412.123046875 79.103515625 c 0
 401.852539062 89.373046875 385.176757812 89.373046875 374.90625 79.103515625 c 2
 322.275390625 26.4716796875 l 2
 312.004882812 16.2021484375 312.006835938 -0.474609375 322.276367188 -10.744140625 c 0
EndSplineSet
EndChar

StartChar: ".alt6"
Encoding: 27 -1 27
Width: 210
VWidth: 0
Flags: HW
LayerCount: 2
Fore
SplineSet
86.6552734375 -116.008789062 m 0
 96.92578125 -126.278320312 113.6015625 -126.278320312 123.872070312 -116.008789062 c 0
 129.006835938 -110.873046875 131.57421875 -104.13671875 131.57421875 -97.400390625 c 2
 131.57421875 218.389648438 l 2
 131.57421875 225.125976562 129.006835938 231.862304688 123.872070312 236.997070312 c 0
 113.6015625 247.267578125 96.92578125 247.267578125 86.6552734375 236.997070312 c 0
 81.5205078125 231.862304688 78.953125 225.125976562 78.953125 218.389648438 c 2
 78.953125 -97.400390625 l 2
 78.953125 -104.13671875 81.5205078125 -110.873046875 86.6552734375 -116.008789062 c 0
EndSplineSet
EndChar

StartChar: \.alt5
Encoding: 29 -1 28
Width: 315
VWidth: 0
Flags: HW
LayerCount: 2
Fore
SplineSet
176.501953125 305.044921875 m 0
 186.772460938 315.315429688 186.772460938 331.991210938 176.501953125 342.260742188 c 0
 171.3671875 347.396484375 164.630859375 349.963867188 157.893554688 349.963867188 c 2
 105.263671875 349.963867188 l 2
 98.52734375 349.963867188 91.791015625 347.396484375 86.6552734375 342.260742188 c 0
 79.8779296875 335.483398438 77.5732421875 325.9140625 79.7421875 317.239257812 c 2
 185.00390625 -103.814453125 l 2
 190.1015625 -124.206054688 215.400390625 -129.7421875 229.133789062 -116.008789062 c 0
 235.912109375 -109.23046875 238.216796875 -99.662109375 236.047851562 -90.986328125 c 2
 138.966796875 297.342773438 l 1
 157.893554688 297.342773438 l 2
 164.630859375 297.342773438 171.3671875 299.91015625 176.501953125 305.044921875 c 0
EndSplineSet
EndChar

StartChar: glyph29
Encoding: 30 65 29
Width: 401
VWidth: 0
Flags: HW
LayerCount: 2
Fore
SplineSet
123.872070312 -78.7919921875 m 0
 121.5234375 -76.443359375 118.951171875 -74.255859375 116.66796875 -71.97265625 c 0
 59.8310546875 -15.1357421875 71.408203125 64.974609375 119.059570312 112.626953125 c 0
 151.58984375 145.157226562 199.251953125 161.05859375 254.112304688 141.041992188 c 0
 269.337890625 135.486328125 282.103515625 127.079101562 292.357421875 116.825195312 c 0
 329.912109375 79.2705078125 334.981445312 16.052734375 296.18359375 -27.21484375 c 0
 286.922851562 -37.541015625 287.255859375 -53.451171875 297.181640625 -63.376953125 c 0
 307.671875 -73.8671875 325.051757812 -73.8583984375 335.396484375 -62.322265625 c 0
 393.640625 2.6318359375 385.96875 97.6455078125 329.57421875 154.041015625 c 0
 313.928710938 169.686523438 294.622070312 182.293945312 272.204101562 190.47265625 c 0
 197.305664062 217.80078125 127.2109375 195.209960938 81.8427734375 149.842773438 c 0
 15.2490234375 83.2490234375 -2.2421875 -36.34765625 87.7099609375 -117.006835938 c 0
 98.037109375 -126.267578125 113.946289062 -125.934570312 123.872070312 -116.008789062 c 0
 134.141601562 -105.73828125 134.141601562 -89.0625 123.872070312 -78.7919921875 c 0
375 271.021484375 m 2
 375 275.256835938 361.841796875 275.278320312 361.841796875 271.021484375 c 2
 361.841796875 -202.663085938 l 2
 361.841796875 -206.8984375 375 -206.919921875 375 -202.663085938 c 2
 375 271.021484375 l 2
156.134765625 264.5 m 2
 157.805664062 259.487304688 160.526367188 263.609375 160.526367188 271.020507812 c 0
 160.526367188 273.608398438 160.189453125 275.935546875 159.653320312 277.541992188 c 2
 107.0234375 435.4375 l 2
 105.352539062 440.450195312 102.631835938 436.328125 102.631835938 428.916015625 c 0
 102.631835938 426.328125 102.96875 424.000976562 103.50390625 422.39453125 c 2
 156.134765625 264.5 l 2
EndSplineSet
EndChar

StartChar: glyph30
Encoding: 31 89 30
Width: 532
VWidth: 0
Flags: HW
LayerCount: 2
Fore
SplineSet
312.029296875 -97.400390625 m 0
 312.029296875 -113.874023438 314.265625 -127.821289062 316.822265625 -122.70703125 c 2
 369.454101562 -17.443359375 l 2
 371.02734375 -14.2978515625 372.180664062 -4.15234375 372.180664062 7.86328125 c 0
 372.180664062 24.337890625 369.944335938 38.28515625 367.387695312 33.1708984375 c 2
 314.755859375 -72.0927734375 l 2
 313.182617188 -75.2392578125 312.029296875 -85.384765625 312.029296875 -97.400390625 c 0
254.38671875 113.126953125 m 2
 254.38671875 -97.400390625 l 2
 254.38671875 -107.42578125 262.067382812 -114.303710938 268.015625 -108.35546875 c 2
 425.909179688 49.5390625 l 2
 431.870117188 55.5 430.534179688 69.626953125 423.825195312 72.9814453125 c 2
 213.298828125 178.243164062 l 2
 207.263671875 181.260742188 201.75390625 174.196289062 201.75390625 165.7578125 c 0
 201.75390625 159.948242188 204.26953125 155.013671875 207.75390625 153.271484375 c 2
 261.967773438 126.1640625 l 1
 257.688476562 125.291992188 254.38671875 119.783203125 254.38671875 113.126953125 c 2
154.604492188 -97.400390625 m 2
 154.604492188 -101.634765625 161.18359375 -101.657226562 161.18359375 -97.400390625 c 2
 161.18359375 6.673828125 l 1
 423.581054688 321.549804688 l 2
 425.108398438 323.3828125 424.139648438 326.092773438 422.092773438 326.775390625 c 2
 106.301757812 432.038085938 l 2
 102.147460938 433.421875 100.278320312 427.109375 104.22265625 425.794921875 c 2
 415.440429688 322.056640625 l 1
 155.366210938 9.9677734375 l 2
 154.890625 9.396484375 154.604492188 8.6630859375 154.604492188 7.86328125 c 2
 154.604492188 -97.400390625 l 2
EndSplineSet
EndChar

StartChar: ".alt7"
Encoding: 32 -1 31
Width: 105
VWidth: 0
Flags: HW
LayerCount: 2
Fore
SplineSet
71.240234375 131.733398438 m 0
 60.9697265625 142.00390625 44.2939453125 142.00390625 34.0234375 131.733398438 c 0
 28.888671875 126.598632812 26.3212890625 119.862304688 26.3212890625 113.125 c 2
 26.3212890625 60.4951171875 l 2
 26.3212890625 53.7587890625 28.888671875 47.0224609375 34.0234375 41.8876953125 c 0
 44.2939453125 31.6171875 60.9697265625 31.6171875 71.240234375 41.8876953125 c 0
 76.375 47.0224609375 78.9423828125 53.7587890625 78.9423828125 60.4951171875 c 2
 78.9423828125 113.125 l 2
 78.9423828125 119.862304688 76.375 126.598632812 71.240234375 131.733398438 c 0
EndSplineSet
EndChar

StartChar: glyph32
Encoding: 33 105 32
Width: 261
VWidth: 0
Flags: HW
LayerCount: 2
Fore
SplineSet
59.1171875 -10.7451171875 m 0
 69.38671875 -21.0146484375 86.0625 -21.0146484375 96.3330078125 -10.7451171875 c 0
 101.467773438 -5.609375 104.03515625 1.126953125 104.03515625 7.86328125 c 2
 104.036132812 81.490234375 l 1
 197.571289062 143.84765625 l 2
 209.063476562 151.509765625 211.663085938 164.936523438 207.416992188 175.553710938 c 2
 102.154296875 438.711914062 l 2
 94.7685546875 457.176757812 71.6669921875 460.07421875 59.1181640625 447.524414062 c 0
 53.982421875 442.388671875 51.4150390625 435.65234375 51.4150390625 428.916015625 c 2
 51.4140625 109.674804688 l 1
 10.5107421875 82.4052734375 l 2
 -4.1591796875 72.625 -4.685546875 53.0576171875 6.4853515625 41.88671875 c 0
 15.501953125 32.8701171875 29.455078125 31.76953125 39.6767578125 38.583984375 c 2
 51.4140625 46.4091796875 l 1
 51.4140625 7.86328125 l 2
 51.4140625 1.126953125 53.9814453125 -5.609375 59.1171875 -10.7451171875 c 0
156.671875 -202.663085938 m 2
 156.671875 -204.73828125 168.463867188 -206.422851562 182.987304688 -206.422851562 c 0
 197.51171875 -206.422851562 209.303710938 -204.73828125 209.303710938 -202.663085938 c 2
 209.303710938 -97.4248046875 l 1
 209.51171875 -99.50390625 221.223632812 -101.159179688 235.619140625 -101.159179688 c 0
 250.143554688 -101.159179688 262.145507812 -99.4736328125 261.938476562 -97.3994140625 c 2
 209.30078125 428.970703125 l 2
 209.095703125 431.020507812 197.383789062 432.67578125 182.987304688 432.67578125 c 0
 168.463867188 432.67578125 156.671875 430.991210938 156.671875 428.916015625 c 2
 156.671875 -202.663085938 l 2
-1.2216796875 -150.03125 m 0
 -1.2216796875 -152.106445312 10.5693359375 -153.791015625 25.09375 -153.791015625 c 0
 38.888671875 -153.791015625 50.21875 -152.271484375 51.3212890625 -150.340820312 c 2
 261.84765625 218.080078125 l 2
 263.14453125 220.350585938 250.618164062 222.149414062 235.619140625 222.149414062 c 0
 221.825195312 222.149414062 210.495117188 220.629882812 209.391601562 218.69921875 c 2
 -1.1337890625 -149.721679688 l 2
 -1.1337890625 -149.82421875 -1.2216796875 -149.926757812 -1.2216796875 -150.03125 c 0
EndSplineSet
EndChar

StartChar: glyph33
Encoding: 34 88 33
Width: 350
VWidth: 0
Flags: HW
LayerCount: 2
Fore
SplineSet
184.427734375 236.997070312 m 0
 174.157226562 247.267578125 157.481445312 247.267578125 147.2109375 236.997070312 c 0
 142.076171875 231.862304688 139.508789062 225.125976562 139.508789062 218.389648438 c 2
 139.508789062 113.125 l 2
 139.508789062 109.084960938 140.432617188 105.043945312 142.280273438 101.348632812 c 2
 300.174804688 -214.440429688 l 2
 308.709960938 -231.509765625 330.387695312 -233.206054688 342.322265625 -221.271484375 c 0
 350.537109375 -213.056640625 352.181640625 -200.7421875 347.25390625 -190.88671875 c 2
 192.129882812 119.359375 l 1
 192.129882812 218.389648438 l 2
 192.129882812 225.125976562 189.5625 231.862304688 184.427734375 236.997070312 c 0
222.939453125 169.4453125 m 0
 221.47265625 169.4453125 219.953125 169.517578125 218.450195312 169.517578125 c 0
 213.608398438 169.517578125 209.677734375 167.833007812 209.677734375 165.7578125 c 0
 209.677734375 163.778320312 213.255859375 162.154296875 217.7890625 162.008789062 c 0
 248.462890625 161.028320312 270.984375 168.376953125 288.08984375 179.184570312 c 0
 320.73828125 199.8125 335.90625 235.491210938 335.90625 271.021484375 c 0
 335.90625 306.551757812 320.73828125 342.229492188 288.090820312 362.857421875 c 0
 270.987304688 373.6640625 248.446289062 381.013671875 217.7890625 380.033203125 c 0
 202.795898438 379.553710938 189.881835938 376.333984375 179.35546875 371.3671875 c 0
 158.4453125 361.500976562 145.127929688 344.640625 135.239257812 323.63671875 c 0
 115.303710938 281.290039062 110.19921875 220.586914062 104.424804688 165.930664062 c 0
 95.9521484375 85.7373046875 58.6611328125 11.3583984375 -0.0458984375 -43.197265625 c 0
 -4.904296875 -47.7119140625 11.224609375 -50.6796875 15.89453125 -46.33984375 c 0
 75.90625 9.427734375 113.395507812 84.6103515625 121.950195312 165.584960938 c 0
 127.703125 220.038085938 133.005859375 280.870117188 152.4375 322.143554688 c 0
 160.487304688 339.244140625 171.073242188 353.059570312 184.236328125 361.75 c 0
 195.57421875 369.234375 206.637695312 372.596679688 222.940429688 372.596679688 c 0
 242.26171875 372.596679688 259.047851562 367.814453125 273.561523438 358.64453125 c 0
 302.658203125 340.259765625 318.362304688 305.71484375 318.362304688 271.021484375 c 0
 318.362304688 236.328125 302.658203125 201.782226562 273.560546875 183.397460938 c 0
 259.047851562 174.227539062 242.260742188 169.4453125 222.939453125 169.4453125 c 0
EndSplineSet
EndChar

StartChar: 3.alt1
Encoding: 35 -1 34
Width: 380
VWidth: 0
Flags: HW
LayerCount: 2
Fore
SplineSet
96.3330078125 342.260742188 m 0
 86.0625 352.53125 69.38671875 352.53125 59.1171875 342.260742188 c 0
 53.9814453125 337.125976562 51.4140625 330.389648438 51.4140625 323.653320312 c 2
 51.4150390625 -150.03125 l 2
 51.4150390625 -156.767578125 53.982421875 -163.504882812 59.1181640625 -168.639648438 c 0
 69.3876953125 -178.91015625 86.0634765625 -178.91015625 96.333984375 -168.639648438 c 0
 101.46875 -163.504882812 104.036132812 -156.767578125 104.036132812 -150.03125 c 2
 104.03515625 323.653320312 l 2
 104.03515625 330.389648438 101.467773438 337.125976562 96.3330078125 342.260742188 c 0
271.829101562 -76.8359375 m 0
 259.021484375 -87.0859375 258.908203125 -105.272460938 269.64453125 -116.008789062 c 0
 279.21484375 -125.579101562 294.34765625 -126.23046875 304.67578125 -117.96484375 c 0
 311.061523438 -112.854492188 317.05078125 -107.490234375 322.643554688 -101.896484375 c 0
 407.297851562 -17.2431640625 395.046875 112.274414062 320.866210938 186.454101562 c 0
 286.90625 220.415039062 239.752929688 242.9296875 183.821289062 244.686523438 c 0
 80.2900390625 247.940429688 -4.4580078125 163.192382812 -1.2041015625 59.6611328125 c 0
 -1.0009765625 53.205078125 1.5625 46.8095703125 6.4853515625 41.88671875 c 0
 16.755859375 31.6162109375 33.431640625 31.6162109375 43.7021484375 41.88671875 c 0
 49.048828125 47.2333984375 51.6123046875 54.3154296875 51.3916015625 61.3271484375 c 0
 49.0927734375 134.452148438 109.03125 194.389648438 182.15625 192.091796875 c 0
 224.575195312 190.758789062 258.74609375 174.142578125 283.650390625 149.23828125 c 0
 342.498046875 90.390625 349.515625 -14.6640625 271.829101562 -76.8359375 c 0
6.4853515625 394.892578125 m 0
 -6.541015625 381.865234375 -2.65625 357.791992188 16.7431640625 351.326171875 c 2
 303.770507812 255.651367188 l 1
 159.44921875 -32.9921875 l 2
 154.521484375 -42.84765625 156.165039062 -55.1611328125 164.380859375 -63.376953125 c 0
 174.650390625 -73.646484375 191.327148438 -73.646484375 201.596679688 -63.376953125 c 2
 359.4921875 94.5185546875 l 2
 369.76171875 104.788085938 369.76171875 121.463867188 359.4921875 131.734375 c 0
 349.221679688 142.004882812 332.545898438 142.004882812 322.275390625 131.734375 c 2
 279.059570312 88.5185546875 l 1
 364.422851562 259.245117188 l 2
 370.916015625 272.231445312 365.651367188 290.5078125 349.234375 295.98046875 c 2
 33.4443359375 401.2421875 l 2
 24.2841796875 404.295898438 13.7724609375 402.178710938 6.4853515625 394.892578125 c 0
EndSplineSet
EndChar

StartChar: ".alt8"
Encoding: 36 -1 35
Width: 134
VWidth: 0
Flags: HW
LayerCount: 2
Fore
SplineSet
43.7021484375 447.524414062 m 0
 33.431640625 457.793945312 16.755859375 457.793945312 6.4853515625 447.524414062 c 0
 1.3505859375 442.388671875 -1.216796875 435.65234375 -1.216796875 428.916015625 c 2
 -1.216796875 -202.663085938 l 2
 -1.216796875 -209.400390625 1.3505859375 -216.13671875 6.4853515625 -221.271484375 c 0
 16.755859375 -231.541992188 33.431640625 -231.541992188 43.7021484375 -221.271484375 c 0
 48.8369140625 -216.13671875 51.404296875 -209.400390625 51.404296875 -202.663085938 c 2
 51.404296875 428.916015625 l 2
 51.404296875 435.65234375 48.8369140625 442.388671875 43.7021484375 447.524414062 c 0
25.09375 437.688476562 m 2
 22.6728515625 437.688476562 20.7080078125 433.7578125 20.7080078125 428.916015625 c 0
 20.7080078125 424.075195312 22.6728515625 420.14453125 25.09375 420.14453125 c 2
 130.356445312 420.14453125 l 2
 132.77734375 420.14453125 134.7421875 424.075195312 134.7421875 428.916015625 c 0
 134.7421875 433.7578125 132.77734375 437.688476562 130.356445312 437.688476562 c 2
 25.09375 437.688476562 l 2
EndSplineSet
EndChar

StartChar: -.alt1
Encoding: 37 -1 36
Width: 726
VWidth: 0
Flags: HW
LayerCount: 2
Fore
SplineSet
6.4853515625 79.1025390625 m 0
 -3.7841796875 68.83203125 -3.7841796875 52.15625 6.4853515625 41.88671875 c 0
 11.62109375 36.7509765625 18.357421875 34.18359375 25.0947265625 34.18359375 c 2
 35.1416015625 34.18359375 l 1
 1.5537109375 -32.9921875 l 2
 -3.3740234375 -42.84765625 -1.73046875 -55.1611328125 6.4853515625 -63.376953125 c 0
 18.419921875 -75.3115234375 40.0927734375 -73.6240234375 48.6318359375 -56.544921875 c 2
 101.264648438 48.71875 l 2
 106.192382812 58.57421875 104.547851562 70.888671875 96.3330078125 79.103515625 c 0
 91.1982421875 84.23828125 84.4609375 86.8056640625 77.724609375 86.8056640625 c 2
 25.09375 86.8046875 l 2
 18.357421875 86.8046875 11.62109375 84.2373046875 6.4853515625 79.1025390625 c 0
500.571289062 162.788085938 m 2
 503.487304688 165.704101562 500.01953125 171.759765625 496.985351562 168.7265625 c 2
 391.721679688 63.4638671875 l 2
 388.8046875 60.5478515625 392.2734375 54.4921875 395.306640625 57.5263671875 c 2
 500.571289062 162.788085938 l 2
340.489257812 432.641601562 m 0
 336.862304688 432.013671875 337.420898438 424.522460938 341.276367188 425.190429688 c 0
 363.598632812 429.056640625 385.10546875 430.890625 405.748046875 430.890625 c 0
 602.482421875 430.890625 720.952148438 264.557617188 720.952148438 100.471679688 c 0
 720.952148438 -23.681640625 653.294921875 -147.837890625 498.05078125 -199.021484375 c 0
 460.413085938 -211.430664062 424.250976562 -217.102539062 390.041015625 -217.102539062 c 0
 206.884765625 -217.102539062 79.6513671875 -54.708984375 79.6513671875 108.401367188 c 0
 79.6513671875 207.278320312 126.208984375 307.334960938 236.841796875 372.868164062 c 0
 240.130859375 374.81640625 237.955078125 381.806640625 234.399414062 379.701171875 c 0
 122.23046875 313.2578125 73.8037109375 210.6484375 73.8037109375 108.401367188 c 0
 73.8037109375 -59.84375 204.383789062 -224.622070312 390.041015625 -224.622070312 c 0
 424.763671875 -224.622070312 461.4140625 -218.864257812 499.505859375 -206.305664062 c 0
 656.618164062 -154.504882812 726.799804688 -27.6640625 726.799804688 100.471679688 c 0
 726.799804688 269.438476562 605.053710938 438.409179688 405.748046875 438.409179688 c 0
 384.830078125 438.409179688 363.061523438 436.55078125 340.489257812 432.641601562 c 0
EndSplineSet
EndChar

StartChar: NO
Encoding: 38 -1 37
Width: 356
VWidth: 0
Flags: HW
LayerCount: 2
Fore
SplineSet
100.5078125 280.094726562 m 0
 128.45703125 252.14453125 157.598632812 209.49609375 187.090820312 180.00390625 c 0
 202.029296875 165.065429688 218.020507812 151.658203125 237.454101562 144.2734375 c 0
 251.00390625 139.124023438 266.965820312 137.268554688 282.698242188 141.924804688 c 0
 295.14453125 145.609375 306.345703125 152.891601562 316.1953125 162.741210938 c 0
 327.432617188 173.978515625 337.061523438 188.421875 346.143554688 206.641601562 c 0
 361.575195312 237.596679688 360.301757812 275.17578125 331.669921875 303.807617188 c 0
 302.176757812 333.30078125 247.797851562 343.72265625 210.954101562 306.87890625 c 0
 204.178710938 300.103515625 198.420898438 292.034179688 193.802734375 282.826171875 c 0
 188.857421875 272.965820312 190.49609375 260.635742188 198.719726562 252.413085938 c 0
 210.646484375 240.486328125 232.298828125 242.159179688 240.852539062 259.216796875 c 0
 243.1640625 263.825195312 245.696289062 267.188476562 248.169921875 269.662109375 c 0
 260.038085938 281.530273438 280.953125 280.091796875 294.454101562 266.590820312 c 0
 298.459960938 262.584960938 301.208007812 257.884765625 302.469726562 253.01953125 c 0
 304.006835938 247.087890625 303.9453125 239.985351562 299.037109375 230.138671875 c 0
 291.671875 215.364257812 284.610351562 205.588867188 278.978515625 199.95703125 c 0
 274.025390625 195.00390625 270.287109375 193.142578125 267.698242188 192.376953125 c 0
 264.63671875 191.470703125 261.65625 191.38671875 256.200195312 193.4609375 c 0
 248.265625 196.475585938 236.75390625 204.772460938 224.307617188 217.219726562 c 0
 196.053710938 245.473632812 166.837890625 288.196289062 137.723632812 317.310546875 c 0
 122.537109375 332.497070312 105.974609375 346.6875 83.984375 351.307617188 c 0
 72.7705078125 353.6640625 60.083984375 352.795898438 48.6416015625 347.66015625 c 0
 -8.0078125 322.234375 -15.7587890625 250.84375 23.3466796875 211.737304688 c 0
 30.4326171875 204.651367188 38.9365234375 198.739257812 48.642578125 194.383789062 c 0
 58.322265625 190.0390625 70.09765625 191.838867188 78.041015625 199.782226562 c 0
 90.2705078125 212.01171875 88.04296875 234.399414062 70.2236328125 242.397460938 c 0
 46.087890625 253.228515625 44.7001953125 288.19140625 70.224609375 299.647460938 c 0
 71.2197265625 300.094726562 71.2861328125 300.198242188 73.1005859375 299.81640625 c 0
 77.1669921875 298.961914062 87.7607421875 292.840820312 100.5078125 280.094726562 c 0
EndSplineSet
Ligature2: "liga-1" N O
EndChar

StartChar: glyph38
Encoding: 39 55 38
Width: 473
VWidth: 0
Flags: HW
LayerCount: 2
Fore
SplineSet
52.6318359375 192.073242188 m 2
 50.2109375 192.073242188 48.24609375 203.865234375 48.24609375 218.388671875 c 0
 48.24609375 232.913085938 50.2109375 244.705078125 52.6318359375 244.705078125 c 2
 192.438476562 244.705078125 l 1
 262.092773438 349.186523438 l 2
 265.0390625 353.606445312 267.543945312 339.836914062 267.543945312 323.654296875 c 0
 267.543945312 311.334960938 266.129882812 300.981445312 264.223632812 298.122070312 c 2
 228.612304688 244.705078125 l 1
 421.053710938 244.705078125 l 2
 423.474609375 244.705078125 425.439453125 232.913085938 425.439453125 218.388671875 c 0
 425.439453125 204.715820312 423.698242188 193.463867188 421.473632812 192.192382812 c 2
 53.0517578125 -18.3330078125 l 2
 50.3701171875 -19.865234375 48.24609375 -7.2197265625 48.24609375 7.86328125 c 0
 48.24609375 20.1826171875 49.66015625 30.5361328125 51.56640625 33.3955078125 c 2
 157.350585938 192.073242188 l 1
 52.6318359375 192.073242188 l 2
328.736328125 192.073242188 m 1
 193.525390625 192.073242188 l 1
 110.319335938 67.263671875 l 1
 328.736328125 192.073242188 l 1
EndSplineSet
EndChar

StartChar: |.alt1
Encoding: 40 -1 39
Width: 684
VWidth: 0
Flags: HW
LayerCount: 2
Fore
SplineSet
387.029296875 342.26171875 m 0
 376.758789062 352.532226562 360.083007812 352.532226562 349.8125 342.26171875 c 0
 345.514648438 337.963867188 343.014648438 332.54296875 342.314453125 326.940429688 c 2
 289.68359375 -94.1142578125 l 2
 288.7109375 -101.899414062 291.209960938 -110.037109375 297.181640625 -116.008789062 c 0
 307.452148438 -126.278320312 324.127929688 -126.278320312 334.397460938 -116.008789062 c 0
 338.696289062 -111.709960938 341.1953125 -106.290039062 341.895507812 -100.686523438 c 2
 394.52734375 320.368164062 l 2
 395.5 328.15234375 393.000976562 336.290039062 387.029296875 342.26171875 c 0
EndSplineSet
EndChar

StartChar: ".alt9"
Encoding: 41 -1 40
Width: 477
VWidth: 0
Flags: HW
LayerCount: 2
Fore
SplineSet
49.2783203125 439.30078125 m 2
 41.5361328125 457.368164062 18.8466796875 459.885742188 6.4853515625 447.524414062 c 0
 -1.3466796875 439.69140625 -3.2060546875 428.1328125 0.9091796875 418.53125 c 2
 158.803710938 50.1103515625 l 2
 160.083984375 47.123046875 161.943359375 44.32421875 164.380859375 41.8876953125 c 2
 427.538085938 -221.270507812 l 2
 437.80859375 -231.541015625 454.484375 -231.541015625 464.754882812 -221.270507812 c 0
 475.024414062 -211.000976562 475.024414062 -194.32421875 464.754882812 -184.0546875 c 2
 205.188476562 75.51171875 l 1
 49.2783203125 439.30078125 l 2
209.939453125 -50.5087890625 m 2
 214.545898438 -71.2392578125 240.245117188 -77.3603515625 254.228515625 -63.376953125 c 0
 260.83203125 -56.7734375 263.189453125 -47.5224609375 261.301757812 -39.0283203125 c 2
 156.0390625 434.65625 l 2
 150.336914062 460.315429688 111.720703125 462.868164062 104.8359375 435.330078125 c 2
 52.2041015625 224.8046875 l 2
 50.6923828125 218.758789062 51.353515625 212.280273438 54.1865234375 206.61328125 c 2
 159.44921875 -3.9130859375 l 2
 167.899414062 -20.8125 189.2109375 -22.625 201.19140625 -11.1416015625 c 1
 209.939453125 -50.5087890625 l 2
111.749023438 305.044921875 m 0
 122.018554688 294.775390625 138.6953125 294.775390625 148.96484375 305.044921875 c 0
 154.477539062 310.557617188 157.03125 317.916015625 156.625976562 325.138671875 c 0
 154.104492188 370.055664062 169.2578125 403.65625 192.967773438 427.366210938 c 0
 243.485351562 477.883789062 334.412109375 482.348632812 386.010742188 430.750976562 c 0
 401.03125 415.73046875 413.373046875 395.600585938 420.821289062 369.125976562 c 0
 433.319335938 324.698242188 419.396484375 284.756835938 392.017578125 257.377929688 c 0
 356.41015625 221.770507812 299.936523438 209.271484375 249.544921875 240.725585938 c 0
 239.388671875 247.064453125 225.8359375 245.822265625 217.01171875 236.998046875 c 0
 205.669921875 225.65625 206.416992188 205.590820312 221.6953125 196.0546875 c 0
 294.603515625 150.545898438 378.416992188 169.345703125 429.233398438 220.162109375 c 0
 468.73046875 259.658203125 489.4296875 319.600585938 471.469726562 383.442382812 c 0
 461.764648438 417.942382812 444.915039062 446.278320312 423.2265625 467.966796875 c 0
 348.918945312 542.274414062 225.515625 534.345703125 155.751953125 464.58203125 c 0
 121.68359375 430.514648438 100.760742188 381.443359375 104.087890625 322.16796875 c 0
 104.4375 315.934570312 106.991210938 309.802734375 111.749023438 305.044921875 c 0
EndSplineSet
EndChar

StartChar: |.alt2
Encoding: 42 -1 41
Width: 315
VWidth: 0
Flags: HW
LayerCount: 2
Fore
SplineSet
161.555664062 -148.033203125 m 2
 162.694335938 -159.41796875 155.310546875 -162.803710938 154.233398438 -152.030273438 c 2
 143.93359375 -49.0341796875 l 1
 102.514648438 54.5126953125 l 2
 100.309570312 60.02734375 102.047851562 69.267578125 105.263671875 69.267578125 c 0
 106.34765625 69.267578125 107.325195312 68.193359375 108.01171875 66.4775390625 c 2
 140.505859375 -14.7587890625 l 1
 101.602539062 374.286132812 l 2
 100.54296875 384.876953125 107.036132812 388.998046875 108.7265625 379.704101562 c 2
 213.989257812 -199.244140625 l 2
 215.616210938 -208.193359375 210.571289062 -215.62890625 207.778320312 -208.645507812 c 2
 154.23046875 -74.775390625 l 1
 161.555664062 -148.033203125 l 2
118.834960938 279.174804688 m 1
 150.802734375 -40.4990234375 l 1
 198.75390625 -160.37890625 l 1
 118.834960938 279.174804688 l 1
EndSplineSet
EndChar

StartChar: glyph42
Encoding: 43 114 42
Width: 793
VWidth: 0
Flags: HW
LayerCount: 2
Fore
SplineSet
310.533203125 273.362304688 m 2
 304.163085938 271.76953125 307.30078125 268.09765625 315.7890625 268.09765625 c 0
 317.759765625 268.09765625 319.580078125 268.314453125 321.044921875 268.680664062 c 2
 517.54296875 317.805664062 l 1
 517.54296875 7.86328125 l 2
 517.54296875 6.25 521.473632812 4.939453125 526.314453125 4.939453125 c 0
 531.15625 4.939453125 535.086914062 6.25 535.086914062 7.86328125 c 2
 535.086914062 323.653320312 l 2
 535.086914062 325.973632812 526.869140625 327.446289062 521.05859375 325.994140625 c 2
 310.533203125 273.362304688 l 2
267.319335938 431.688476562 m 2
 265.609375 441.951171875 257.125 437.364257812 258.995117188 426.143554688 c 2
 311.626953125 110.354492188 l 2
 313.337890625 100.091796875 321.821289062 104.678710938 319.951171875 115.899414062 c 2
 267.319335938 431.688476562 l 2
521.9296875 7.86328125 m 2
 521.9296875 0.6015625 523.89453125 -5.2939453125 526.315429688 -5.2939453125 c 0
 528.736328125 -5.2939453125 530.701171875 0.6015625 530.701171875 7.86328125 c 2
 530.701171875 428.916015625 l 2
 530.701171875 436.177734375 528.736328125 442.07421875 526.315429688 442.07421875 c 0
 523.89453125 442.07421875 521.9296875 436.177734375 521.9296875 428.916015625 c 2
 521.9296875 7.86328125 l 2
EndSplineSet
EndChar

StartChar: ".alt10"
Encoding: 44 -1 43
Width: 103
VWidth: 0
Flags: HW
LayerCount: 2
Fore
SplineSet
59.1181640625 -221.271484375 m 0
 69.3876953125 -231.541992188 86.0634765625 -231.541992188 96.333984375 -221.271484375 c 0
 102.079101562 -215.526367188 104.610351562 -207.776367188 103.927734375 -200.263671875 c 2
 73.005859375 139.87109375 l 1
 81.2138671875 138.384765625 89.994140625 140.810546875 96.333984375 147.150390625 c 0
 103.62109375 154.436523438 105.737304688 164.948242188 102.68359375 174.109375 c 2
 57.5966796875 309.370117188 l 1
 51.2958984375 378.68359375 l 2
 50.7578125 384.599609375 48.2265625 390.3671875 43.7021484375 394.892578125 c 0
 33.431640625 405.162109375 16.755859375 405.162109375 6.4853515625 394.892578125 c 0
 0.740234375 389.146484375 -1.791015625 381.396484375 -1.1083984375 373.884765625 c 2
 2.267578125 336.758789062 l 1
 -0.5068359375 331.9296875 -1.6240234375 326.40625 -1.0849609375 321.017578125 c 2
 51.546875 -205.30078125 l 2
 52.1298828125 -211.1328125 54.6533203125 -216.807617188 59.1181640625 -221.271484375 c 0
EndSplineSet
EndChar

StartChar: glyph44
Encoding: 45 46 44
Width: 582
VWidth: 0
Flags: HW
LayerCount: 2
Fore
SplineSet
319.688476562 275.3828125 m 0
 314.19921875 274.813476562 314.828125 266.059570312 320.603515625 266.658203125 c 0
 473.119140625 282.483398438 572.807617188 160.473632812 572.807617188 36.8251953125 c 0
 572.807617188 -30.58984375 543.1640625 -98.74609375 475.517578125 -146.4453125 c 0
 413.243164062 -190.35546875 352.684570312 -208.87109375 296.990234375 -208.87109375 c 0
 132.91015625 -208.87109375 8.443359375 -47.388671875 8.443359375 109.454101562 c 0
 8.443359375 218.061523438 67.9052734375 324.08203125 216.234375 372.110351562 c 0
 221.3828125 373.77734375 219.15625 382.279296875 213.533203125 380.458007812 c 0
 61.82421875 331.334960938 -0.328125 221.596679688 -0.328125 109.454101562 c 0
 -0.328125 -51.2509765625 126.859375 -217.643554688 296.990234375 -217.643554688 c 0
 354.694335938 -217.643554688 417.038085938 -198.412109375 480.564453125 -153.618164062 c 0
 550.59765625 -104.237304688 581.580078125 -33.2197265625 581.580078125 36.8251953125 c 0
 581.580078125 164.83203125 478.16796875 291.827148438 319.688476562 275.3828125 c 0
474.282226562 113.126953125 m 2
 474.282226562 108.287109375 481.80078125 108.26171875 481.80078125 113.126953125 c 2
 481.80078125 323.654296875 l 2
 481.80078125 328.494140625 474.282226562 328.51953125 474.282226562 323.654296875 c 2
 474.282226562 113.126953125 l 2
EndSplineSet
EndChar

StartChar: -)
Encoding: 46 -1 45
Width: 699
VWidth: 0
Flags: HW
LayerCount: 2
Fore
SplineSet
41.072265625 -32.4169921875 m 0
 31.4208984375 -22.7646484375 15.748046875 -22.7646484375 6.095703125 -32.4169921875 c 0
 0.9072265625 -37.60546875 -1.4921875 -44.5341796875 -1.1025390625 -51.33203125 c 0
 1.22265625 -91.884765625 18.3486328125 -129.821289062 46.83984375 -158.311523438 c 0
 50.1220703125 -161.594726562 53.55078125 -164.74609375 57.1181640625 -167.755859375 c 0
 153.048828125 -248.682617188 240.671875 -291.67578125 319.884765625 -304.110351562 c 0
 419.541015625 -319.754882812 502.989257812 -285.55078125 564.548828125 -223.9921875 c 0
 658.415039062 -130.125976562 703.499023438 24.75390625 699.299804688 171.00390625 c 0
 695.938476562 288.067382812 660.87109375 402.525390625 586.349609375 477.045898438 c 0
 532.110351562 531.286132812 457.262695312 562.540039062 364.431640625 556.220703125 c 0
 290.442382812 551.18359375 205.916992188 522.861328125 109.920898438 466.03515625 c 0
 95.1240234375 457.276367188 94.2373046875 438.04296875 105.025390625 427.254882812 c 0
 113.176757812 419.104492188 125.62109375 417.8359375 135.107421875 423.452148438 c 0
 226.497070312 477.55078125 303.997070312 502.536132812 367.815429688 506.879882812 c 0
 447.2421875 512.287109375 506.810546875 486.631835938 551.373046875 442.069335938 c 0
 613.28515625 380.15625 646.743164062 278.298828125 649.865234375 169.573242188 c 0
 653.76953125 33.587890625 610.018554688 -108.567382812 529.571289062 -189.015625 c 0
 477.510742188 -241.075195312 411.025390625 -268.352539062 327.604492188 -255.256835938 c 0
 260.356445312 -244.700195312 180.307617188 -206.959960938 88.978515625 -129.915039062 c 0
 86.4853515625 -127.811523438 84.0966796875 -125.615234375 81.81640625 -123.334960938 c 0
 61.947265625 -103.465820312 49.892578125 -76.751953125 48.2705078125 -48.4794921875 c 0
 47.935546875 -42.6318359375 45.5361328125 -36.880859375 41.072265625 -32.4169921875 c 0
EndSplineSet
Ligature2: "liga-1" - )
EndChar

StartChar: O.alt1
Encoding: 47 -1 46
Width: 375
VWidth: 0
Flags: HW
LayerCount: 2
Fore
SplineSet
216.458007812 271.020507812 m 0
 216.458007812 278.526367188 214.880859375 284.795898438 212.891601562 284.1328125 c 2
 163.72265625 267.743164062 l 1
 164.220703125 275.501953125 162.959960938 282.163085938 161.334960938 283.787109375 c 2
 3.4404296875 441.682617188 l 2
 0.203125 444.918945312 -1.9873046875 428.826171875 0.3154296875 419.614257812 c 2
 52.9482421875 209.086914062 l 2
 53.5947265625 206.5 54.484375 204.921875 55.5498046875 205.27734375 c 2
 213.444335938 257.909179688 l 2
 215.130859375 258.470703125 216.458007812 264.130859375 216.458007812 271.020507812 c 0
171.463867188 225.27734375 m 0
 164.920898438 225.27734375 155.2734375 226.88671875 155.2734375 218.388671875 c 0
 155.2734375 209.396484375 164.94140625 212.120117188 171.463867188 212.120117188 c 0
 270.760742188 212.120117188 325.516601562 132.73046875 325.516601562 55.3974609375 c 0
 325.516601562 -6.2958984375 290.90234375 -68.787109375 212.009765625 -90.9814453125 c 0
 198.865234375 -94.6787109375 185.995117188 -96.3974609375 173.587890625 -96.3974609375 c 0
 96.986328125 -96.3974609375 38.6357421875 -31.2890625 38.6357421875 38.57421875 c 0
 38.6357421875 61.75390625 44.93359375 85.8681640625 59.4248046875 109.084960938 c 0
 63.630859375 115.823242188 55.271484375 123.817382812 51.1220703125 117.168945312 c 0
 35.3330078125 91.875 28.109375 64.8486328125 28.109375 38.57421875 c 0
 28.109375 -40.7861328125 92.8681640625 -109.555664062 173.587890625 -109.555664062 c 0
 186.788085938 -109.555664062 200.43359375 -107.727539062 214.327148438 -103.818359375 c 0
 296.916992188 -80.5849609375 336.04296875 -13.2099609375 336.04296875 55.3974609375 c 0
 336.04296875 141.024414062 275.458984375 225.27734375 171.463867188 225.27734375 c 0
371.0625 -50.03125 m 2
 375.90234375 -50.03125 375.927734375 -39.5048828125 371.0625 -39.5048828125 c 2
 213.16796875 -39.5048828125 l 2
 212.354492188 -39.5048828125 211.6015625 -39.8671875 210.986328125 -40.482421875 c 2
 105.72265625 -145.74609375 l 2
 101.874023438 -149.594726562 106.056640625 -158.346679688 110.0859375 -154.317382812 c 2
 214.372070312 -50.03125 l 1
 371.0625 -50.03125 l 2
EndSplineSet
EndChar

StartChar: O.alt2
Encoding: 48 -1 47
Width: 475
VWidth: 0
Flags: HW
LayerCount: 2
Fore
SplineSet
298.701171875 272.267578125 m 0
 297.041015625 267.545898438 304.220703125 265.293945312 305.796875 269.774414062 c 0
 309.103515625 279.172851562 310.673828125 288.762695312 310.673828125 298.198242188 c 0
 310.673828125 334.495117188 287.3984375 368.323242188 250.747070312 379.87109375 c 0
 219.032226562 389.86328125 190.48828125 394.4453125 164.966796875 394.4453125 c 0
 50.5693359375 394.4453125 -0.3955078125 302.358398438 -0.3955078125 201.268554688 c 0
 -0.3955078125 73.322265625 80.6923828125 -73.376953125 220.463867188 -73.376953125 c 0
 275.58984375 -73.376953125 339.21875 -50.4248046875 409.827148438 4.90234375 c 0
 497.166015625 73.3388671875 497.166015625 205.545898438 409.827148438 273.981445312 c 0
 405.983398438 276.993164062 401.40234375 271.032226562 405.1953125 268.060546875 c 0
 488.684570312 202.641601562 488.68359375 76.2431640625 405.1953125 10.82421875 c 0
 335.495117188 -43.7919921875 273.430664062 -65.857421875 220.463867188 -65.857421875 c 0
 86.8505859375 -65.857421875 7.123046875 75.3974609375 7.123046875 201.268554688 c 0
 7.123046875 300.1953125 56.0234375 386.926757812 164.966796875 386.926757812 c 0
 189.5703125 386.926757812 217.37109375 382.501953125 248.48828125 372.698242188 c 0
 281.921875 362.163085938 303.155273438 331.313476562 303.155273438 298.198242188 c 0
 303.155273438 289.61328125 301.725585938 280.864257812 298.701171875 272.267578125 c 0
EndSplineSet
EndChar

StartChar: glyph48
Encoding: 49 33 48
Width: 267
VWidth: 0
Flags: HW
LayerCount: 2
Fore
SplineSet
176.594726562 -152.102539062 m 2
 178.518554688 -162.68359375 191.4609375 -159.389648438 189.3828125 -147.9609375 c 2
 84.1201171875 430.987304688 l 2
 82.291015625 441.048828125 69.97265625 438.834960938 71.2177734375 427.622070312 c 2
 123.849609375 -46.0625 l 2
 124.319335938 -50.291015625 127.055664062 -53.5400390625 130.357421875 -53.5400390625 c 0
 134.215820312 -53.5400390625 137.485351562 -49.0595703125 136.865234375 -43.4736328125 c 2
 105.469726562 239.0859375 l 1
 176.594726562 -152.102539062 l 2
130.357421875 433.30078125 m 0
 115.69921875 433.30078125 103.693359375 431.301757812 104.048828125 428.80859375 c 2
 140.173828125 175.932617188 l 1
 51.2783203125 324.092773438 l 2
 49.94921875 326.307617188 38.7255859375 328.038085938 25.09375 328.038085938 c 0
 9.978515625 328.038085938 -2.7060546875 325.903320312 -1.0908203125 323.211914062 c 2
 156.803710938 60.0517578125 l 2
 158.131835938 57.837890625 169.356445312 56.107421875 182.987304688 56.107421875 c 0
 197.645507812 56.107421875 209.65234375 58.1064453125 209.295898438 60.599609375 c 2
 156.665039062 429.021484375 l 2
 156.327148438 431.392578125 144.66796875 433.30078125 130.357421875 433.30078125 c 0
130.356445312 -71.083984375 m 0
 124.318359375 -71.083984375 120.938476562 -87.5263671875 120.938476562 -106.620117188 c 0
 120.938476562 -134.83203125 128.291015625 -151.69921875 134.71875 -161.95703125 c 0
 148.399414062 -183.791015625 170.00390625 -194.565429688 192.421875 -194.565429688 c 0
 208.20703125 -194.565429688 224.391601562 -188.891601562 238.373046875 -175.0234375 c 0
 250.001953125 -163.487304688 258.213867188 -150.946289062 263.35546875 -132.327148438 c 0
 265.96484375 -122.876953125 267.767578125 -110.963867188 267.767578125 -97.873046875 c 0
 267.767578125 -84.5830078125 265.9609375 -73.0927734375 263.614257812 -64.1298828125 c 0
 260.668945312 -52.884765625 256.78125 -44.46484375 252.322265625 -37.103515625 c 0
 236.473632812 -10.9384765625 210.469726562 4.923828125 182.514648438 4.923828125 c 0
 167.004882812 4.923828125 150.891601562 -0.1728515625 135.6875 -12.458984375 c 1
 85.9423828125 385.512695312 l 2
 84.6943359375 395.490234375 81.484375 402.600585938 77.7255859375 402.600585938 c 0
 71.9765625 402.600585938 67.228515625 385.297851562 69.5087890625 367.055664062 c 2
 122.139648438 -53.9970703125 l 2
 123.642578125 -66.0166015625 128.200195312 -74.708984375 133.1484375 -69.720703125 c 0
 148.341796875 -54.404296875 165.755859375 -47.7080078125 182.514648438 -47.7080078125 c 0
 203.861328125 -47.7080078125 224.18359375 -58.7470703125 237.150390625 -73.9541015625 c 0
 242.248046875 -79.9326171875 246.106445312 -86.564453125 248.23828125 -91.9072265625 c 0
 249.376953125 -94.76171875 249.879882812 -96.6982421875 250.096679688 -97.748046875 c 0
 249.762695312 -99.1650390625 248.856445312 -102.2734375 246.951171875 -106.109375 c 0
 244.165039062 -111.719726562 239.494140625 -118.465820312 232.8671875 -125.040039062 c 0
 221.356445312 -136.458007812 206.75 -141.93359375 192.421875 -141.93359375 c 0
 175.44140625 -141.93359375 158.79296875 -134.124023438 148.315429688 -122.536132812 c 0
 144.719726562 -118.560546875 141.928710938 -114.16796875 140.26171875 -110.5078125 c 0
 139.40625 -108.62890625 138.901367188 -107.047851562 138.637695312 -106.091796875 c 0
 140.7578125 -87.9306640625 136.032226562 -71.083984375 130.356445312 -71.083984375 c 0
EndSplineSet
EndChar

StartChar: glyph49
Encoding: 50 112 49
Width: 208
VWidth: 0
Flags: HW
LayerCount: 2
Fore
SplineSet
164.379882812 94.5185546875 m 0
 174.649414062 84.248046875 191.326171875 84.248046875 201.595703125 94.5185546875 c 0
 206.73046875 99.6533203125 209.298828125 106.389648438 209.298828125 113.125976562 c 2
 209.299804688 218.388671875 l 2
 209.299804688 223.9453125 207.552734375 229.501953125 204.059570312 234.159179688 c 2
 46.1650390625 444.686523438 l 2
 36.0419921875 458.182617188 17.37109375 458.41015625 6.4853515625 447.524414062 c 0
 1.3505859375 442.388671875 -1.216796875 435.65234375 -1.216796875 428.916015625 c 2
 -1.2177734375 -44.7685546875 l 2
 -1.2177734375 -51.5048828125 1.349609375 -58.2412109375 6.4853515625 -63.376953125 c 0
 16.7548828125 -73.646484375 33.4306640625 -73.646484375 43.701171875 -63.376953125 c 0
 48.8359375 -58.2412109375 51.4033203125 -51.5048828125 51.4033203125 -44.7685546875 c 2
 51.404296875 349.970703125 l 1
 156.677734375 209.60546875 l 1
 156.676757812 113.126953125 l 2
 156.676757812 106.389648438 159.245117188 99.6533203125 164.379882812 94.5185546875 c 0
77.7255859375 2.599609375 m 0
 82.806640625 2.599609375 87.0908203125 5.2119140625 86.4345703125 8.494140625 c 0
 69.1728515625 94.935546875 69.1728515625 183.94921875 86.4345703125 270.389648438 c 0
 97.2880859375 324.73828125 114.880859375 377.509765625 138.790039062 427.461914062 c 0
 142.009765625 434.189453125 124.990234375 436.774414062 121.924804688 430.369140625 c 0
 80.46875 343.756835938 55.9443359375 247.237304688 55.9443359375 139.442382812 c 0
 55.9443359375 95.1572265625 60.30078125 50.8740234375 69.0166015625 7.2314453125 c 0
 69.537109375 4.6240234375 73.240234375 2.599609375 77.7255859375 2.599609375 c 0
188.013671875 163.794921875 m 2
 190.102539062 172.151367188 179.950195312 175.662109375 177.963867188 167.719726562 c 2
 125.333007812 -42.8056640625 l 2
 124.849609375 -44.740234375 125.141601562 -46.7490234375 125.891601562 -48.248046875 c 2
 178.522460938 -153.51171875 l 2
 182.025390625 -160.517578125 191.1328125 -153.907226562 187.455078125 -146.551757812 c 2
 136.103515625 -43.8466796875 l 1
 188.013671875 163.794921875 l 2
EndSplineSet
EndChar

StartChar: glyph50
Encoding: 51 120 50
Width: 315
VWidth: 0
Flags: HW
LayerCount: 2
Fore
SplineSet
34.0234375 79.103515625 m 0
 22.0888671875 67.1689453125 23.7763671875 45.4951171875 40.85546875 36.9560546875 c 2
 131.583007812 -8.4091796875 l 1
 131.583007812 -44.7685546875 l 2
 131.583007812 -51.5048828125 134.150390625 -58.2412109375 139.286132812 -63.376953125 c 0
 149.555664062 -73.646484375 166.232421875 -73.646484375 176.501953125 -63.376953125 c 0
 181.63671875 -58.2412109375 184.205078125 -51.5048828125 184.205078125 -44.7685546875 c 2
 184.205078125 7.86328125 l 2
 184.205078125 16.912109375 179.451171875 26.51171875 169.670898438 31.40234375 c 2
 64.4091796875 84.0341796875 l 2
 54.5537109375 88.9619140625 42.2392578125 87.318359375 34.0234375 79.103515625 c 0
281.765625 289.62890625 m 0
 270.192382812 301.203125 249.469726562 300.118164062 240.301757812 284.07421875 c 2
 29.7763671875 -84.3466796875 l 2
 24.0341796875 -94.3955078125 25.4501953125 -107.434570312 34.0234375 -116.008789062 c 0
 45.59765625 -127.58203125 66.3203125 -126.498046875 75.48828125 -110.454101562 c 2
 286.013671875 257.967773438 l 2
 291.755859375 268.016601562 290.33984375 281.055664062 281.765625 289.62890625 c 0
EndSplineSet
EndChar

StartChar: glyph51
Encoding: 52 113 51
Width: 329
VWidth: 0
Flags: HW
LayerCount: 2
Fore
SplineSet
327.818359375 427.4375 m 2
 332.390625 432.009765625 316.079101562 434.7890625 311.684570312 430.39453125 c 2
 101.159179688 219.8671875 l 2
 96.5869140625 215.295898438 112.897460938 212.516601562 117.291992188 216.911132812 c 2
 327.818359375 427.4375 l 2
105.71484375 -146.08984375 m 2
 102.293945312 -152.932617188 109.36328125 -160.720703125 112.736328125 -153.973632812 c 2
 165.3671875 -48.7099609375 l 2
 165.779296875 -47.88671875 166.065429688 -46.9140625 166.182617188 -45.8564453125 c 2
 218.814453125 427.828125 l 2
 219.7109375 435.90234375 211.9375 438.248046875 210.326171875 430.995117188 c 2
 105.063476562 -42.6884765625 l 2
 103.217773438 -50.9970703125 111.634765625 -54.736328125 113.387695312 -46.84765625 c 2
 200.969726562 347.275390625 l 1
 157.705078125 -42.107421875 l 1
 105.71484375 -146.08984375 l 2
56.59375 330.232421875 m 0
 50.9521484375 330.232421875 50.9150390625 317.098632812 56.5810546875 317.075195312 c 0
 97.40234375 316.907226562 130.447265625 295.671875 149.216796875 266.288085938 c 1
 1.5341796875 118.604492188 l 2
 -1.36328125 115.708007812 -0.8310546875 108.899414062 2.34765625 107.008789062 c 0
 61.0751953125 72.0751953125 138.317382812 96.0869140625 165.590820312 162.306640625 c 0
 179.489257812 196.052734375 177.375 233.255859375 162.401367188 263.66015625 c 1
 322.180664062 423.438476562 l 2
 326.767578125 428.024414062 322.1328125 439.202148438 317.32421875 434.39453125 c 2
 156.767578125 273.838867188 l 1
 136 307.44921875 99.3330078125 330.056640625 56.59375 330.232421875 c 0
EndSplineSet
EndChar

StartChar: glyph52
Encoding: 53 93 52
Width: 156
VWidth: 0
Flags: HW
LayerCount: 2
Fore
SplineSet
6.4853515625 236.998046875 m 0
 -5.44921875 225.063476562 -3.76171875 203.390625 13.3173828125 194.850585938 c 2
 101.625976562 150.696289062 l 1
 51.681640625 -198.916992188 l 2
 50.5498046875 -206.840820312 53.0283203125 -215.181640625 59.1181640625 -221.271484375 c 0
 69.3876953125 -231.541992188 86.0634765625 -231.541992188 96.333984375 -221.271484375 c 0
 100.514648438 -217.090820312 102.993164062 -211.848632812 103.770507812 -206.409179688 c 2
 156.40234375 162.01171875 l 2
 157.849609375 172.143554688 153.366210938 183.681640625 142.134765625 189.297851562 c 2
 36.8701171875 241.9296875 l 2
 27.0146484375 246.857421875 14.701171875 245.213867188 6.4853515625 236.998046875 c 0
EndSplineSet
EndChar

StartChar: ~~
Encoding: 54 -1 53
Width: 271
VWidth: 0
Flags: HW
LayerCount: 2
Fore
SplineSet
4.4033203125 174.485351562 m 2
 1.7099609375 175.024414062 -0.423828125 170.794921875 -0.423828125 165.7578125 c 0
 -0.423828125 161.213867188 1.3076171875 157.471679688 3.521484375 157.029296875 c 2
 251.599609375 107.415039062 l 1
 159.899414062 15.71484375 l 2
 155.022460938 10.8369140625 158.576171875 -5.224609375 163.813476562 0.0126953125 c 2
 269.077148438 105.276367188 l 2
 272.796875 108.995117188 271.932617188 120.98046875 267.561523438 121.85546875 c 2
 4.4033203125 174.485351562 l 2
EndSplineSet
Ligature2: "liga-1" ~ ~
EndChar

StartChar: ..alt1
Encoding: 55 -1 54
Width: 374
VWidth: 0
Flags: HW
LayerCount: 2
Fore
SplineSet
369.313476562 110.669921875 m 0
 371.840820312 107.856445312 375.358398438 112.748046875 372.811523438 115.583984375 c 0
 328.182617188 165.2734375 271.359375 187.20703125 215.65625 187.20703125 c 0
 106.017578125 187.20703125 -0.7041015625 101.936523438 -0.7041015625 -26.630859375 c 0
 -0.7041015625 -32.6962890625 -0.46484375 -38.8515625 0.0224609375 -45.091796875 c 0
 10.416015625 -178.080078125 148.219726562 -257.526367188 266.666992188 -205.76953125 c 0
 269.728515625 -204.432617188 268.284179688 -198.092773438 264.931640625 -199.557617188 c 0
 240.341796875 -210.301757812 215.063476562 -215.29296875 190.3828125 -215.29296875 c 0
 97.1025390625 -215.29296875 13.056640625 -144.201171875 5.2607421875 -44.4453125 c 0
 4.7890625 -38.4150390625 4.5595703125 -32.4755859375 4.5595703125 -26.630859375 c 0
 4.5595703125 96.7041015625 107.58984375 180.627929688 215.65625 180.627929688 c 0
 270.266601562 180.627929688 325.799804688 159.118164062 369.313476562 110.669921875 c 0
EndSplineSet
EndChar

StartChar: glyph55
Encoding: 56 162 55
Width: 419
VWidth: 0
Flags: HW
LayerCount: 2
Fore
SplineSet
412.123046875 447.5234375 m 0
 401.319335938 458.326171875 382.919921875 458.161132812 372.723632812 445.051757812 c 2
 4.3017578125 -28.6318359375 l 2
 -3.724609375 -38.9521484375 -2.9970703125 -53.89453125 6.4853515625 -63.376953125 c 0
 17.2880859375 -74.1796875 35.6875 -74.0146484375 45.8837890625 -60.9052734375 c 2
 414.305664062 412.778320312 l 2
 422.33203125 423.098632812 421.604492188 438.041015625 412.123046875 447.5234375 c 0
346.145507812 323.654296875 m 0
 346.145507812 339.215820312 343.404296875 352.4375 340.012695312 349.611328125 c 2
 24.2236328125 86.4521484375 l 2
 21.732421875 84.3759765625 19.8310546875 73.537109375 19.8310546875 60.4951171875 c 0
 19.8310546875 44.93359375 22.572265625 31.7109375 25.9638671875 34.5380859375 c 2
 341.752929688 297.697265625 l 2
 344.244140625 299.772460938 346.145507812 310.611328125 346.145507812 323.654296875 c 0
EndSplineSet
EndChar

StartChar: |.alt3
Encoding: 57 -1 56
Width: 114
VWidth: 0
Flags: HW
LayerCount: 2
Fore
SplineSet
-1.2353515625 -44.306640625 m 2
 -1.2353515625 -46.18359375 0.455078125 -47.69140625 3.9619140625 -47.69140625 c 0
 6.5849609375 -47.69140625 8.76171875 -46.6240234375 9.16015625 -45.228515625 c 2
 29.404296875 25.6259765625 l 1
 -1.2509765625 -96.994140625 l 2
 -2.20703125 -100.818359375 8.2548828125 -101.487304688 9.1748046875 -97.8046875 c 2
 114.438476562 323.248046875 l 2
 115.387695312 327.045898438 105.064453125 327.7421875 104.02734375 324.115234375 c 2
 -1.2353515625 -44.306640625 l 2
114.478515625 323.470703125 m 2
 114.478515625 327.3203125 104.384765625 327.541015625 103.97265625 323.8359375 c 2
 57.4892578125 -94.517578125 l 1
 54.0859375 -94.193359375 51.3310546875 -95.6669921875 51.3310546875 -97.3994140625 c 2
 51.3310546875 -150.03125 l 2
 51.3310546875 -153.720703125 61.4443359375 -153.838867188 61.8466796875 -150.213867188 c 2
 114.478515625 323.470703125 l 2
EndSplineSet
EndChar

StartChar: (>
Encoding: 58 -1 57
Width: 661
VWidth: 0
Flags: HW
LayerCount: 2
Fore
SplineSet
412.47265625 262.296875 m 0
 417.4921875 267.31640625 420.001953125 273.901367188 420.001953125 280.486328125 c 2
 420.002929688 331.93359375 l 2
 420.002929688 338.518554688 417.493164062 345.104492188 412.473632812 350.124023438 c 0
 402.43359375 360.163085938 386.1328125 360.163085938 376.09375 350.124023438 c 0
 371.07421875 345.104492188 368.564453125 338.51953125 368.564453125 331.934570312 c 2
 368.563476562 280.487304688 l 2
 368.563476562 273.901367188 371.073242188 267.31640625 376.092773438 262.296875 c 0
 386.131835938 252.2578125 402.43359375 252.2578125 412.47265625 262.296875 c 0
248.8359375 307.794921875 m 0
 267.32421875 314.588867188 270.619140625 337.634765625 258.12890625 350.125 c 0
 250.809570312 357.443359375 240.1640625 359.426757812 231.041015625 356.075195312 c 0
 167.916015625 332.879882812 118.643554688 301.896484375 81.9296875 265.181640625 c 0
 -58.2236328125 125.029296875 -2.673828125 -81.04296875 117.723632812 -201.440429688 c 0
 168.607421875 -252.32421875 232.266601562 -289.98828125 301.73046875 -303.020507812 c 0
 389.131835938 -319.416992188 483.712890625 -295.282226562 565.451171875 -213.544921875 c 0
 584.880859375 -194.115234375 603.545898438 -171.545898438 621.310546875 -145.626953125 c 0
 688.922851562 -46.9736328125 665.073242188 71.2939453125 593.948242188 142.418945312 c 0
 544.16015625 192.20703125 470.369140625 219.771484375 388.991210938 202.762695312 c 0
 368.571289062 198.495117188 362.305664062 173.188476562 376.09375 159.400390625 c 0
 382.465820312 153.028320312 391.361328125 150.701171875 399.576171875 152.41796875 c 0
 463.079101562 165.690429688 518.9609375 144.647460938 557.568359375 106.0390625 c 0
 613.254882812 50.353515625 631.26953125 -40.076171875 578.841796875 -116.572265625 c 0
 562.696289062 -140.129882812 546.014648438 -160.22265625 529.071289062 -177.166015625 c 0
 458.271484375 -247.965820312 382.2578125 -265.78515625 311.274414062 -252.46875 c 0
 254.03125 -241.729492188 198.797851562 -209.755859375 154.102539062 -165.060546875 c 0
 45.26171875 -56.2197265625 5.677734375 116.170898438 118.30859375 228.802734375 c 0
 148.842773438 259.3359375 191.442382812 286.706054688 248.8359375 307.794921875 c 0
EndSplineSet
Ligature2: "liga-1" ( >
EndChar

StartChar: \.alt6
Encoding: 59 -1 58
Width: 212
VWidth: 0
Flags: HW
LayerCount: 2
Fore
SplineSet
151.404296875 -98.1240234375 m 2
 152.65234375 -103.1171875 164.47265625 -102.7734375 164.47265625 -97.3994140625 c 0
 164.47265625 -97.15234375 164.442382812 -96.91015625 164.3828125 -96.673828125 c 2
 111.751953125 113.8515625 l 2
 110.502929688 118.844726562 98.68359375 118.500976562 98.68359375 113.126953125 c 0
 98.68359375 112.879882812 98.7138671875 112.637695312 98.7724609375 112.401367188 c 2
 151.404296875 -98.1240234375 l 2
105.262695312 139.44140625 m 0
 107.337890625 139.44140625 109.022460938 151.233398438 109.022460938 165.7578125 c 0
 109.022460938 174.58984375 108.399414062 182.411132812 107.444335938 187.185546875 c 2
 54.8134765625 450.34375 l 2
 54.1982421875 453.420898438 53.4453125 455.231445312 52.6318359375 455.231445312 c 0
 50.556640625 455.231445312 48.8720703125 443.440429688 48.8720703125 428.916015625 c 2
 48.8720703125 113.126953125 l 2
 48.8720703125 102.275390625 49.8125 92.94921875 51.1533203125 88.9267578125 c 2
 156.416015625 -226.864257812 l 2
 159.02734375 -234.698242188 161.654296875 -220.411132812 161.654296875 -202.663085938 c 0
 161.654296875 -191.8125 160.713867188 -182.485351562 159.373046875 -178.462890625 c 2
 56.3916015625 130.483398438 l 1
 56.3916015625 377.782226562 l 1
 103.081054688 144.329101562 l 2
 103.696289062 141.252929688 104.44921875 139.44140625 105.262695312 139.44140625 c 0
EndSplineSet
EndChar

StartChar: glyph59
Encoding: 60 97 59
Width: 429
VWidth: 0
Flags: HW
LayerCount: 2
Fore
SplineSet
2.1162109375 16.080078125 m 2
 -3.94921875 12.2890625 -0.8486328125 -4.513671875 5.8076171875 -0.353515625 c 2
 426.860351562 262.8046875 l 2
 432.92578125 266.595703125 429.825195312 283.397460938 423.168945312 279.237304688 c 2
 2.1162109375 16.080078125 l 2
EndSplineSet
EndChar

StartChar: glyph60
Encoding: 61 126 60
Width: 156
VWidth: 0
Flags: HW
LayerCount: 2
Fore
SplineSet
6.4853515625 289.629882812 m 0
 -5.44921875 277.6953125 -3.76171875 256.022460938 13.3173828125 247.482421875 c 2
 118.581054688 194.850585938 l 2
 128.436523438 189.922851562 140.750976562 191.56640625 148.965820312 199.782226562 c 0
 160.900390625 211.716796875 159.212890625 233.389648438 142.134765625 241.9296875 c 2
 36.8701171875 294.561523438 l 2
 27.0146484375 299.489257812 14.701171875 297.845703125 6.4853515625 289.629882812 c 0
EndSplineSet
EndChar

StartChar: glyph61
Encoding: 62 118 61
Width: 473
VWidth: 0
Flags: HW
LayerCount: 2
Fore
SplineSet
185.004882812 382.698242188 m 2
 190.102539062 403.08984375 215.401367188 408.625976562 229.134765625 394.892578125 c 0
 235.913085938 388.114257812 238.217773438 378.545898438 236.048828125 369.870117188 c 2
 198.8359375 221.018554688 l 1
 407.51953125 346.229492188 l 2
 417.629882812 352.295898438 430.950195312 350.97265625 439.661132812 342.26171875 c 0
 449.444335938 332.478515625 449.908203125 316.879882812 441.049804688 306.545898438 c 2
 125.260742188 -61.876953125 l 2
 114.932617188 -73.9267578125 97.2412109375 -73.9619140625 86.6552734375 -63.376953125 c 0
 79.8779296875 -56.5986328125 77.5732421875 -47.0302734375 79.7421875 -38.3544921875 c 2
 185.004882812 382.698242188 l 2
295.5234375 217.640625 m 1
 180.780273438 148.793945312 l 1
 157.831054688 56.9990234375 l 1
 295.5234375 217.640625 l 1
49.4736328125 -203.400390625 m 0
 50.611328125 -206.5234375 57.0283203125 -205.325195312 55.7900390625 -201.926757812 c 0
 25.0009765625 -117.42578125 25.0009765625 -24.7421875 55.7900390625 59.7587890625 c 0
 112.12890625 214.383789062 257.533203125 317.895507812 421.1328125 321.022460938 c 0
 425.29296875 321.102539062 425.333007812 326.286132812 420.97265625 326.284179688 c 0
 253.796875 323.088867188 106.392578125 217.451171875 49.4736328125 61.232421875 c 0
 18.330078125 -24.240234375 18.330078125 -117.927734375 49.4736328125 -203.400390625 c 0
371.709960938 323.653320312 m 2
 371.709960938 327.041992188 365.131835938 327.059570312 365.131835938 323.653320312 c 2
 365.131835938 -86.873046875 l 1
 55.5361328125 377.520507812 l 2
 53.611328125 380.407226562 47.66015625 378.1484375 49.7275390625 375.048828125 c 2
 365.516601562 -98.634765625 l 2
 367.01953125 -100.889648438 371.709960938 -100.1796875 371.709960938 -97.3994140625 c 2
 371.709960938 323.653320312 l 2
EndSplineSet
EndChar

StartChar: C|
Encoding: 63 -1 62
Width: 461
VWidth: 0
Flags: HW
LayerCount: 2
Fore
SplineSet
404.951171875 -168.639648438 m 0
 415.220703125 -178.91015625 431.896484375 -178.91015625 442.166992188 -168.639648438 c 0
 447.301757812 -163.504882812 449.868164062 -156.767578125 449.868164062 -150.03125 c 2
 449.870117188 376.284179688 l 2
 449.870117188 383.020507812 447.301757812 389.756835938 442.166992188 394.892578125 c 0
 431.896484375 405.162109375 415.220703125 405.162109375 404.951171875 394.892578125 c 0
 399.815429688 389.756835938 397.248046875 383.020507812 397.248046875 376.284179688 c 2
 397.247070312 -150.032226562 l 2
 397.247070312 -156.768554688 399.815429688 -163.504882812 404.951171875 -168.639648438 c 0
363.921875 269.26171875 m 0
 368.745117188 267.1328125 379.69921875 268.209960938 379.69921875 271.021484375 c 0
 379.69921875 271.681640625 379.041015625 272.291015625 377.931640625 272.78125 c 0
 325.354492188 295.9921875 276.922851562 307.040039062 231.514648438 307.040039062 c 0
 157.424804688 307.040039062 104.939453125 278.118164062 68.208984375 236.814453125 c 0
 -24.6767578125 132.362304688 -24.6767578125 -64.00390625 68.208984375 -168.456054688 c 0
 104.939453125 -209.759765625 157.42578125 -238.681640625 231.514648438 -238.681640625 c 0
 276.922851562 -238.681640625 325.354492188 -227.633789062 377.931640625 -204.422851562 c 0
 432.678710938 -180.252929688 461.662109375 -129.028320312 461.662109375 -76.6728515625 c 0
 461.662109375 -47.1123046875 452.241210938 -17.1455078125 432.045898438 8.603515625 c 0
 429.296875 12.109375 412.092773438 10.919921875 415.071289062 7.123046875 c 0
 434.771484375 -17.9951171875 444.118164062 -47.53515625 444.118164062 -76.6728515625 c 0
 444.118164062 -128.426757812 414.065429688 -178.766601562 363.921875 -200.903320312 c 0
 312.37109375 -223.662109375 267.860351562 -232.833007812 231.514648438 -232.833007812 c 0
 172.837890625 -232.833007812 122.061523438 -208.43359375 85.033203125 -166.793945312 c 0
 -6.4775390625 -63.8876953125 -6.478515625 132.24609375 85.033203125 235.15234375 c 0
 122.061523438 276.791992188 172.837890625 301.19140625 231.514648438 301.19140625 c 0
 267.860351562 301.19140625 312.370117188 292.020507812 363.921875 269.26171875 c 0
EndSplineSet
Ligature2: "liga-1" C |
EndChar

StartChar: |.alt4
Encoding: 64 -1 63
Width: 261
VWidth: 0
Flags: HW
LayerCount: 2
Fore
SplineSet
217.01171875 -221.271484375 m 0
 227.282226562 -231.541992188 243.958007812 -231.541992188 254.227539062 -221.271484375 c 0
 259.922851562 -215.577148438 262.459960938 -207.912109375 261.838867188 -200.461914062 c 2
 209.20703125 431.1171875 l 2
 208.708007812 437.102539062 206.170898438 442.94921875 201.595703125 447.524414062 c 0
 191.326171875 457.793945312 174.649414062 457.793945312 164.379882812 447.524414062 c 0
 159.85546875 442.999023438 157.32421875 437.231445312 156.786132812 431.315429688 c 2
 110.904296875 -73.40234375 l 1
 47.00390625 22.4462890625 l 2
 37.2236328125 37.1162109375 17.65625 37.6435546875 6.4853515625 26.4716796875 c 0
 -2.53125 17.455078125 -3.6318359375 3.501953125 3.1826171875 -6.7197265625 c 2
 108.447265625 -164.615234375 l 2
 122.087890625 -185.075195312 154.32421875 -177.024414062 156.559570312 -152.430664062 c 2
 181.848632812 125.756835938 l 1
 209.400390625 -204.864257812 l 2
 209.899414062 -210.849609375 212.436523438 -216.696289062 217.01171875 -221.271484375 c 0
235.619140625 -153.3203125 m 0
 243.125 -153.3203125 249.39453125 -151.744140625 248.731445312 -149.754882812 c 2
 143.469726562 166.034179688 l 2
 142.907226562 167.720703125 137.247070312 169.046875 130.357421875 169.046875 c 0
 123.254882812 169.046875 117.458984375 167.637695312 117.208007812 165.876953125 c 2
 90.8837890625 -18.3935546875 l 1
 90.8837890625 60.4951171875 l 2
 90.8837890625 62.310546875 84.9873046875 63.78515625 77.7255859375 63.78515625 c 0
 70.4638671875 63.78515625 64.5673828125 62.310546875 64.5673828125 60.4951171875 c 2
 64.5673828125 -202.663085938 l 2
 64.5673828125 -204.478515625 70.4638671875 -205.953125 77.7255859375 -205.953125 c 0
 84.828125 -205.953125 90.623046875 -204.54296875 90.875 -202.782226562 c 2
 135.612304688 110.37890625 l 1
 222.5078125 -150.307617188 l 2
 223.069335938 -151.994140625 228.729492188 -153.3203125 235.619140625 -153.3203125 c 0
EndSplineSet
EndChar

StartChar: \.alt7
Encoding: 65 -1 64
Width: 64
VWidth: 0
Flags: HW
LayerCount: 2
Fore
SplineSet
51.40234375 -45.3046875 m 2
 52.5654296875 -49.95703125 65.6669921875 -49.1904296875 64.4267578125 -44.2333984375 c 2
 11.7958984375 166.29296875 l 2
 10.6318359375 170.946289062 -2.46875 170.1796875 -1.2294921875 165.22265625 c 2
 51.40234375 -45.3046875 l 2
EndSplineSet
EndChar

StartChar: glyph65
Encoding: 66 40 65
Width: 156
VWidth: 0
Flags: HW
LayerCount: 2
Fore
SplineSet
6.4853515625 -116.008789062 m 0
 16.7548828125 -126.278320312 33.4306640625 -126.278320312 43.701171875 -116.008789062 c 0
 48.8359375 -110.873046875 51.4033203125 -104.13671875 51.4033203125 -97.400390625 c 2
 51.4033203125 -0.1201171875 l 1
 152.268554688 151.174804688 l 2
 159.083007812 161.396484375 157.982421875 175.350585938 148.965820312 184.366210938 c 0
 137.791992188 195.540039062 118.225585938 195.0078125 108.447265625 180.341796875 c 2
 3.1826171875 22.4462890625 l 2
 0.2490234375 18.046875 -1.2177734375 12.955078125 -1.2177734375 7.86328125 c 2
 -1.2177734375 -97.400390625 l 2
 -1.2177734375 -104.13671875 1.349609375 -110.873046875 6.4853515625 -116.008789062 c 0
EndSplineSet
EndChar

StartChar: glyph66
Encoding: 67 67 66
Width: 279
VWidth: 0
Flags: HW
LayerCount: 2
Fore
SplineSet
196.75390625 -90.9990234375 m 0
 192.780273438 -92.888671875 193.990234375 -105.840820312 198.279296875 -103.80078125 c 0
 252.891601562 -77.826171875 279.890625 -27.6533203125 279.890625 26.1630859375 c 0
 279.890625 100.66015625 228.732421875 168.213867188 144.966796875 172.333984375 c 0
 102.438476562 174.426757812 64.14453125 152.391601562 37.849609375 118.668945312 c 0
 11.9267578125 85.421875 -1.1357421875 45.3330078125 -1.1357421875 4.4677734375 c 0
 -1.1357421875 -61.8076171875 32.6767578125 -123.25 91.359375 -156.364257812 c 0
 95.568359375 -158.740234375 97.15625 -145.9609375 93.146484375 -143.69921875 c 0
 35.1865234375 -110.9921875 5.4423828125 -51.982421875 5.4423828125 4.4677734375 c 0
 5.4423828125 39.26953125 16.541015625 75.7099609375 41.39453125 107.584960938 c 0
 66.353515625 139.59375 103.5859375 161.208984375 144.802734375 159.180664062 c 0
 228.25 155.076171875 273.311523438 87.5234375 273.311523438 26.1630859375 c 0
 273.311523438 -17.57421875 250.700195312 -65.3408203125 196.75390625 -90.9990234375 c 0
38.4375 224.404296875 m 2
 35.126953125 221.094726562 37.2294921875 208.795898438 40.8076171875 212.374023438 c 2
 92.8740234375 264.442382812 l 1
 144.884765625 264.442382812 l 2
 148.649414062 264.442382812 148.668945312 277.599609375 144.884765625 277.599609375 c 2
 92.2529296875 277.599609375 l 2
 91.8310546875 277.599609375 91.4296875 277.3984375 91.0673828125 277.036132812 c 2
 38.4375 224.404296875 l 2
250.680664062 -51.23828125 m 0
 253.983398438 -49.8701171875 253.689453125 -38.189453125 250.1484375 -38.189453125 c 0
 249.966796875 -38.189453125 249.7890625 -38.2265625 249.616210938 -38.2978515625 c 0
 216.291015625 -52.1005859375 178.7421875 -52.1015625 145.416992188 -38.2978515625 c 0
 75.1630859375 -9.1982421875 42.306640625 54.5712890625 42.306640625 113.125976562 c 0
 42.306640625 171.681640625 75.1630859375 235.451171875 145.416992188 264.55078125 c 0
 148.719726562 265.918945312 148.42578125 277.599609375 144.884765625 277.599609375 c 0
 144.703125 277.599609375 144.525390625 277.5625 144.352539062 277.491210938 c 0
 73.9375 248.32421875 36.458984375 183.333007812 36.458984375 113.125976562 c 0
 36.458984375 42.919921875 73.9375 -22.0712890625 144.352539062 -51.23828125 c 0
 178.426757812 -65.3515625 216.606445312 -65.3515625 250.680664062 -51.23828125 c 0
EndSplineSet
EndChar

StartChar: ".alt11"
Encoding: 68 -1 67
Width: 427
VWidth: 0
Flags: HW
LayerCount: 2
Fore
SplineSet
266.883789062 372.209960938 m 2
 270.22265625 374.213867188 268.385742188 382.560546875 264.715820312 380.358398438 c 2
 1.5576171875 222.462890625 l 2
 -1.6640625 220.530273438 -0.1083984375 212.390625 3.5654296875 214.227539062 c 2
 424.619140625 424.75390625 l 2
 428.040039062 426.46484375 426.510742188 434.948242188 422.770507812 433.078125 c 2
 96.12890625 269.756835938 l 1
 266.883789062 372.209960938 l 2
268.30859375 374.032226562 m 2
 270.2890625 378.983398438 265.201171875 383.311523438 263.291015625 378.536132812 c 2
 91.9384765625 -49.845703125 l 1
 215.784179688 321.696289062 l 2
 217.512695312 326.880859375 212.211914062 330.594726562 210.55078125 325.611328125 c 2
 52.65625 -148.07421875 l 2
 50.98828125 -153.081054688 55.9443359375 -156.880859375 57.783203125 -152.283203125 c 2
 268.30859375 374.032226562 l 2
EndSplineSet
EndChar

StartChar: ".alt12"
Encoding: 69 -1 68
Width: 134
VWidth: 0
Flags: HW
LayerCount: 2
Fore
SplineSet
126.512695312 394.892578125 m 0
 116.2421875 405.162109375 99.56640625 405.162109375 89.2958984375 394.892578125 c 0
 85.271484375 390.8671875 82.82421875 385.858398438 81.953125 380.637695312 c 2
 29.322265625 64.8486328125 l 2
 27.97265625 56.7470703125 30.419921875 48.1328125 36.6650390625 41.8876953125 c 0
 46.935546875 31.6171875 63.611328125 31.6171875 73.880859375 41.8876953125 c 0
 77.90625 45.912109375 80.353515625 50.9208984375 81.2236328125 56.1416015625 c 2
 133.854492188 371.930664062 l 2
 135.205078125 380.033203125 132.7578125 388.646484375 126.512695312 394.892578125 c 0
5.90234375 324.00390625 m 2
 5.357421875 327.26953125 -1.197265625 326.772460938 -0.619140625 323.302734375 c 2
 52.0126953125 7.5126953125 l 2
 52.556640625 4.2470703125 59.1123046875 4.744140625 58.533203125 8.2138671875 c 2
 5.90234375 324.00390625 l 2
104.243164062 6.6650390625 m 2
 105.303710938 0.2978515625 112.709960938 2.1962890625 111.565429688 9.0625 c 2
 60.01171875 318.390625 l 1
 107.904296875 318.390625 l 2
 112.744140625 318.390625 112.76953125 328.916992188 107.904296875 328.916992188 c 2
 55.2734375 328.916992188 l 2
 52.9794921875 328.916992188 51.0263671875 325.966796875 51.6123046875 322.455078125 c 2
 104.243164062 6.6650390625 l 2
EndSplineSet
EndChar

StartChar: |.alt5
Encoding: 70 -1 69
Width: 156
VWidth: 0
Flags: HW
LayerCount: 2
Fore
SplineSet
148.96484375 289.62890625 m 0
 135.239257812 303.35546875 109.938476562 297.8515625 104.834960938 277.435546875 c 2
 -0.427734375 -143.6171875 l 2
 -2.5966796875 -152.29296875 -0.2919921875 -161.861328125 6.4853515625 -168.639648438 c 0
 16.755859375 -178.91015625 33.431640625 -178.91015625 43.7021484375 -168.639648438 c 0
 47.9697265625 -164.372070312 54.845703125 -164.368164062 59.1162109375 -168.638671875 c 0
 63.3857421875 -172.908203125 63.3857421875 -179.787109375 59.1162109375 -184.056640625 c 0
 48.84765625 -194.327148438 48.84765625 -211.001953125 59.1181640625 -221.271484375 c 0
 69.3876953125 -231.541992188 86.0654296875 -231.540039062 96.3349609375 -221.270507812 c 0
 121.131835938 -196.470703125 121.131835938 -156.223632812 96.3349609375 -131.424804688 c 0
 86.46484375 -121.5546875 74.1455078125 -115.61328125 61.3271484375 -113.599609375 c 1
 155.87890625 264.606445312 l 2
 158.047851562 273.282226562 155.743164062 282.8515625 148.96484375 289.62890625 c 0
129.182617188 55.7841796875 m 2
 132.29296875 52.673828125 134.521484375 62.2158203125 131.53125 65.2060546875 c 2
 28.625 168.111328125 l 1
 80.0810546875 373.935546875 l 2
 81.6357421875 380.15625 76.865234375 384.61328125 75.3701171875 378.6328125 c 2
 22.73828125 168.106445312 l 2
 22.0361328125 165.294921875 22.7451171875 162.220703125 23.919921875 161.046875 c 2
 129.182617188 55.7841796875 l 2
EndSplineSet
EndChar

StartChar: \.alt8
Encoding: 71 -1 70
Width: 263
VWidth: 0
Flags: HW
LayerCount: 2
Fore
SplineSet
54.0185546875 138.098632812 m 2
 51.0009765625 144.133789062 48.24609375 130.004882812 48.24609375 113.126953125 c 0
 48.24609375 101.508789062 49.5029296875 91.6396484375 51.24609375 88.1552734375 c 2
 209.141601562 -227.635742188 l 2
 212.158203125 -233.670898438 214.913085938 -219.541015625 214.913085938 -202.663085938 c 2
 214.913085938 -44.7685546875 l 2
 214.913085938 -30.244140625 212.948242188 -18.4521484375 210.52734375 -18.4521484375 c 0
 208.106445312 -18.4521484375 206.141601562 -30.244140625 206.141601562 -44.7685546875 c 2
 206.141601562 -166.146484375 l 1
 54.0185546875 138.098632812 l 2
105.262695312 336.811523438 m 2
 102.841796875 336.811523438 100.876953125 330.916015625 100.876953125 323.654296875 c 0
 100.876953125 316.391601562 102.841796875 310.49609375 105.262695312 310.49609375 c 2
 206.140625 310.49609375 l 1
 206.140625 -44.7685546875 l 2
 206.140625 -52.0302734375 208.10546875 -57.92578125 210.526367188 -57.92578125 c 0
 212.947265625 -57.92578125 214.912109375 -52.0302734375 214.912109375 -44.7685546875 c 2
 214.912109375 323.654296875 l 2
 214.912109375 330.916015625 212.947265625 336.811523438 210.526367188 336.811523438 c 2
 105.262695312 336.811523438 l 2
214.912109375 218.388671875 m 2
 214.912109375 225.651367188 212.947265625 231.546875 210.526367188 231.546875 c 0
 208.10546875 231.546875 206.140625 225.651367188 206.140625 218.388671875 c 2
 206.140625 -97.400390625 l 2
 206.140625 -104.662109375 208.10546875 -110.557617188 210.526367188 -110.557617188 c 0
 212.947265625 -110.557617188 214.912109375 -104.662109375 214.912109375 -97.400390625 c 2
 214.912109375 218.388671875 l 2
EndSplineSet
EndChar

StartChar: A.alt1
Encoding: 72 -1 71
Width: 473
VWidth: 0
Flags: HW
LayerCount: 2
Fore
SplineSet
310.614257812 -95.794921875 m 2
 309.341796875 -107.24609375 319.751953125 -109.921875 320.96484375 -99.0048828125 c 2
 373.595703125 374.6796875 l 2
 374.868164062 386.130859375 364.458984375 388.805664062 363.24609375 377.888671875 c 2
 310.614257812 -95.794921875 l 2
423.754882812 263.493164062 m 2
 429.369140625 269.108398438 424.375976562 284.573242188 418.350585938 278.547851562 c 2
 49.9296875 -89.8720703125 l 2
 44.3154296875 -95.4873046875 49.3095703125 -110.952148438 55.333984375 -104.927734375 c 2
 423.754882812 263.493164062 l 2
423.754882812 210.861328125 m 2
 429.369140625 216.4765625 424.375976562 231.94140625 418.350585938 225.916992188 c 2
 365.71875 173.28515625 l 2
 365.426757812 172.993164062 365.153320312 172.65625 364.90234375 172.278320312 c 2
 154.375976562 -143.510742188 l 2
 150.923828125 -148.689453125 153.104492188 -158.803710938 157.89453125 -158.803710938 c 0
 159.247070312 -158.803710938 160.48046875 -157.952148438 161.413085938 -156.552734375 c 2
 371.559570312 158.666992188 l 1
 423.754882812 210.861328125 l 2
EndSplineSet
EndChar

StartChar: ".alt13"
Encoding: 73 -1 72
Width: 240
VWidth: 0
Flags: HW
LayerCount: 2
Fore
SplineSet
149.65625 193.138671875 m 1
 165.033203125 197.6328125 171.475585938 213.916992188 167.201171875 226.741210938 c 2
 114.571289062 384.634765625 l 2
 108.112304688 404.010742188 84.0361328125 407.923828125 71.0048828125 394.892578125 c 0
 64.6611328125 388.548828125 62.2353515625 379.760742188 63.728515625 371.547851562 c 2
 86.8193359375 244.552734375 l 1
 81.041015625 243.940429688 75.427734375 241.421875 71.00390625 236.997070312 c 0
 60.7333984375 226.727539062 60.7333984375 210.05078125 71.00390625 199.78125 c 0
 76.138671875 194.646484375 82.8759765625 192.078125 89.6123046875 192.078125 c 2
 96.359375 192.079101562 l 1
 168.991210938 -207.399414062 l 2
 172.846679688 -228.607421875 199.120117188 -235.633789062 213.483398438 -221.271484375 c 0
 219.827148438 -214.927734375 222.251953125 -206.139648438 220.758789062 -197.927734375 c 2
 149.65625 193.138671875 l 1
78.8173828125 137.130859375 m 1
 63.845703125 130.408203125 60.0166015625 113.4609375 66.072265625 101.348632812 c 2
 171.3359375 -109.176757812 l 2
 179.870117188 -126.24609375 201.548828125 -127.942382812 213.483398438 -116.0078125 c 0
 221.013671875 -108.477539062 223.022460938 -97.501953125 219.509765625 -88.134765625 c 2
 61.6142578125 332.91796875 l 2
 54.560546875 351.728515625 31.095703125 354.984375 18.3720703125 342.260742188 c 0
 10.841796875 334.73046875 8.8330078125 323.755859375 12.345703125 314.387695312 c 2
 78.8173828125 137.130859375 l 1
55.587890625 79.103515625 m 0
 44.28125 90.41015625 24.318359375 89.7099609375 14.7294921875 74.5556640625 c 0
 -23.248046875 14.5341796875 15.75390625 -65.2890625 87.5107421875 -70.99609375 c 0
 137.296875 -74.955078125 177.041992188 -61.1943359375 203.497070312 -34.7392578125 c 0
 229.6796875 -8.556640625 240.466796875 26.8525390625 240.498046875 61.33203125 c 0
 240.5625 134.602539062 190.955078125 215.23046875 108.291015625 215.564453125 c 0
 80.92578125 215.67578125 51.9970703125 206.618164062 22.8056640625 187.934570312 c 0
 7.7548828125 178.301757812 7.0966796875 158.424804688 18.3720703125 147.149414062 c 0
 27.2685546875 138.252929688 40.9716796875 137.0625 51.154296875 143.580078125 c 0
 73.76171875 158.048828125 92.7138671875 163.005859375 108.076171875 162.943359375 c 0
 127.08984375 162.8671875 143.083007812 155.220703125 156.400390625 141.903320312 c 0
 175.63671875 122.666992188 187.90234375 91.1572265625 187.875976562 61.37890625 c 0
 187.85546875 37.60546875 180.3203125 16.5166015625 166.28125 2.4775390625 c 0
 152.428710938 -11.375 129.874023438 -21.576171875 91.712890625 -18.541015625 c 0
 59.3984375 -15.970703125 42.3076171875 19.689453125 59.23046875 46.435546875 c 0
 65.666015625 56.60546875 64.451171875 70.240234375 55.587890625 79.103515625 c 0
EndSplineSet
EndChar

StartChar: ".alt14"
Encoding: 74 -1 73
Width: 315
VWidth: 0
Flags: HW
LayerCount: 2
Fore
SplineSet
106.567382812 331.504882812 m 2
 103.111328125 336.688476562 100.634765625 320.787109375 103.958007812 315.802734375 c 2
 209.221679688 157.90625 l 2
 212.677734375 152.72265625 215.153320312 168.624023438 211.831054688 173.608398438 c 2
 106.567382812 331.504882812 l 2
108.186523438 271.020507812 m 2
 108.186523438 275.862304688 106.875976562 279.79296875 105.262695312 279.79296875 c 0
 103.6484375 279.79296875 102.338867188 275.862304688 102.338867188 271.020507812 c 2
 102.338867188 -202.663085938 l 2
 102.338867188 -209.34765625 104.899414062 -213.932617188 106.881835938 -209.967773438 c 2
 212.145507812 0.5595703125 l 2
 214.405273438 5.0791015625 213.452148438 16.6357421875 210.526367188 16.6357421875 c 0
 209.927734375 16.6357421875 209.37109375 16.0947265625 208.907226562 15.1669921875 c 2
 108.186523438 -186.2734375 l 1
 108.186523438 271.020507812 l 2
EndSplineSet
EndChar

StartChar: ".alt15"
Encoding: 75 -1 74
Width: 476
VWidth: 0
Flags: HW
LayerCount: 2
Fore
SplineSet
471.396484375 416.142578125 m 0
 473.163085938 413.956054688 474.662109375 420.833984375 474.662109375 428.916015625 c 0
 474.662109375 435.0859375 473.810546875 440.26953125 472.6640625 441.689453125 c 0
 404.170898438 526.48046875 332.760742188 560.336914062 266.845703125 560.336914062 c 0
 185.745117188 560.336914062 112.990234375 509.15234375 64.1240234375 437.877929688 c 0
 42.3974609375 406.1875 25.375 370.641601562 14.2919921875 332.845703125 c 0
 5.5380859375 302.994140625 -0.044921875 270.19140625 -0.044921875 233.720703125 c 0
 -0.044921875 212.346679688 1.974609375 192.209960938 5.611328125 174.249023438 c 0
 12.849609375 138.5 26.7197265625 108.002929688 48.357421875 81.64453125 c 0
 88.97265625 32.1708984375 157.461914062 -1.55078125 261.484375 -5.2939453125 c 0
 302.53125 -6.771484375 342.954101562 12.9140625 367.137695312 47.3369140625 c 1
 472.030273438 47.3369140625 l 2
 473.482421875 47.3369140625 474.662109375 53.2333984375 474.662109375 60.4951171875 c 0
 474.662109375 67.7568359375 473.482421875 73.6533203125 472.030273438 73.6533203125 c 2
 366.766601562 73.6533203125 l 2
 366.513671875 73.6533203125 366.26953125 73.474609375 366.0390625 73.142578125 c 0
 342.758789062 39.65625 302.346679688 19.5517578125 261.5234375 21.021484375 c 0
 157.728515625 24.755859375 89.4833984375 58.638671875 49.6064453125 107.21484375 c 0
 31.88671875 128.798828125 19.8173828125 153.413085938 12.8603515625 178.233398438 c 0
 7.26171875 198.205078125 5.2177734375 216.951171875 5.2177734375 233.720703125 c 0
 5.2177734375 255.625976562 8.8974609375 282.59765625 17.251953125 311.08984375 c 0
 27.5556640625 346.224609375 44.1806640625 381.37109375 65.5986328125 412.610351562 c 0
 113.806640625 482.92578125 186.203125 534.021484375 266.845703125 534.021484375 c 0
 332.39453125 534.021484375 403.41015625 500.307617188 471.396484375 416.142578125 c 0
264.135742188 376.284179688 m 2
 264.135742188 383.546875 262.956054688 389.442382812 261.50390625 389.442382812 c 0
 260.051757812 389.442382812 258.872070312 383.546875 258.872070312 376.284179688 c 2
 258.872070312 165.7578125 l 2
 258.872070312 162.911132812 259.053710938 160.275390625 259.361328125 158.122070312 c 2
 270.94921875 77.00390625 l 1
 263.526367188 121.541992188 l 2
 262.017578125 130.592773438 258.872070312 125.40234375 258.872070312 113.126953125 c 0
 258.872070312 109.927734375 259.1015625 106.993164062 259.481445312 104.711914062 c 2
 312.11328125 -211.079101562 l 2
 313.622070312 -220.129882812 316.767578125 -214.939453125 316.767578125 -202.663085938 c 0
 316.767578125 -199.817382812 316.5859375 -197.181640625 316.278320312 -195.02734375 c 2
 264.135742188 169.971679688 l 1
 264.135742188 376.284179688 l 2
311.053710938 269.514648438 m 2
 313.764648438 266.802734375 320.057617188 269.6875 317.217773438 272.52734375 c 2
 264.5859375 325.16015625 l 2
 262.583007812 327.162109375 257.573242188 326.234375 257.748046875 323.532226562 c 0
 268.930664062 151.377929688 351.3828125 1.9052734375 469.1171875 -99.0634765625 c 0
 472.123046875 -101.640625 478.068359375 -98.41796875 474.944335938 -95.73828125 c 0
 359.970703125 2.8623046875 279.31640625 147.624023438 265.921875 314.646484375 c 1
 311.053710938 269.514648438 l 2
EndSplineSet
EndChar

StartChar: r.alt1
Encoding: 76 -1 75
Width: 315
VWidth: 0
Flags: HW
LayerCount: 2
Fore
SplineSet
52.6318359375 402.600585938 m 2
 38.107421875 402.600585938 26.31640625 390.80859375 26.31640625 376.284179688 c 0
 26.31640625 361.760742188 38.107421875 349.96875 52.6318359375 349.96875 c 2
 263.159179688 349.96875 l 2
 277.682617188 349.96875 289.474609375 361.760742188 289.474609375 376.284179688 c 0
 289.474609375 390.80859375 277.682617188 402.600585938 263.159179688 402.600585938 c 2
 52.6318359375 402.600585938 l 2
105.26171875 455.231445312 m 0
 89.984375 455.231445312 77.0908203125 442.10546875 79.150390625 425.625 c 2
 95.4248046875 295.43359375 l 1
 84.6357421875 291.077148438 76.7080078125 279.583984375 79.45703125 265.83984375 c 2
 132.088867188 2.6826171875 l 2
 134.498046875 -9.3642578125 145.143554688 -18.4521484375 157.893554688 -18.4521484375 c 0
 173.171875 -18.4521484375 186.065429688 -5.3251953125 184.005859375 11.1552734375 c 2
 131.374023438 432.20703125 l 2
 129.751953125 445.180664062 118.671875 455.231445312 105.26171875 455.231445312 c 0
EndSplineSet
EndChar

StartChar: glyph76
Encoding: 77 41 76
Width: 192
VWidth: 0
Flags: HW
LayerCount: 2
Fore
SplineSet
41.947265625 -221.270507812 m 0
 53.12109375 -232.444335938 72.6884765625 -231.912109375 82.4658203125 -217.24609375 c 2
 187.729492188 -59.3515625 l 2
 191.295898438 -54.0029296875 192.694335938 -47.6328125 191.92578125 -41.482421875 c 2
 139.293945312 379.5703125 l 2
 138.59375 385.173828125 136.094726562 390.59375 131.795898438 394.892578125 c 0
 121.526367188 405.162109375 104.850585938 405.162109375 94.580078125 394.892578125 c 0
 89.4453125 389.756835938 86.8779296875 383.020507812 86.8779296875 376.284179688 c 2
 86.876953125 -97.400390625 l 2
 86.876953125 -101.931640625 88.0380859375 -106.461914062 90.361328125 -110.505859375 c 1
 38.64453125 -188.079101562 l 2
 31.830078125 -198.30078125 32.9306640625 -212.254882812 41.947265625 -221.270507812 c 0
121.959960938 218.388671875 m 0
 121.959960938 228.415039062 114.278320312 235.29296875 108.331054688 229.344726562 c 2
 3.068359375 124.083007812 l 2
 0.708984375 121.723632812 -0.8466796875 117.6953125 -0.8466796875 113.126953125 c 2
 -0.8466796875 7.86328125 l 2
 -0.8466796875 0.6015625 3.083984375 -5.2939453125 7.9248046875 -5.2939453125 c 0
 12.7666015625 -5.2939453125 16.697265625 0.6015625 16.697265625 7.86328125 c 2
 16.697265625 106.0859375 l 1
 118.044921875 207.43359375 l 2
 120.404296875 209.79296875 121.959960938 213.8203125 121.959960938 218.388671875 c 0
EndSplineSet
EndChar

StartChar: glyph77
Encoding: 78 83 77
Width: 588
VWidth: 0
Flags: HW
LayerCount: 2
Fore
SplineSet
326.745117188 -48.4111328125 m 2
 332.68359375 -43.95703125 325.823242188 -38.189453125 315.7890625 -38.189453125 c 0
 311.220703125 -38.189453125 307.192382812 -39.3564453125 304.833007812 -41.1259765625 c 2
 94.306640625 -199.020507812 l 2
 87.9560546875 -203.783203125 96.408203125 -210.552734375 108.458984375 -209.045898438 c 2
 529.51171875 -156.4140625 l 2
 536.288085938 -155.567382812 541.454101562 -151.931640625 538.80078125 -147.952148438 c 2
 223.012695312 325.732421875 l 2
 221.270507812 328.345703125 216.3359375 330.232421875 210.52734375 330.232421875 c 0
 202.087890625 330.232421875 195.021484375 326.102539062 198.041015625 321.57421875 c 2
 509.3359375 -145.37109375 l 1
 135.08984375 -192.151367188 l 1
 326.745117188 -48.4111328125 l 2
375.8046875 268.9921875 m 2
 379.639648438 271.548828125 375.033203125 274.78125 368.420898438 274.78125 c 0
 365.322265625 274.78125 362.59765625 274.090820312 361.037109375 273.05078125 c 2
 203.142578125 167.787109375 l 2
 201.984375 167.014648438 201.416992188 166.033203125 201.94921875 164.967773438 c 2
 307.211914062 -45.55859375 l 2
 309.499023438 -50.134765625 326.82421875 -48.8935546875 324.366210938 -43.978515625 c 2
 219.86328125 165.030273438 l 1
 375.8046875 268.9921875 l 2
259.609375 -200.926757812 m 2
 257.956054688 -207.540039062 265.138671875 -210.676757812 266.708007812 -204.400390625 c 2
 319.338867188 6.1259765625 l 2
 320.060546875 9.013671875 318.908203125 11.71875 317.267578125 12.703125 c 2
 54.1103515625 170.59765625 l 2
 49.5380859375 173.340820312 46.7587890625 163.553710938 51.1533203125 160.916992188 c 2
 311.080078125 4.9619140625 l 1
 259.609375 -200.926757812 l 2
EndSplineSet
EndChar

StartChar: \.alt9
Encoding: 79 -1 78
Width: 526
VWidth: 0
Flags: HW
LayerCount: 2
Fore
SplineSet
334.397460938 79.103515625 m 0
 324.127929688 89.373046875 307.452148438 89.373046875 297.181640625 79.103515625 c 0
 292.046875 73.96875 289.479492188 67.2314453125 289.479492188 60.4951171875 c 2
 289.479492188 -14.7802734375 l 1
 235.822265625 173.01953125 l 2
 230.124023438 192.961914062 205.344726562 197.79296875 191.918945312 184.366210938 c 0
 184.918945312 177.3671875 182.690429688 167.391601562 185.231445312 158.497070312 c 2
 290.494140625 -209.923828125 l 2
 296.192382812 -229.865234375 320.971679688 -234.697265625 334.397460938 -221.270507812 c 0
 339.533203125 -216.135742188 342.100585938 -209.399414062 342.100585938 -202.662109375 c 2
 342.100585938 60.4951171875 l 2
 342.100585938 67.2314453125 339.533203125 73.96875 334.397460938 79.103515625 c 0
EndSplineSet
EndChar

StartChar: ".alt16"
Encoding: 80 -1 79
Width: 182
VWidth: 0
Flags: HW
LayerCount: 2
Fore
SplineSet
156.624023438 -97.3994140625 m 2
 156.624023438 -99.013671875 162.51953125 -100.323242188 169.782226562 -100.323242188 c 0
 177.043945312 -100.323242188 182.939453125 -99.013671875 182.939453125 -97.3994140625 c 2
 182.939453125 376.284179688 l 2
 182.939453125 377.897460938 177.043945312 379.208007812 169.782226562 379.208007812 c 0
 163.114257812 379.208007812 157.59765625 378.103515625 156.740234375 376.673828125 c 2
 -1.1552734375 113.516601562 l 2
 -2.26171875 111.672851562 4.2216796875 110.203125 11.88671875 110.203125 c 0
 17.25 110.203125 21.869140625 110.91796875 23.9169921875 111.94140625 c 2
 129.180664062 164.573242188 l 2
 133.244140625 166.60546875 126.098632812 168.682617188 117.150390625 168.682617188 c 0
 111.786132812 168.682617188 107.16796875 167.967773438 105.119140625 166.944335938 c 2
 37.0234375 132.895507812 l 1
 156.624023438 332.228515625 l 1
 156.624023438 -97.3994140625 l 2
169.782226562 -205.586914062 m 0
 177.3046875 -205.586914062 183.598632812 -204.178710938 182.887695312 -202.401367188 c 2
 117.499023438 -38.9296875 l 1
 156.766601562 -97.8310546875 l 2
 157.706054688 -99.240234375 163.1796875 -100.323242188 169.782226562 -100.323242188 c 0
 177.498046875 -100.323242188 184.038085938 -98.830078125 182.796875 -96.9677734375 c 2
 77.533203125 60.9267578125 l 2
 76.59375 62.3359375 71.12109375 63.4189453125 64.5185546875 63.4189453125 c 0
 56.9951171875 63.4189453125 50.701171875 62.0107421875 51.412109375 60.2333984375 c 2
 156.67578125 -202.924804688 l 2
 157.272460938 -204.416015625 162.916992188 -205.586914062 169.782226562 -205.586914062 c 0
58.8017578125 -42.9072265625 m 2
 54.501953125 -47.20703125 66.0888671875 -50.775390625 70.234375 -46.6298828125 c 2
 175.498046875 58.6337890625 l 2
 179.797851562 62.93359375 168.2109375 66.501953125 164.065429688 62.3564453125 c 2
 58.8017578125 -42.9072265625 l 2
EndSplineSet
EndChar

StartChar: \.alt10
Encoding: 81 -1 80
Width: 492
VWidth: 0
Flags: HW
LayerCount: 2
Fore
SplineSet
362.29296875 447.524414062 m 0
 351.338867188 436.5703125 351.631835938 417.688476562 365.412109375 407.637695312 c 0
 466.067382812 334.221679688 456.853515625 205.303710938 384.887695312 133.338867188 c 0
 347.975585938 96.42578125 295.302734375 75.1904296875 231.129882812 85.7919921875 c 1
 196.553710938 431.552734375 l 2
 195.970703125 437.385742188 193.447265625 443.059570312 188.982421875 447.524414062 c 0
 180.76953125 455.737304688 168.458007812 457.3828125 158.603515625 452.458007812 c 0
 11.5751953125 378.98828125 1.59765625 194.1015625 100.483398438 95.216796875 c 0
 122.624023438 73.076171875 150.162109375 55.3125 182.419921875 44.0322265625 c 1
 196.826171875 -100.037109375 l 2
 197.41015625 -105.870117188 199.93359375 -111.544921875 204.397460938 -116.008789062 c 0
 214.66796875 -126.278320312 231.34375 -126.278320312 241.614257812 -116.008789062 c 0
 247.419921875 -110.202148438 249.943359375 -102.349609375 249.184570312 -94.763671875 c 2
 236.512695312 31.958984375 l 1
 311.806640625 23.7587890625 376.877929688 50.896484375 422.104492188 96.1220703125 c 0
 512.928710938 186.947265625 527.548828125 354.530273438 396.389648438 450.1953125 c 0
 386.099609375 457.700195312 371.578125 456.809570312 362.29296875 447.524414062 c 0
331.9921875 165.390625 m 2
 331.9921875 167.05859375 330.717773438 168.389648438 328.268554688 168.389648438 c 0
 326.372070312 168.389648438 324.801757812 167.404296875 324.545898438 166.125 c 2
 274.711914062 -83.04296875 l 1
 174.03515625 218.989257812 l 2
 172.973632812 222.172851562 165.568359375 221.223632812 166.712890625 217.790039062 c 2
 271.975585938 -98 l 2
 272.880859375 -100.71484375 278.791992188 -100.609375 279.360351562 -97.7685546875 c 2
 331.9921875 165.390625 l 2
315.125976562 271.176757812 m 0
 315.125976562 269.258789062 320.603515625 267.732421875 328.268554688 267.732421875 c 0
 335.322265625 267.732421875 341.086914062 269.122070312 341.412109375 270.866210938 c 0
 343.020507812 279.48046875 343.791015625 287.99609375 343.791015625 296.34765625 c 0
 343.791015625 337.731445312 324.994140625 375.025390625 295.05078125 400.31640625 c 0
 281.733398438 411.564453125 266.317382812 420.484375 248.173828125 426.498046875 c 0
 233.848632812 431.245117188 216.44921875 434.5703125 195.701171875 434.5703125 c 0
 184.024414062 434.5703125 172.783203125 433.471679688 162.510742188 431.552734375 c 0
 108.412109375 421.450195312 71.71484375 399.817382812 45.9296875 372.151367188 c 0
 -25.732421875 295.259765625 -11.171875 167.237304688 60.185546875 95.26171875 c 0
 77.6259765625 77.6708984375 98.3369140625 63.4072265625 123.196289062 53.8603515625 c 0
 142.8125 46.326171875 166.67578125 41.1494140625 195.778320312 41.1494140625 c 0
 228.028320312 41.1494140625 257.719726562 47.408203125 286.723632812 58.7236328125 c 0
 292.459960938 60.9619140625 285.545898438 63.78515625 275.637695312 63.78515625 c 0
 270.983398438 63.78515625 266.889648438 63.1796875 264.55078125 62.2666015625 c 0
 236.759765625 51.423828125 212.998046875 47.728515625 195.778320312 47.728515625 c 0
 180.486328125 47.728515625 163.1640625 50.568359375 145.267578125 57.4423828125 c 0
 123.235351562 65.9033203125 102.794921875 79.6357421875 85.73046875 96.84765625 c 0
 15.7900390625 167.393554688 1.1962890625 295.15625 71.560546875 370.655273438 c 0
 96.97265625 397.920898438 133.740234375 417.969726562 178.237304688 426.279296875 c 0
 185.088867188 427.55859375 190.778320312 427.991210938 195.701171875 427.991210938 c 0
 204.197265625 427.991210938 215.017578125 426.563476562 227.15234375 422.541015625 c 0
 242.083984375 417.592773438 256.994140625 409.274414062 269.8125 398.448242188 c 0
 298.673828125 374.071289062 317.475585938 337.211914062 317.475585938 296.34765625 c 0
 317.475585938 288.099609375 316.71484375 279.686523438 315.125976562 271.176757812 c 0
EndSplineSet
EndChar

StartChar: glyph81
Encoding: 82 82 81
Width: 366
VWidth: 0
Flags: HW
LayerCount: 2
Fore
SplineSet
64.193359375 240.965820312 m 2
 49.865234375 232.369140625 48.041015625 214.66796875 56.294921875 203.112304688 c 2
 319.452148438 -165.309570312 l 2
 329.450195312 -179.305664062 348.490234375 -179.641601562 359.4921875 -168.639648438 c 0
 368.713867188 -159.416992188 369.655273438 -145.030273438 362.314453125 -134.75390625 c 2
 115.713867188 210.48828125 l 1
 354.416015625 353.708984375 l 2
 370.043945312 363.084960938 370.934570312 383.44921875 359.4921875 394.892578125 c 0
 350.780273438 403.603515625 337.4609375 404.92578125 327.350585938 398.859375 c 2
 64.193359375 240.965820312 l 2
6.4853515625 -10.7451171875 m 0
 18.419921875 -22.6796875 40.0927734375 -20.9921875 48.6318359375 -3.9130859375 c 2
 209.309570312 317.439453125 l 1
 209.309570312 113.125976562 l 2
 209.309570312 106.389648438 211.876953125 99.6533203125 217.01171875 94.5185546875 c 0
 227.282226562 84.248046875 243.958007812 84.248046875 254.227539062 94.5185546875 c 0
 259.36328125 99.6533203125 261.930664062 106.389648438 261.930664062 113.125976562 c 2
 261.930664062 428.916015625 l 2
 261.930664062 435.65234375 259.36328125 442.388671875 254.227539062 447.524414062 c 0
 242.29296875 459.458984375 220.620117188 457.771484375 212.080078125 440.692382812 c 2
 1.5537109375 19.6396484375 l 2
 -3.3740234375 9.7841796875 -1.73046875 -2.529296875 6.4853515625 -10.7451171875 c 0
288.250976562 86.8115234375 m 2
 293.092773438 86.8115234375 297.022460938 98.6025390625 297.022460938 113.126953125 c 0
 297.022460938 126.90625 293.485351562 138.2265625 288.98828125 139.350585938 c 2
 78.4619140625 191.981445312 l 2
 73.15625 193.307617188 68.953125 180.766601562 68.953125 165.7578125 c 0
 68.953125 151.977539062 72.4912109375 140.657226562 76.98828125 139.533203125 c 2
 202.823242188 108.075195312 l 1
 180.215820312 85.4677734375 l 2
 176.731445312 81.9833984375 174.216796875 72.11328125 174.216796875 60.4951171875 c 0
 174.216796875 43.6171875 179.72265625 29.484375 185.760742188 35.5234375 c 2
 237.048828125 86.8115234375 l 1
 288.250976562 86.8115234375 l 2
EndSplineSet
EndChar

StartChar: |.alt6
Encoding: 83 -1 82
Width: 181
VWidth: 0
Flags: HW
LayerCount: 2
Fore
SplineSet
130.307617188 7.86328125 m 0
 130.307617188 26.2861328125 120.422851562 40.5615234375 111.27734375 31.416015625 c 2
 87.0498046875 7.1884765625 l 1
 129.635742188 262.703125 l 2
 132.653320312 280.80859375 125.587890625 297.336914062 117.149414062 297.336914062 c 0
 111.340820312 297.336914062 106.405273438 289.791992188 104.663085938 279.337890625 c 2
 52.0322265625 -36.451171875 l 2
 48.42578125 -58.091796875 59.6318359375 -79.0791015625 70.3896484375 -68.3212890625 c 2
 123.021484375 -15.689453125 l 2
 127.338867188 -11.37109375 130.307617188 -2.44140625 130.307617188 7.86328125 c 0
EndSplineSet
EndChar

StartChar: glyph83
Encoding: 84 47 83
Width: 421
VWidth: 0
Flags: HW
LayerCount: 2
Fore
SplineSet
34.0234375 -221.270507812 m 0
 45.958984375 -233.205078125 67.6318359375 -231.517578125 76.1708984375 -214.439453125 c 2
 391.959960938 417.139648438 l 2
 396.887695312 426.995117188 395.244140625 439.30859375 387.029296875 447.524414062 c 0
 375.09375 459.458984375 353.420898438 457.771484375 344.881835938 440.692382812 c 2
 29.0927734375 -190.885742188 l 2
 24.1650390625 -200.741210938 25.80859375 -213.055664062 34.0234375 -221.270507812 c 0
EndSplineSet
EndChar

StartChar: th
Encoding: 85 -1 84
Width: 274
VWidth: 0
Flags: HW
LayerCount: 2
Fore
SplineSet
120.012695312 -144.775390625 m 0
 114.2578125 -144.775390625 113.9921875 -154.953125 119.568359375 -155.288085938 c 0
 125.551757812 -155.647460938 131.33984375 -155.823242188 136.936523438 -155.823242188 c 0
 234.940429688 -155.823242188 274.80078125 -100.999023438 274.80078125 -36.96875 c 0
 274.80078125 46.40625 207.874023438 142.81640625 127.932617188 142.81640625 c 0
 99.8427734375 142.81640625 70.455078125 130.771484375 42.2119140625 102.52734375 c 1
 18.79296875 219.620117188 l 2
 17.5224609375 225.973632812 8.890625 224.017578125 10.2626953125 217.158203125 c 2
 34.7607421875 94.6669921875 l 1
 26.740234375 85.75390625 18.830078125 75.484375 11.0888671875 63.759765625 c 0
 2.7255859375 51.0927734375 -1.1953125 37.0380859375 -1.1953125 23.240234375 c 0
 -1.1953125 -14.0927734375 27.0048828125 -47.6279296875 66.9375 -50.0244140625 c 0
 69.7626953125 -50.1943359375 72.14453125 -47.13671875 71.4248046875 -43.537109375 c 2
 44.50390625 91.0693359375 l 1
 72.4052734375 120.439453125 101.022460938 132.290039062 127.932617188 132.290039062 c 0
 202.213867188 132.290039062 266.028320312 40.8466796875 266.028320312 -36.96875 c 0
 266.028320312 -94.056640625 232.071289062 -145.296875 136.936523438 -145.296875 c 0
 131.495117188 -145.296875 125.85546875 -145.125976562 120.012695312 -144.775390625 c 0
70.4482421875 218.388671875 m 2
 70.4482421875 223.23046875 68.974609375 227.161132812 67.1591796875 227.161132812 c 0
 65.34375 227.161132812 63.8701171875 223.23046875 63.8701171875 218.388671875 c 2
 63.8701171875 -97.400390625 l 2
 63.8701171875 -107.025390625 68.8271484375 -108.994140625 70.1669921875 -100.956054688 c 2
 116.501953125 177.051757812 l 1
 116.501953125 113.126953125 l 2
 116.501953125 108.28515625 117.975585938 104.35546875 119.791015625 104.35546875 c 0
 121.606445312 104.35546875 123.081054688 108.28515625 123.081054688 113.126953125 c 2
 123.081054688 218.388671875 l 2
 123.081054688 228.014648438 118.123046875 229.983398438 116.783203125 221.9453125 c 2
 70.4482421875 -56.0625 l 1
 70.4482421875 218.388671875 l 2
116.11328125 -204.490234375 m 2
 117.084960938 -215.173828125 124.51171875 -212.30859375 123.46875 -200.836914062 c 2
 70.8369140625 378.110351562 l 2
 69.865234375 388.793945312 62.4384765625 385.9296875 63.4814453125 374.458007812 c 2
 116.11328125 -204.490234375 l 2
EndSplineSet
Ligature2: "liga-1" t h
EndChar

StartChar: ".alt17"
Encoding: 86 -1 85
Width: 115
VWidth: 0
Flags: HW
LayerCount: 2
Fore
SplineSet
111.779296875 217.110351562 m 2
 112.625976562 223.889648438 107.482421875 226.143554688 106.672851562 219.66796875 c 2
 54.5390625 -197.400390625 l 1
 3.9619140625 -197.400390625 l 2
 0.57421875 -197.400390625 0.556640625 -207.926757812 3.9619140625 -207.926757812 c 2
 56.59375 -207.926757812 l 2
 57.826171875 -207.926757812 58.861328125 -206.23046875 59.1474609375 -203.942382812 c 2
 111.779296875 217.110351562 l 2
115.763671875 428.426757812 m 2
 115.763671875 431.146484375 113.365234375 433.301757812 109.225585938 433.301757812 c 0
 105.842773438 433.301757812 103.052734375 431.595703125 102.6875 429.405273438 c 2
 50.0556640625 113.615234375 l 2
 49.1005859375 107.884765625 62.205078125 107.076171875 63.1328125 112.637695312 c 2
 115.763671875 428.426757812 l 2
9.2255859375 428.916015625 m 2
 9.2255859375 433.7578125 6.8671875 437.688476562 3.9619140625 437.688476562 c 0
 1.0576171875 437.688476562 -1.30078125 433.7578125 -1.30078125 428.916015625 c 2
 -1.30078125 7.86328125 l 2
 -1.30078125 0.4609375 4.1328125 -3.6796875 7.48046875 1.341796875 c 2
 112.744140625 159.236328125 l 2
 114.740234375 162.23046875 115.083007812 167.7421875 113.270507812 171.368164062 c 2
 60.638671875 276.630859375 l 2
 57.62109375 282.665039062 51.330078125 279.205078125 51.330078125 271.020507812 c 0
 51.330078125 268.887695312 51.7880859375 266.931640625 52.548828125 265.41015625 c 2
 101.939453125 166.62890625 l 1
 9.2255859375 27.5576171875 l 1
 9.2255859375 428.916015625 l 2
EndSplineSet
EndChar

StartChar: 7.alt1
Encoding: 87 -1 86
Width: 1000
VWidth: 0
Flags: HW
LayerCount: 2
Fore
SplineSet
441.956054688 75.7158203125 m 0
 449.310546875 68.3623046875 461.251953125 68.3623046875 468.606445312 75.7158203125 c 0
 472.283203125 79.3935546875 474.122070312 84.216796875 474.122070312 89.041015625 c 2
 474.12109375 315.170898438 l 2
 474.12109375 319.995117188 472.282226562 324.818359375 468.60546875 328.49609375 c 0
 461.250976562 335.849609375 449.309570312 335.849609375 441.956054688 328.49609375 c 0
 438.278320312 324.818359375 436.440429688 319.995117188 436.440429688 315.170898438 c 2
 436.440429688 89.041015625 l 2
 436.440429688 84.216796875 438.279296875 79.3935546875 441.956054688 75.7158203125 c 0
421.208984375 52.017578125 m 0
 419.896484375 54.8115234375 412.546875 53.73046875 413.975585938 50.689453125 c 0
 504.665039062 -142.296875 600.682617188 -217.739257812 691.143554688 -217.739257812 c 0
 769.28125 -217.739257812 838.307617188 -161.34375 891.228515625 -81.3994140625 c 0
 957.645507812 18.931640625 999.51953125 158.252929688 999.51953125 278.573242188 c 0
 999.51953125 415.395507812 945.30078125 530.283203125 805.54296875 530.283203125 c 0
 734.540039062 530.283203125 643.37109375 500.415039062 528.024414062 429.919921875 c 0
 474.90625 397.456054688 472.481445312 336.81640625 469.611328125 277.155273438 c 0
 466.752929688 217.728515625 463.46484375 159.229492188 414.90625 128.380859375 c 0
 321.931640625 69.3154296875 247.172851562 45.1044921875 189.118164062 45.1044921875 c 0
 62.828125 45.1044921875 7.0576171875 160.787109375 7.0576171875 296.266601562 c 0
 7.0576171875 395.415039062 36.9384765625 503.630859375 88.3349609375 579.96484375 c 0
 129.614257812 641.2734375 184.201171875 681.021484375 246.490234375 681.021484375 c 0
 315.6328125 681.021484375 399.12109375 631.9921875 489.514648438 502.670898438 c 0
 491.383789062 499.997070312 498.446289062 501.663085938 496.42578125 504.553710938 c 0
 406.076171875 633.810546875 321.466796875 685.733398438 246.490234375 685.733398438 c 0
 178.71875 685.733398438 122.774414062 643.262695312 81.3837890625 581.7890625 c 0
 29.4423828125 504.64453125 -0.48046875 396 -0.48046875 296.266601562 c 0
 -0.48046875 161.649414062 54.0498046875 40.3935546875 189.118164062 40.3935546875 c 0
 250.524414062 40.3935546875 326.784179688 65.6826171875 420.279296875 125.078125 c 0
 471.887695312 157.864257812 474.302734375 217.923828125 477.145507812 277.01171875 c 0
 480.033203125 337.037109375 483.36328125 396.037109375 533.29296875 426.551757812 c 0
 648.159179688 496.752929688 737.9140625 525.572265625 805.54296875 525.572265625 c 0
 936.825195312 525.572265625 991.982421875 416.127929688 991.982421875 278.573242188 c 0
 991.982421875 158.924804688 950.192382812 19.998046875 884.260742188 -79.6015625 c 0
 831.302734375 -159.602539062 763.291992188 -213.028320312 691.143554688 -213.028320312 c 0
 607.7265625 -213.028320312 512.130859375 -141.463867188 421.208984375 52.017578125 c 0
EndSplineSet
EndChar

StartChar: UV
Encoding: 88 -1 87
Width: 388
VWidth: 0
Flags: HW
LayerCount: 2
Fore
SplineSet
210.17578125 369.763671875 m 2
 213.6171875 368.616210938 214.1953125 381.69921875 210.876953125 382.805664062 c 2
 52.982421875 435.4375 l 2
 49.541015625 436.583984375 48.962890625 423.500976562 52.28125 422.395507812 c 2
 210.17578125 369.763671875 l 2
188.885742188 -126.547851562 m 0
 112.463867188 -126.547851562 63.2841796875 -68.693359375 63.2841796875 -5.208984375 c 0
 63.2841796875 12.6787109375 67.322265625 31.0498046875 76.1787109375 48.740234375 c 0
 85.32421875 67.0078125 71.06640625 86.810546875 52.6318359375 86.810546875 c 0
 42.3310546875 86.810546875 33.4052734375 80.8798828125 29.0849609375 72.25 c 0
 16.548828125 47.2099609375 10.65234375 20.7626953125 10.65234375 -5.208984375 c 0
 10.65234375 -85.4296875 67.146484375 -160.328125 153.176757812 -175.924804688 c 0
 165.26953125 -178.1171875 177.198242188 -179.1796875 188.885742188 -179.1796875 c 0
 298.46875 -179.1796875 378.037109375 -86.8232421875 378.037109375 12.224609375 c 0
 378.037109375 52.22265625 365.001953125 93.3291015625 336.4375 129.434570312 c 0
 331.616210938 135.529296875 324.15625 139.442382812 315.7890625 139.442382812 c 0
 301.264648438 139.442382812 289.473632812 127.651367188 289.473632812 113.126953125 c 0
 289.473632812 106.969726562 291.592773438 101.303710938 295.140625 96.8193359375 c 0
 316.3671875 69.9873046875 325.405273438 40.6904296875 325.405273438 12.224609375 c 0
 325.405273438 -59.8740234375 267.034179688 -126.547851562 188.885742188 -126.547851562 c 0
EndSplineSet
Ligature2: "liga-1" U V
EndChar

StartChar: |.alt7
Encoding: 90 -1 88
Width: 322
VWidth: 0
Flags: HW
LayerCount: 2
Fore
SplineSet
-0.546875 -44.046875 m 2
 -1.6220703125 -47.810546875 4.8037109375 -49.08203125 5.830078125 -45.48828125 c 2
 104.615234375 300.258789062 l 1
 104.615234375 113.126953125 l 2
 104.615234375 112.783203125 104.681640625 112.454101562 104.8046875 112.1484375 c 2
 210.068359375 -151.009765625 l 2
 211.42578125 -154.403320312 217.755859375 -152.771484375 216.268554688 -149.052734375 c 2
 111.194335938 113.6328125 l 1
 111.194335938 323.653320312 l 2
 111.194335938 327.096679688 105.612304688 327.508789062 104.716796875 324.374023438 c 2
 -0.546875 -44.046875 l 2
321.700195312 323.327148438 m 2
 321.700195312 327.1875 315.623046875 327.670898438 315.161132812 323.978515625 c 2
 262.53125 -97.0732421875 l 2
 262.173828125 -99.927734375 266.208984375 -101.391601562 268.259765625 -99.3408203125 c 2
 320.889648438 -46.708984375 l 2
 323.700195312 -43.8984375 318.803710938 -39.994140625 315.971679688 -42.826171875 c 2
 270.211914062 -88.587890625 l 1
 321.700195312 323.327148438 l 2
EndSplineSet
EndChar

StartChar: glyph89
Encoding: 91 73 89
Width: 156
VWidth: 0
Flags: HW
LayerCount: 2
Fore
SplineSet
103.522460938 170.94921875 m 2
 99.32421875 191.9453125 73.3076171875 198.555664062 59.1181640625 184.366210938 c 0
 52.65625 177.905273438 50.2607421875 168.909179688 51.9287109375 160.567382812 c 2
 104.559570312 -102.590820312 l 2
 108.758789062 -123.586914062 134.775390625 -130.198242188 148.96484375 -116.008789062 c 0
 155.42578125 -109.547851562 157.822265625 -100.551757812 156.154296875 -92.2099609375 c 2
 103.522460938 170.94921875 l 2
156.672851562 218.389648438 m 2
 156.672851562 323.653320312 l 2
 156.672851562 325.10546875 144.881835938 326.28515625 130.357421875 326.28515625 c 0
 116.01171875 326.28515625 104.33203125 325.134765625 104.046875 323.70703125 c 2
 80.7021484375 206.982421875 l 1
 -0.7109375 166.276367188 l 2
 -4.1689453125 164.546875 9.294921875 163.125976562 25.09375 163.125976562 c 0
 37.8447265625 163.125976562 48.4892578125 164.03515625 50.8984375 165.239257812 c 2
 74.7373046875 177.159179688 l 1
 -1.2275390625 -202.663085938 l 2
 -1.2275390625 -204.115234375 10.5693359375 -205.294921875 25.09375 -205.294921875 c 0
 39.439453125 -205.294921875 51.119140625 -204.14453125 51.404296875 -202.716796875 c 2
 133.228515625 206.404296875 l 1
 156.162109375 217.87109375 l 2
 156.497070312 218.0390625 156.672851562 218.211914062 156.672851562 218.389648438 c 2
EndSplineSet
EndChar

StartChar: /.alt1
Encoding: 92 -1 90
Width: 578
VWidth: 0
Flags: HW
LayerCount: 2
Fore
SplineSet
370.0625 4.4365234375 m 2
 372.66015625 7.900390625 369.479492188 14.890625 366.779296875 11.2900390625 c 2
 218.23828125 -186.764648438 l 1
 370.776367188 321.696289062 l 2
 372.331054688 326.880859375 367.560546875 330.594726562 366.065429688 325.611328125 c 2
 208.170898438 -200.706054688 l 2
 206.946289062 -204.790039062 209.96875 -209.0234375 212.168945312 -206.08984375 c 2
 370.0625 4.4365234375 l 2
EndSplineSet
EndChar

StartChar: y.alt1
Encoding: 93 -1 91
Width: 397
VWidth: 0
Flags: HW
LayerCount: 2
Fore
SplineSet
269.643554688 94.5185546875 m 2
 279.9140625 84.248046875 296.58984375 84.248046875 306.859375 94.5185546875 c 0
 316.23046875 103.888671875 317.05078125 118.591796875 309.322265625 128.896484375 c 2
 151.427734375 339.422851562 l 2
 139.28515625 355.61328125 113.251953125 353.08203125 105.709960938 332.884765625 c 1
 43.7021484375 394.892578125 l 2
 33.431640625 405.162109375 16.755859375 405.162109375 6.4853515625 394.892578125 c 0
 -3.7841796875 384.622070312 -3.7841796875 367.946289062 6.4853515625 357.67578125 c 2
 111.8046875 252.357421875 l 1
 156.838867188 -152.958007812 l 2
 157.475585938 -158.688476562 159.989257812 -164.249023438 164.379882812 -168.639648438 c 0
 174.649414062 -178.91015625 191.326171875 -178.91015625 201.595703125 -168.639648438 c 0
 207.475585938 -162.759765625 209.989257812 -154.780273438 209.13671875 -147.10546875 c 2
 171.37109375 192.791015625 l 1
 269.643554688 94.5185546875 l 2
397.762695312 375.62890625 m 2
 399.213867188 379.014648438 390.651367188 380.172851562 389.266601562 376.94140625 c 2
 231.37109375 8.5205078125 l 2
 229.920898438 5.1357421875 238.482421875 3.9765625 239.8671875 7.2080078125 c 2
 397.762695312 375.62890625 l 2
EndSplineSet
EndChar

StartChar: glyph92
Encoding: 94 102 92
Width: 333
VWidth: 0
Flags: HW
LayerCount: 2
Fore
SplineSet
266.317382812 425.09765625 m 2
 268.213867188 435.53125 262.216796875 442.764648438 260.393554688 432.735351562 c 2
 161.381835938 -111.831054688 l 1
 161.381835938 218.388671875 l 2
 161.381835938 223.23046875 159.908203125 227.161132812 158.092773438 227.161132812 c 0
 156.27734375 227.161132812 154.802734375 223.23046875 154.802734375 218.388671875 c 2
 154.802734375 -150.032226562 l 2
 154.802734375 -159.455078125 159.629882812 -161.685546875 161.0546875 -153.850585938 c 2
 266.317382812 425.09765625 l 2
161.381835938 113.126953125 m 0
 161.381835938 117.955078125 159.916015625 121.876953125 158.108398438 121.8984375 c 0
 89.1513671875 122.744140625 43.5712890625 158.013671875 21.4296875 202.5703125 c 0
 10.36328125 224.841796875 5.4111328125 248.609375 5.4111328125 271.021484375 c 0
 5.4111328125 293.43359375 10.36328125 317.201171875 21.4296875 339.47265625 c 0
 43.591796875 384.071289062 90.2646484375 420.15234375 159.431640625 420.15234375 c 0
 199.41796875 420.15234375 235.1796875 397.885742188 262.099609375 368.17578125 c 0
 308.005859375 317.51171875 327.78515625 257.107421875 327.78515625 201.715820312 c 0
 327.78515625 170.120117188 321.483398438 137.702148438 308.540039062 106.611328125 c 0
 282.639648438 44.400390625 230.84765625 -9.796875 157.650390625 -36.0751953125 c 0
 156.043945312 -36.65234375 154.802734375 -40.3271484375 154.802734375 -44.7685546875 c 0
 154.802734375 -49.8818359375 156.459960938 -54.2060546875 158.53515625 -53.4619140625 c 0
 232.4140625 -26.9384765625 285.358398438 27.3212890625 312.940429688 93.57421875 c 0
 326.737304688 126.715820312 334.36328125 163.53125 334.36328125 201.715820312 c 0
 334.36328125 269.107421875 311.020507812 333.174804688 264.611328125 384.393554688 c 0
 236.576171875 415.334960938 199.579101562 438.197265625 158.077148438 437.6875 c 0
 88.392578125 436.833984375 41.544921875 401.927734375 17.47265625 353.484375 c 0
 5.4326171875 329.254882812 -1.16796875 300.81640625 -1.16796875 271.021484375 c 0
 -1.16796875 241.2265625 5.4326171875 212.788085938 17.47265625 188.55859375 c 0
 41.544921875 140.115234375 88.392578125 105.208984375 158.092773438 104.35546875 c 0
 159.908203125 104.35546875 161.381835938 108.28515625 161.381835938 113.126953125 c 0
266.534179688 321.390625 m 2
 267.162109375 327.672851562 265.161132812 333.497070312 262.739257812 332.272460938 c 1
 266.552734375 374.212890625 l 2
 267.21484375 381.497070312 264.30859375 387.779296875 261.74609375 383.935546875 c 2
 156.483398438 226.040039062 l 2
 152.91796875 220.69140625 155.874023438 204.997070312 159.702148438 210.73828125 c 2
 258.375976562 358.750976562 l 1
 207.526367188 -200.592773438 l 2
 206.506835938 -211.810546875 212.840820312 -215.538085938 213.90234375 -204.926757812 c 2
 266.534179688 321.390625 l 2
EndSplineSet
EndChar

StartChar: ".alt18"
Encoding: 95 -1 93
Width: 526
VWidth: 0
Flags: HW
LayerCount: 2
Fore
SplineSet
49.3427734375 60.4951171875 m 0
 49.3427734375 44.3095703125 51.220703125 30.54296875 53.431640625 34.962890625 c 2
 158.693359375 245.48828125 l 2
 160.124023438 248.348632812 161.18359375 258.702148438 161.18359375 271.020507812 c 0
 161.18359375 287.206054688 159.305664062 300.973632812 157.095703125 296.552734375 c 2
 51.8330078125 86.02734375 l 2
 50.4033203125 83.16796875 49.3427734375 72.814453125 49.3427734375 60.4951171875 c 0
368.420898438 -18.4521484375 m 0
 366.60546875 -18.4521484375 365.131835938 -30.244140625 365.131835938 -44.7685546875 c 0
 365.131835938 -58.7333984375 366.494140625 -70.1728515625 368.212890625 -71.0322265625 c 2
 473.4765625 -123.6640625 l 2
 475.426757812 -124.638671875 476.973632812 -112.282226562 476.973632812 -97.400390625 c 0
 476.973632812 -86.455078125 476.13671875 -77.0615234375 474.947265625 -73.0966796875 c 2
 317.051757812 453.219726562 l 2
 314.768554688 460.83203125 312.5 446.552734375 312.5 428.916015625 c 0
 312.5 417.970703125 313.336914062 408.578125 314.526367188 404.61328125 c 2
 454.314453125 -61.3466796875 l 1
 368.62890625 -18.50390625 l 2
 368.560546875 -18.50390625 368.491210938 -18.4521484375 368.420898438 -18.4521484375 c 0
371.16015625 325.192382812 m 2
 369.896484375 330.247070312 364.295898438 327.663085938 365.682617188 322.116210938 c 2
 415.98828125 120.889648438 l 1
 158.979492188 275.094726562 l 2
 156.299804688 276.702148438 153.77734375 271.948242188 155.5546875 268.392578125 c 2
 208.185546875 163.129882812 l 2
 210.39453125 158.712890625 215.176757812 163.765625 212.8671875 168.385742188 c 2
 166.490234375 261.138671875 l 1
 419.967773438 109.052734375 l 2
 422.256835938 107.6796875 424.7109375 110.985351562 423.791015625 114.665039062 c 2
 371.16015625 325.192382812 l 2
EndSplineSet
EndChar

StartChar: 4.alt1
Encoding: 96 -1 94
Width: 427
VWidth: 0
Flags: HW
LayerCount: 2
Fore
SplineSet
262.875976562 -202.663085938 m 0
 262.875976562 -207.869140625 264.412109375 -212.295898438 266.305664062 -211.3046875 c 0
 326.947265625 -179.553710938 368.845703125 -128.791015625 390.484375 -69.40234375 c 0
 401.310546875 -39.689453125 407.213867188 -7.1416015625 407.213867188 26.5634765625 c 0
 407.213867188 103.6484375 377.243164062 174.803710938 319.268554688 226.794921875 c 0
 289.263671875 253.704101562 252.717773438 271.94921875 213.36328125 279.7734375 c 0
 212.595703125 279.92578125 211.94921875 279.2421875 211.416015625 278.04296875 c 2
 0.8896484375 -195.641601562 l 2
 -1.2333984375 -200.418945312 -0.1884765625 -211.435546875 2.6416015625 -211.435546875 c 0
 3.298828125 -211.435546875 3.9052734375 -210.784179688 4.3935546875 -209.685546875 c 2
 214.053710938 262.05078125 l 1
 252.630859375 254.180664062 288.403320312 236.161132812 317.592773438 209.983398438 c 0
 375.65234375 157.916015625 401.366210938 88.75 401.366210938 26.5634765625 c 0
 401.366210938 -0.634765625 396.620117188 -28.7890625 386.540039062 -56.45703125 c 0
 366.364257812 -111.830078125 325.415039062 -162.543945312 265.294921875 -194.022460938 c 0
 263.920898438 -194.741210938 262.875976562 -198.338867188 262.875976562 -202.663085938 c 0
424.928710938 420.962890625 m 2
 428.2109375 425.557617188 426.0078125 441.8359375 422.4609375 436.870117188 c 2
 159.301757812 68.44921875 l 2
 156.01953125 63.853515625 158.22265625 47.5751953125 161.770507812 52.5419921875 c 2
 424.928710938 420.962890625 l 2
423.497070312 51.7431640625 m 2
 425.23828125 51.7431640625 426.618164062 55.26171875 426.618164062 60.4951171875 c 0
 426.618164062 65.1376953125 425.4140625 68.943359375 423.891601562 69.2470703125 c 2
 160.733398438 121.87890625 l 2
 158.9921875 122.227539062 157.612304688 118.095703125 157.612304688 113.126953125 c 0
 157.612304688 108.484375 158.817382812 104.678710938 160.338867188 104.375 c 2
 423.497070312 51.7431640625 l 2
EndSplineSet
EndChar

StartChar: Pp
Encoding: 97 -1 95
Width: 568
VWidth: 0
Flags: HW
LayerCount: 2
Fore
SplineSet
345.358398438 342.260742188 m 0
 331.1796875 356.439453125 305.159179688 349.872070312 300.953125 328.84375 c 2
 195.690429688 -197.47265625 l 2
 194.021484375 -205.814453125 196.41796875 -214.810546875 202.87890625 -221.271484375 c 0
 216.182617188 -234.57421875 240.751953125 -230.034179688 246.685546875 -210.255859375 c 2
 404.580078125 316.060546875 l 2
 407.2734375 325.038085938 405.077148438 335.174804688 397.990234375 342.260742188 c 0
 384.6875 355.564453125 360.1171875 351.024414062 354.18359375 331.24609375 c 2
 352.8671875 326.854492188 l 1
 352.180664062 332.48828125 349.677734375 337.94140625 345.358398438 342.260742188 c 0
111.045898438 -47.0869140625 m 0
 116.178710938 -50.82421875 126.740234375 -46.3369140625 121.40234375 -42.4501953125 c 0
 45.8046875 12.58984375 12.5947265625 89.4375 12.5947265625 165.416015625 c 0
 12.5947265625 255.85546875 59.7744140625 344.623046875 135.547851562 393.171875 c 0
 173.396484375 417.421875 217.911132812 431.502929688 267.201171875 431.502929688 c 0
 285.510742188 431.502929688 304.620117188 429.560546875 324.481445312 425.38671875 c 0
 481.586914062 392.372070312 554.498046875 270.88671875 554.498046875 146.502929688 c 0
 554.498046875 47.36328125 507.987304688 -52.279296875 424.932617188 -107.061523438 c 0
 383.46484375 -134.413085938 333.345703125 -150.4921875 275.200195312 -150.4921875 c 0
 258.600585938 -150.4921875 241.266601562 -149.178710938 223.19921875 -146.400390625 c 0
 214.755859375 -145.102539062 211.7265625 -152.423828125 219.775390625 -153.662109375 c 0
 238.870117188 -156.59765625 257.360351562 -158.010742188 275.200195312 -158.010742188 c 0
 337.939453125 -158.010742188 391.64453125 -140.498046875 434.880859375 -111.98046875 c 0
 521.234375 -55.0224609375 567.65625 46.1865234375 567.65625 146.502929688 c 0
 567.65625 271.668945312 495.091796875 397.546875 329.017578125 432.446289062 c 0
 307.83984375 436.896484375 287.177734375 439.021484375 267.201171875 439.021484375 c 0
 213.217773438 439.021484375 165.266601562 423.506835938 125.7265625 398.172851562 c 0
 46.7236328125 347.5546875 -0.5634765625 257.200195312 -0.5634765625 165.416015625 c 0
 -0.5634765625 88.2587890625 32.9404296875 9.779296875 111.045898438 -47.0869140625 c 0
EndSplineSet
Ligature2: "liga-1" P p
EndChar

StartChar: v.alt1
Encoding: 98 -1 96
Width: 243
VWidth: 0
Flags: HW
LayerCount: 2
Fore
SplineSet
58.7958984375 -209.184570312 m 2
 60.466796875 -214.197265625 63.1875 -210.075195312 63.1875 -202.663085938 c 0
 63.1875 -200.076171875 62.8505859375 -197.748046875 62.314453125 -196.142578125 c 2
 10.556640625 -40.8642578125 l 1
 10.556640625 150.264648438 l 1
 111.836914062 -52.2958984375 l 2
 113.638671875 -55.900390625 115.819335938 -51.2421875 115.819335938 -44.7685546875 c 0
 115.819335938 -41.5732421875 115.305664062 -38.7744140625 114.5390625 -37.2412109375 c 2
 9.275390625 173.28515625 l 2
 7.4736328125 176.889648438 5.29296875 172.231445312 5.29296875 165.7578125 c 2
 5.29296875 -44.7685546875 l 2
 5.29296875 -47.35546875 5.6298828125 -49.68359375 6.1650390625 -51.2890625 c 2
 58.7958984375 -209.184570312 l 2
58.4169921875 -41.578125 m 0
 47.8642578125 -42.5712890625 51.2822265625 -49.033203125 62.6953125 -47.9599609375 c 0
 117.303710938 -42.8203125 158.096679688 -20.9580078125 187.2109375 8.595703125 c 0
 223.84375 45.78125 242.883789062 96.4853515625 242.883789062 147.286132812 c 0
 242.883789062 219.336914062 205.081054688 291.990234375 119.5625 325.911132812 c 0
 101.580078125 333.043945312 81.51953125 337 60.5556640625 337 c 0
 39.591796875 337 19.53125 333.043945312 1.5498046875 325.911132812 c 0
 -3.6435546875 323.850585938 0.3876953125 320.362304688 7.9248046875 320.362304688 c 0
 10.4345703125 320.362304688 12.69921875 320.758789062 14.298828125 321.393554688 c 0
 30.123046875 327.670898438 45.791015625 330.420898438 60.5556640625 330.420898438 c 0
 75.3203125 330.420898438 90.98828125 327.670898438 106.813476562 321.393554688 c 0
 186.271484375 289.876953125 225.33984375 218.739257812 225.33984375 147.286132812 c 0
 225.33984375 97.111328125 206.321289062 46.982421875 170.748046875 10.873046875 c 0
 142.099609375 -18.2080078125 103.274414062 -37.3564453125 58.4169921875 -41.578125 c 0
EndSplineSet
EndChar

StartChar: glyph97
Encoding: 99 187 97
Width: 579
VWidth: 0
Flags: HW
LayerCount: 2
Fore
SplineSet
139.286132812 -26.16015625 m 0
 129.015625 -36.4306640625 129.015625 -53.1064453125 139.286132812 -63.376953125 c 0
 145.375 -69.4658203125 153.716796875 -71.9453125 161.639648438 -70.8134765625 c 2
 530.061523438 -18.181640625 l 2
 535.500976562 -17.404296875 540.743164062 -14.92578125 544.923828125 -10.7451171875 c 0
 555.465820312 -0.2021484375 555.442382812 17.345703125 543.627929688 27.68359375 c 2
 122.575195312 396.104492188 l 2
 117.630859375 400.431640625 111.446289062 402.594726562 105.262695312 402.594726562 c 2
 52.630859375 402.594726562 l 2
 45.89453125 402.594726562 39.158203125 400.02734375 34.0224609375 394.892578125 c 0
 23.7529296875 384.622070312 23.7529296875 367.946289062 34.0224609375 357.67578125 c 0
 39.158203125 352.541015625 45.89453125 349.973632812 52.630859375 349.973632812 c 2
 95.3681640625 349.973632812 l 1
 465.846679688 25.8046875 l 1
 154.147460938 -18.7236328125 l 2
 148.708007812 -19.5009765625 143.466796875 -21.9794921875 139.286132812 -26.16015625 c 0
71.2392578125 394.892578125 m 0
 60.96875 405.162109375 44.29296875 405.162109375 34.0224609375 394.892578125 c 0
 28.8876953125 389.756835938 26.3203125 383.020507812 26.3203125 376.284179688 c 2
 26.3212890625 218.388671875 l 2
 26.3212890625 211.65234375 28.888671875 204.916015625 34.0234375 199.78125 c 0
 44.2939453125 189.510742188 60.9697265625 189.510742188 71.240234375 199.78125 c 0
 76.375 204.916015625 78.9423828125 211.653320312 78.9423828125 218.389648438 c 2
 78.94140625 376.284179688 l 2
 78.94140625 383.020507812 76.3740234375 389.756835938 71.2392578125 394.892578125 c 0
EndSplineSet
EndChar

StartChar: ".alt19"
Encoding: 100 -1 98
Width: 61
VWidth: 0
Flags: HW
LayerCount: 2
Fore
SplineSet
8.34765625 376.284179688 m 2
 8.34765625 383.060546875 -0.423828125 383.095703125 -0.423828125 376.284179688 c 2
 -0.423828125 113.126953125 l 2
 -0.423828125 106.350585938 8.34765625 106.315429688 8.34765625 113.126953125 c 2
 8.34765625 376.284179688 l 2
60.98046875 428.916015625 m 2
 60.98046875 435.692382812 52.2080078125 435.727539062 52.2080078125 428.916015625 c 2
 52.2080078125 -202.663085938 l 2
 52.2080078125 -209.439453125 60.98046875 -209.474609375 60.98046875 -202.663085938 c 2
 60.98046875 428.916015625 l 2
EndSplineSet
EndChar

StartChar: {
Encoding: 101 -1 99
Width: 315
VWidth: 0
Flags: HW
LayerCount: 2
Fore
SplineSet
54.390625 -42.5947265625 m 2
 51.8759765625 -40.0791015625 48.3369140625 -44.4072265625 50.8720703125 -46.9423828125 c 2
 103.50390625 -99.57421875 l 2
 106.01953125 -102.088867188 109.557617188 -97.76171875 107.022460938 -95.2265625 c 2
 54.390625 -42.5947265625 l 2
52.6318359375 273.9453125 m 2
 49.2431640625 273.9453125 49.2255859375 268.096679688 52.6318359375 268.096679688 c 2
 258.370117188 268.096679688 l 1
 50.408203125 -95.8359375 l 2
 48.5654296875 -99.0615234375 53.046875 -102.12890625 54.8544921875 -98.9638671875 c 2
 265.381835938 269.45703125 l 2
 266.51953125 271.448242188 265.134765625 273.9453125 263.158203125 273.9453125 c 2
 52.6318359375 273.9453125 l 2
EndSplineSet
EndChar

StartChar: glyph100
Encoding: 102 71 100
Width: 441
VWidth: 0
Flags: HW
LayerCount: 2
Fore
SplineSet
428.76171875 252.413085938 m 0
 440.416015625 264.067382812 439.203125 285.01171875 422.913085938 294.04296875 c 0
 360.8984375 328.423828125 303.451171875 343.737304688 251.5234375 342.965820312 c 0
 186.39453125 341.998046875 131.983398438 315.435546875 91.3544921875 274.806640625 c 0
 27.462890625 210.915039062 -3.2001953125 113.9140625 0.0029296875 21.310546875 c 0
 2.568359375 -52.8544921875 27.0693359375 -126.240234375 78.814453125 -177.985351562 c 0
 140.625 -239.795898438 237.78515625 -265.153320312 364.950195312 -227.91015625 c 0
 400.456054688 -217.51171875 432.78515625 -191.334960938 436.353515625 -152.452148438 c 0
 442.36328125 -86.958984375 412.169921875 -32.80859375 346.66015625 -23.9677734375 c 0
 303.73828125 -18.17578125 257.334960938 -33.787109375 226.751953125 -64.3701171875 c 0
 206.767578125 -84.3544921875 193.09765625 -112.373046875 196.004882812 -144.69921875 c 0
 197.352539062 -159.681640625 202.142578125 -174.665039062 210.313476562 -189.413085938 c 1
 170.5 -182.140625 139.616210938 -164.354492188 116.030273438 -140.768554688 c 0
 76.34375 -101.08203125 54.810546875 -40.9599609375 52.5927734375 23.1435546875 c 0
 49.8173828125 103.375976562 77.6298828125 186.650390625 128.5703125 237.590820312 c 0
 160.662109375 269.682617188 201.573242188 289.596679688 252.310546875 290.350585938 c 0
 293.076171875 290.956054688 341.470703125 279.00390625 397.393554688 248 c 0
 407.401367188 242.451171875 420.270507812 243.922851562 428.76171875 252.413085938 c 0
307.97265625 57.482421875 m 2
 310.78515625 63.107421875 304.571289062 69.033203125 301.80859375 63.5087890625 c 2
 249.176757812 -41.7548828125 l 2
 246.364257812 -47.380859375 252.578125 -53.3056640625 255.340820312 -47.78125 c 2
 307.97265625 57.482421875 l 2
245.768554688 -17.64453125 m 0
 263.4765625 -22.142578125 278.57421875 -8.3515625 278.57421875 7.86328125 c 0
 278.57421875 20.1484375 270.138671875 30.478515625 258.749023438 33.37109375 c 0
 221.115234375 42.931640625 198.54296875 60.9072265625 185.178710938 81.80078125 c 0
 174.391601562 98.666015625 169.1953125 118.52734375 169.1953125 139.245117188 c 0
 169.1953125 181.185546875 191.03125 224.973632812 224.173828125 248.2265625 c 0
 260.650390625 273.818359375 302.27734375 271.89453125 344.65234375 248.06640625 c 0
 351.541015625 244.192382812 357.545898438 239.801757812 362.71875 235.001953125 c 1
 281.337890625 72.23828125 l 2
 272.159179688 53.8818359375 286.578125 33.7646484375 305.487304688 34.1865234375 c 0
 390.328125 36.078125 441.361328125 105.630859375 441.361328125 174.186523438 c 0
 441.361328125 196.830078125 435.79296875 219.776367188 424.301757812 240.469726562 c 1
 433.706054688 259.27734375 l 2
 442.83984375 277.545898438 428.58203125 297.336914062 410.15234375 297.336914062 c 0
 400.04296875 297.336914062 391.255859375 291.623046875 386.849609375 283.250976562 c 1
 381.73828125 287.092773438 376.25390625 290.6796875 370.392578125 293.975585938 c 0
 339.982421875 311.075195312 309.774414062 319.140625 281.081054688 319.140625 c 0
 248.176757812 319.140625 218.46484375 308.508789062 193.995117188 291.33984375 c 0
 145.240234375 257.1328125 116.563476562 197.956054688 116.563476562 139.245117188 c 0
 116.563476562 109.665039062 123.98046875 79.806640625 140.80859375 53.4970703125 c 0
 161.962890625 20.4228515625 197.346679688 -5.34375 245.768554688 -17.64453125 c 0
EndSplineSet
EndChar

StartChar: ".alt20"
Encoding: 103 -1 101
Width: 210
VWidth: 0
Flags: HW
LayerCount: 2
Fore
SplineSet
123.872070312 236.997070312 m 0
 113.6015625 247.267578125 96.92578125 247.267578125 86.6552734375 236.997070312 c 0
 81.5205078125 231.862304688 78.953125 225.125976562 78.953125 218.389648438 c 2
 78.953125 -44.7685546875 l 2
 78.953125 -51.5048828125 81.5205078125 -58.2412109375 86.6552734375 -63.376953125 c 0
 96.92578125 -73.646484375 113.6015625 -73.646484375 123.872070312 -63.376953125 c 0
 129.006835938 -58.2412109375 131.57421875 -51.5048828125 131.57421875 -44.7685546875 c 2
 131.57421875 218.389648438 l 2
 131.57421875 225.125976562 129.006835938 231.862304688 123.872070312 236.997070312 c 0
EndSplineSet
EndChar

StartChar: ".alt21"
Encoding: 104 -1 102
Width: 261
VWidth: 0
Flags: HW
LayerCount: 2
Fore
SplineSet
254.227539062 94.5185546875 m 0
 264.498046875 104.788085938 264.498046875 121.463867188 254.227539062 131.734375 c 2
 43.701171875 342.260742188 l 2
 33.4306640625 352.53125 16.755859375 352.532226562 6.4853515625 342.26171875 c 0
 -3.7841796875 331.9921875 -3.7841796875 315.31640625 6.4853515625 305.045898438 c 2
 217.012695312 94.51953125 l 2
 227.282226562 84.2490234375 243.958007812 84.248046875 254.227539062 94.5185546875 c 0
25.8310546875 -71.17578125 m 2
 20.5244140625 -69.849609375 16.322265625 -82.390625 16.322265625 -97.400390625 c 0
 16.322265625 -111.1796875 19.859375 -122.5 24.3564453125 -123.624023438 c 2
 234.8828125 -176.255859375 l 2
 241.787109375 -177.981445312 246.91015625 -155.33203125 243.147460938 -136.520507812 c 2
 137.883789062 389.795898438 l 2
 136.349609375 397.463867188 133.551757812 402.600585938 130.356445312 402.600585938 c 0
 126.739257812 402.600585938 123.630859375 396.017578125 122.2890625 386.631835938 c 2
 69.658203125 18.2109375 l 2
 67.046875 -0.068359375 71.8095703125 -18.4521484375 77.7255859375 -18.4521484375 c 0
 81.3427734375 -18.4521484375 84.451171875 -11.8701171875 85.7919921875 -2.4833984375 c 2
 131.662109375 318.608398438 l 1
 219.291992188 -119.541015625 l 1
 25.8310546875 -71.17578125 l 2
132.424804688 -46.8349609375 m 2
 135.0703125 -44.189453125 130.97265625 -40.01953125 128.290039062 -42.701171875 c 2
 79.310546875 -91.6806640625 l 1
 27.9306640625 113.837890625 l 2
 27.05078125 117.356445312 21.3056640625 116.220703125 22.2568359375 112.416015625 c 2
 74.888671875 -98.1103515625 l 2
 75.4111328125 -100.198242188 78.16796875 -101.092773438 79.79296875 -99.466796875 c 2
 132.424804688 -46.8349609375 l 2
EndSplineSet
EndChar

StartChar: \.alt11
Encoding: 105 -1 103
Width: 156
VWidth: 0
Flags: HW
LayerCount: 2
Fore
SplineSet
130.357421875 -156.610351562 m 0
 145.200195312 -156.610351562 157.4921875 -153.533203125 156.631835938 -149.661132812 c 2
 51.591796875 323.020507812 l 1
 155.889648438 427.317382812 l 2
 160.309570312 431.737304688 146.540039062 435.495117188 130.357421875 435.495117188 c 0
 118.038085938 435.495117188 107.684570312 433.374023438 104.825195312 430.514648438 c 2
 -0.4384765625 325.251953125 l 2
 -1.0634765625 324.625976562 -1.3388671875 323.9921875 -1.1806640625 323.283203125 c 2
 104.08203125 -150.401367188 l 2
 104.8515625 -153.860351562 116.330078125 -156.610351562 130.357421875 -156.610351562 c 0
51.41015625 376.284179688 m 2
 51.41015625 271.021484375 l 2
 51.41015625 270.94140625 51.4150390625 270.862304688 51.4267578125 270.783203125 c 2
 104.05859375 -97.6376953125 l 2
 104.561523438 -101.158203125 116.15234375 -103.978515625 130.357421875 -103.978515625 c 0
 145.021484375 -103.978515625 157.0390625 -100.9765625 156.665039062 -97.232421875 c 2
 104.033203125 429.083007812 l 2
 103.677734375 432.63671875 92.0263671875 435.495117188 77.7255859375 435.495117188 c 0
 63.0615234375 435.495117188 51.0439453125 432.493164062 51.41796875 428.749023438 c 2
 56.283203125 380.096679688 l 1
 53.21484375 379.021484375 51.41015625 377.705078125 51.41015625 376.284179688 c 2
EndSplineSet
EndChar

StartChar: ".alt22"
Encoding: 106 -1 104
Width: 445
VWidth: 0
Flags: HW
LayerCount: 2
Fore
SplineSet
427.674804688 -16.2587890625 m 2
 436.817382812 -24.2578125 446.096679688 -9.96875 446.096679688 7.86328125 c 0
 446.096679688 18.6455078125 442.84765625 27.9208984375 438.203125 31.9853515625 c 2
 269.981445312 179.1796875 l 1
 282.578125 196.815429688 l 2
 285.978515625 201.575195312 288.203125 209.466796875 288.203125 218.388671875 c 0
 288.203125 230.284179688 284.248046875 240.34765625 278.827148438 243.599609375 c 2
 15.66796875 401.495117188 l 2
 6.685546875 406.884765625 -1.271484375 392.875976562 -1.271484375 376.284179688 c 0
 -1.271484375 365.502929688 1.9775390625 356.2265625 6.623046875 352.162109375 c 2
 216.48828125 168.529296875 l 1
 4.353515625 -128.458007812 l 2
 0.9541015625 -133.217773438 -1.271484375 -141.109375 -1.271484375 -150.032226562 c 0
 -1.271484375 -170.3984375 10.5576171875 -184.01171875 19.419921875 -171.60546875 c 2
 244.725585938 143.822265625 l 1
 427.674804688 -16.2587890625 l 2
EndSplineSet
EndChar

StartChar: ".alt23"
Encoding: 107 -1 105
Width: 111
VWidth: 0
Flags: HW
LayerCount: 2
Fore
SplineSet
57.9306640625 -47.42578125 m 2
 61.3330078125 -44.0234375 56.0634765625 -38.662109375 52.615234375 -42.1103515625 c 2
 11.244140625 -83.4814453125 l 1
 111.47265625 217.201171875 l 2
 113.0546875 221.948242188 105.83984375 224.084960938 104.337890625 219.577148438 c 2
 -0.92578125 -96.2119140625 l 2
 -2.1748046875 -99.958984375 2.55859375 -102.797851562 5.298828125 -100.057617188 c 2
 57.9306640625 -47.42578125 l 2
6.400390625 376.284179688 m 2
 6.400390625 381.125 -1.1181640625 381.149414062 -1.1181640625 376.284179688 c 2
 -1.1181640625 271.020507812 l 2
 -1.1181640625 266.180664062 6.400390625 266.155273438 6.400390625 271.020507812 c 2
 6.400390625 376.284179688 l 2
EndSplineSet
EndChar

StartChar: |.alt8
Encoding: 108 -1 106
Width: 158
VWidth: 0
Flags: HW
LayerCount: 2
Fore
SplineSet
123.87109375 447.524414062 m 0
 113.600585938 457.793945312 96.9248046875 457.793945312 86.6552734375 447.524414062 c 0
 82.1298828125 442.999023438 79.5986328125 437.231445312 79.0615234375 431.315429688 c 2
 57.2744140625 191.658203125 l 1
 41.9228515625 194.392578125 26.3212890625 182.155273438 26.3212890625 165.7578125 c 2
 26.3212890625 -150.030273438 l 2
 26.3212890625 -156.767578125 28.888671875 -163.50390625 34.0234375 -168.638671875 c 0
 44.2939453125 -178.909179688 60.9697265625 -178.909179688 71.240234375 -168.638671875 c 0
 75.7646484375 -164.114257812 78.2958984375 -158.345703125 78.833984375 -152.4296875 c 2
 131.46484375 426.516601562 l 2
 132.147460938 434.028320312 129.616210938 441.778320312 123.87109375 447.524414062 c 0
78.154296875 14.27734375 m 2
 73.0556640625 34.6689453125 47.7568359375 40.205078125 34.0234375 26.4716796875 c 0
 27.24609375 19.693359375 24.94140625 10.125 27.1103515625 1.44921875 c 2
 79.7421875 -209.077148438 l 2
 84.83984375 -229.467773438 110.138671875 -235.00390625 123.872070312 -221.270507812 c 0
 130.650390625 -214.4921875 132.955078125 -204.923828125 130.786132812 -196.248046875 c 2
 78.154296875 14.27734375 l 2
EndSplineSet
EndChar

StartChar: ".alt24"
Encoding: 109 -1 107
Width: 103
VWidth: 0
Flags: HW
LayerCount: 2
Fore
SplineSet
59.1171875 305.044921875 m 2
 69.38671875 294.775390625 86.0625 294.775390625 96.3330078125 305.044921875 c 0
 106.603515625 315.315429688 106.603515625 331.991210938 96.3330078125 342.260742188 c 2
 43.7021484375 394.892578125 l 2
 33.431640625 405.162109375 16.755859375 405.162109375 6.4853515625 394.892578125 c 0
 1.3505859375 389.756835938 -1.216796875 383.020507812 -1.216796875 376.284179688 c 2
 -1.2177734375 7.86328125 l 2
 -1.2177734375 1.126953125 1.349609375 -5.609375 6.4853515625 -10.7451171875 c 0
 16.7548828125 -21.0146484375 33.4306640625 -21.0146484375 43.701171875 -10.7451171875 c 0
 48.8359375 -5.609375 51.4033203125 1.126953125 51.4033203125 7.86328125 c 2
 51.404296875 312.7578125 l 1
 59.1171875 305.044921875 l 2
EndSplineSet
EndChar

StartChar: C.alt1
Encoding: 110 -1 108
Width: 451
VWidth: 0
Flags: HW
LayerCount: 2
Fore
SplineSet
404.379882812 412.956054688 m 0
 405.251953125 412.083007812 406.118164062 411.188476562 406.999023438 410.307617188 c 0
 417.26953125 400.038085938 433.9453125 400.038085938 444.215820312 410.307617188 c 0
 454.41796875 420.510742188 454.485351562 437.034179688 444.416992188 447.3203125 c 0
 376.182617188 517.03125 299.37890625 540.55859375 228.740234375 530.178710938 c 0
 173.422851562 522.05078125 123.787109375 493.854492188 84.94140625 455.008789062 c 0
 -6.0166015625 364.049804688 -43.4013671875 204.887695312 66.19140625 95.294921875 c 0
 88.6767578125 72.8095703125 116.875976562 53.04296875 151.123046875 36.7353515625 c 0
 221.577148438 3.1884765625 300.833984375 21.046875 351.05078125 71.2646484375 c 0
 374.4765625 94.6904296875 391.624023438 125.141601562 398.763671875 160.5234375 c 0
 400.44921875 168.876953125 398.055664062 177.893554688 391.583007812 184.366210938 c 0
 377.420898438 198.528320312 351.42578125 192 347.1875 170.993164062 c 0
 342.141601562 145.987304688 330.13671875 124.782226562 313.834960938 108.48046875 c 0
 278.485351562 73.1318359375 223.119140625 60.7587890625 173.7734375 84.2548828125 c 0
 144.260742188 98.3076171875 121.143554688 114.775390625 103.407226562 132.51171875 c 0
 20.37109375 215.546875 44.8359375 340.470703125 122.158203125 417.79296875 c 0
 154.158203125 449.793945312 194.231445312 471.91796875 236.44140625 478.120117188 c 0
 288.665039062 485.793945312 346.973632812 470.362304688 404.379882812 412.956054688 c 0
318.201171875 -204.844726562 m 2
 320.125 -208.693359375 324.500976562 -204.510742188 322.486328125 -200.481445312 c 2
 217.224609375 10.044921875 l 2
 215.299804688 13.8935546875 210.923828125 9.7109375 212.938476562 5.681640625 c 2
 318.201171875 -204.844726562 l 2
EndSplineSet
EndChar

StartChar: glyph109
Encoding: 111 58 109
Width: 208
VWidth: 0
Flags: HW
LayerCount: 2
Fore
SplineSet
182.987304688 99.96875 m 0
 199.172851562 99.96875 212.940429688 107.483398438 208.51953125 116.32421875 c 2
 155.889648438 221.586914062 l 2
 153.030273438 227.305664062 142.676757812 231.547851562 130.357421875 231.547851562 c 0
 114.171875 231.547851562 100.404296875 224.033203125 104.825195312 215.192382812 c 2
 157.455078125 109.9296875 l 2
 160.315429688 104.2109375 170.668945312 99.96875 182.987304688 99.96875 c 0
130.357421875 -110.557617188 m 2
 144.881835938 -110.557617188 156.672851562 -104.661132812 156.672851562 -97.3994140625 c 0
 156.672851562 -90.1376953125 144.881835938 -84.2412109375 130.357421875 -84.2412109375 c 2
 100.021484375 -84.2412109375 l 1
 51.05078125 62.6708984375 l 2
 48.974609375 68.8994140625 38.1357421875 73.6533203125 25.09375 73.6533203125 c 0
 10.5693359375 73.6533203125 -1.2216796875 67.7568359375 -1.2216796875 60.4951171875 c 2
 -1.2216796875 -202.663085938 l 2
 -1.2216796875 -209.924804688 10.5693359375 -215.8203125 25.09375 -215.8203125 c 0
 39.6181640625 -215.8203125 51.4091796875 -209.924804688 51.4091796875 -202.663085938 c 2
 51.7685546875 -99.5751953125 l 1
 53.8447265625 -105.802734375 64.68359375 -110.557617188 77.7255859375 -110.557617188 c 2
 130.357421875 -110.557617188 l 2
EndSplineSet
EndChar

StartChar: glyph110
Encoding: 112 50 110
Width: 420
VWidth: 0
Flags: HW
LayerCount: 2
Fore
SplineSet
93.4873046875 84.0341796875 m 2
 76.41796875 75.5 74.7216796875 53.8212890625 86.6552734375 41.8876953125 c 0
 94.87109375 33.671875 107.184570312 32.0283203125 117.040039062 36.9560546875 c 2
 327.56640625 142.217773438 l 2
 337.33984375 147.104492188 342.100585938 156.712890625 342.100585938 165.7578125 c 2
 342.100585938 323.653320312 l 2
 342.100585938 330.389648438 339.533203125 337.125976562 334.397460938 342.260742188 c 0
 324.127929688 352.53125 307.452148438 352.53125 297.181640625 342.260742188 c 2
 139.287109375 184.366210938 l 2
 129.016601562 174.096679688 129.016601562 157.419921875 139.287109375 147.150390625 c 0
 149.556640625 136.879882812 166.232421875 136.879882812 176.502929688 147.150390625 c 2
 289.479492188 260.125976562 l 1
 289.479492188 182.029296875 l 1
 93.4873046875 84.0341796875 l 2
EndSplineSet
EndChar

StartChar: glyph111
Encoding: 113 44 111
Width: 315
VWidth: 0
Flags: HW
LayerCount: 2
Fore
SplineSet
202.174804688 -17.0947265625 m 2
 215.403320312 -21.50390625 232.08203125 -14.416015625 236.047851562 1.44921875 c 2
 288.6796875 211.974609375 l 2
 290.848632812 220.650390625 288.543945312 230.21875 281.765625 236.997070312 c 0
 268.040039062 250.723632812 242.740234375 245.219726562 237.635742188 224.803710938 c 2
 191.888671875 41.8173828125 l 1
 60.982421875 85.453125 l 2
 51.822265625 88.5068359375 41.310546875 86.390625 34.0234375 79.103515625 c 0
 20.9970703125 66.0771484375 24.8818359375 42.00390625 44.28125 35.537109375 c 2
 202.174804688 -17.0947265625 l 2
78.4287109375 328.84375 m 2
 74.2294921875 349.83984375 48.2138671875 356.451171875 34.0234375 342.260742188 c 0
 27.5625 335.799804688 25.166015625 326.803710938 26.8349609375 318.461914062 c 2
 79.466796875 55.3046875 l 2
 83.30078125 36.134765625 105.411132812 28.9609375 119.846679688 38.5849609375 c 2
 277.741210938 143.846679688 l 2
 285.958984375 149.326171875 289.46875 157.6640625 289.46875 165.756835938 c 2
 289.469726562 376.284179688 l 2
 289.469726562 383.020507812 286.90234375 389.756835938 281.766601562 394.892578125 c 0
 271.497070312 405.162109375 254.8203125 405.162109375 244.55078125 394.892578125 c 0
 239.416015625 389.756835938 236.84765625 383.020507812 236.84765625 376.284179688 c 2
 236.84765625 179.849609375 l 1
 123.359375 104.19140625 l 1
 78.4287109375 328.84375 l 2
EndSplineSet
EndChar

StartChar: Ky
Encoding: 114 -1 112
Width: 426
VWidth: 0
Flags: HW
LayerCount: 2
Fore
SplineSet
426.524414062 266.69140625 m 2
 429.708984375 273.061523438 424.073242188 281.767578125 420.864257812 275.349609375 c 2
 213.16796875 -140.04296875 l 1
 20.2080078125 245.876953125 l 1
 158.674804688 107.411132812 l 2
 162.974609375 103.111328125 166.54296875 114.697265625 162.397460938 118.84375 c 2
 4.5029296875 276.737304688 l 2
 0.939453125 280.30078125 -2.9619140625 272.23828125 -0.1884765625 266.69140625 c 2
 210.337890625 -154.360351562 l 2
 211.798828125 -157.28125 214.537109375 -157.283203125 215.998046875 -154.360351562 c 2
 426.524414062 266.69140625 l 2
427.453125 7.86328125 m 0
 427.453125 15.33203125 425.670898438 21.5498046875 423.422851562 20.9873046875 c 2
 15.6904296875 -80.9462890625 l 1
 212.76171875 411.732421875 l 1
 315.7734375 51.193359375 l 2
 318.07421875 43.1396484375 322.190429688 48.93359375 322.190429688 60.4951171875 c 0
 322.190429688 64.1259765625 321.76953125 67.416015625 321.088867188 69.7978515625 c 2
 215.825195312 438.21875 l 2
 214.600585938 442.504882812 212.4921875 443.396484375 210.986328125 439.629882812 c 2
 0.4599609375 -86.685546875 l 2
 -2.388671875 -93.806640625 -1.001953125 -111.502929688 2.9130859375 -110.524414062 c 2
 423.965820312 -5.2607421875 l 2
 425.9140625 -4.7734375 427.453125 0.9208984375 427.453125 7.86328125 c 0
EndSplineSet
Ligature2: "liga-1" K y
EndChar

StartChar: ".alt25"
Encoding: 115 -1 113
Width: 314
VWidth: 0
Flags: HW
LayerCount: 2
Fore
SplineSet
6.4853515625 94.5185546875 m 0
 -3.7841796875 104.788085938 -3.7841796875 121.463867188 6.4853515625 131.734375 c 2
 217.012695312 342.260742188 l 2
 230.73828125 355.987304688 256.0390625 350.483398438 261.142578125 330.067382812 c 2
 313.7734375 119.541015625 l 2
 315.942382812 110.865234375 313.637695312 101.296875 306.859375 94.5185546875 c 0
 293.133789062 80.7919921875 267.833984375 86.2958984375 262.729492188 106.711914062 c 2
 241.439453125 191.872070312 l 1
 36.87109375 89.5869140625 l 2
 27.015625 84.6591796875 14.701171875 86.302734375 6.4853515625 94.5185546875 c 0
158.3828125 209.19921875 m 1
 223.842773438 241.9296875 l 2
 225.338867188 242.677734375 226.891601562 243.274414062 228.478515625 243.719726562 c 1
 221.36328125 272.1796875 l 1
 158.3828125 209.19921875 l 1
EndSplineSet
EndChar

StartChar: |.alt9
Encoding: 116 -1 114
Width: 58
VWidth: 0
Flags: HW
LayerCount: 2
Fore
SplineSet
51.7685546875 109.952148438 m 2
 53.4443359375 99.89453125 60.6201171875 105.252929688 58.779296875 116.301757812 c 2
 6.146484375 432.090820312 l 2
 4.470703125 442.1484375 -2.705078125 436.790039062 -0.86328125 425.741210938 c 2
 51.7685546875 109.952148438 l 2
58.197265625 -44.7685546875 m 2
 58.197265625 -37.9921875 52.349609375 -37.95703125 52.349609375 -44.7685546875 c 2
 52.349609375 -143.708984375 l 1
 5.51953125 324.590820312 l 2
 4.8720703125 331.065429688 -0.92578125 329.6171875 -0.2353515625 322.716796875 c 2
 52.3955078125 -203.600585938 l 2
 52.9921875 -209.565429688 58.197265625 -209.045898438 58.197265625 -202.663085938 c 2
 58.197265625 -44.7685546875 l 2
EndSplineSet
EndChar

StartChar: ".alt26"
Encoding: 117 -1 115
Width: 365
VWidth: 0
Flags: HW
LayerCount: 2
Fore
SplineSet
131.84375 8.3984375 m 2
 129.458007812 6.0126953125 142.499023438 4.103515625 157.893554688 4.103515625 c 0
 171.145507812 4.103515625 182.123046875 5.505859375 183.944335938 7.328125 c 2
 236.577148438 59.9599609375 l 2
 236.836914062 60.2197265625 236.913085938 60.490234375 236.775390625 60.7666015625 c 2
 78.8798828125 376.555664062 l 2
 77.9052734375 378.50390625 66.517578125 380.043945312 52.6318359375 380.043945312 c 0
 37.693359375 380.043945312 25.259765625 378.260742188 26.3837890625 376.012695312 c 2
 184.076171875 60.6298828125 l 1
 131.84375 8.3984375 l 2
156.694335938 101.102539062 m 1
 166.119140625 102.635742188 179.575195312 104.1484375 197.780273438 104.1484375 c 0
 221.852539062 104.1484375 237.375976562 101.627929688 247.75 99.15234375 c 0
 261.561523438 95.8564453125 272.671875 91.140625 283.361328125 84.52734375 c 0
 307.3671875 69.6728515625 327.7421875 45.1044921875 342.064453125 8.0732421875 c 0
 348.672851562 -9.0126953125 348.672851562 -27.8935546875 342.064453125 -44.978515625 c 0
 341.299804688 -46.9560546875 329.819335938 -48.5283203125 315.7890625 -48.5283203125 c 0
 300.948242188 -48.5283203125 288.658203125 -46.7705078125 289.513671875 -44.55859375 c 0
 296.00390625 -27.779296875 296.00390625 -9.1259765625 289.513671875 7.6533203125 c 0
 276.862304688 40.3642578125 259.296875 63.2216796875 239.5546875 77.771484375 c 0
 230.791015625 84.2294921875 221.538085938 89.0458984375 212.709960938 92.244140625 c 0
 206.833007812 94.373046875 200.985351562 95.7109375 197.485351562 96.32421875 c 1
 195.814453125 96.07421875 193.569335938 95.69140625 191.10546875 95.1513671875 c 0
 176.028320312 91.845703125 164.1953125 86.5146484375 154.736328125 81.5205078125 c 1
 131.575195312 -150.0859375 l 2
 131.370117188 -152.135742188 119.658203125 -153.791015625 105.26171875 -153.791015625 c 0
 92.396484375 -153.791015625 81.6748046875 -152.46875 79.39453125 -150.724609375 c 0
 35.7880859375 -117.37890625 18.400390625 -79.5693359375 18.400390625 -43.5322265625 c 0
 18.400390625 -1.15625 42.4228515625 38.724609375 77.068359375 66.03125 c 0
 84.9443359375 72.23828125 93.310546875 77.7919921875 102.208007812 82.609375 c 1
 131.581054688 376.338867188 l 2
 131.786132812 378.388671875 143.498046875 380.043945312 157.893554688 380.043945312 c 0
 172.41796875 380.043945312 184.419921875 378.358398438 184.212890625 376.284179688 c 2
 156.694335938 101.102539062 l 1
84.326171875 -96.205078125 m 1
 97.126953125 31.80078125 l 1
 80.98828125 9.552734375 71.03125 -16.5 71.03125 -43.5322265625 c 0
 71.03125 -60.92578125 75.150390625 -78.7333984375 84.326171875 -96.205078125 c 1
105.26171875 -101.159179688 m 0
 119.919921875 -101.159179688 131.926757812 -99.4453125 131.5703125 -97.30859375 c 2
 78.9404296875 218.48046875 l 2
 78.6015625 220.513671875 66.9423828125 222.149414062 52.6318359375 222.149414062 c 0
 37.9736328125 222.149414062 25.9677734375 220.435546875 26.3232421875 218.298828125 c 2
 78.9541015625 -97.490234375 l 2
 79.29296875 -99.5234375 90.951171875 -101.159179688 105.26171875 -101.159179688 c 0
EndSplineSet
EndChar

StartChar: |.alt10
Encoding: 118 -1 116
Width: 111
VWidth: 0
Flags: HW
LayerCount: 2
Fore
SplineSet
111.193359375 428.916015625 m 2
 111.193359375 433.7578125 109.719726562 437.688476562 107.904296875 437.688476562 c 0
 106.088867188 437.688476562 104.614257812 433.7578125 104.614257812 428.916015625 c 2
 104.614257812 -49.7275390625 l 1
 58.3486328125 274.139648438 l 2
 57.3740234375 280.961914062 53.6708984375 281.649414062 52.369140625 275.139648438 c 2
 -0.2626953125 11.982421875 l 2
 -1.474609375 5.9248046875 0.2958984375 -0.908203125 2.6416015625 -0.908203125 c 0
 3.8994140625 -0.908203125 4.9931640625 0.9765625 5.5458984375 3.744140625 c 2
 54.7734375 249.877929688 l 1
 104.829101562 -100.518554688 l 2
 106.034179688 -108.954101562 111.193359375 -107.299804688 111.193359375 -97.400390625 c 2
 111.193359375 428.916015625 l 2
EndSplineSet
EndChar

StartChar: lw
Encoding: 119 -1 117
Width: 524
VWidth: 0
Flags: HW
LayerCount: 2
Fore
SplineSet
344.197265625 86.5966796875 m 1
 334.182617188 87.859375 322.876953125 83.3359375 317.344726562 72.271484375 c 2
 264.712890625 -32.9921875 l 2
 259.78515625 -42.84765625 261.4296875 -55.1611328125 269.64453125 -63.376953125 c 0
 280.818359375 -74.55078125 300.385742188 -74.0185546875 310.163085938 -59.3515625 c 2
 520.689453125 256.438476562 l 2
 528.72265625 268.48828125 525.990234375 286.842773438 510.5546875 294.560546875 c 2
 300.028320312 399.823242188 l 2
 290.172851562 404.750976562 277.858398438 403.107421875 269.643554688 394.892578125 c 0
 257.708984375 382.95703125 259.396484375 361.284179688 276.474609375 352.745117188 c 2
 460.33984375 260.8125 l 1
 344.197265625 86.5966796875 l 1
516.24609375 251.337890625 m 2
 527.883789062 261.682617188 527.89453125 279.12109375 517.38671875 289.62890625 c 0
 507.48828125 299.52734375 491.639648438 299.885742188 481.310546875 290.704101562 c 2
 90.935546875 -56.2958984375 l 1
 260.048828125 366.48828125 l 2
 263.840820312 375.969726562 261.901367188 387.21875 254.227539062 394.892578125 c 0
 246.012695312 403.107421875 233.698242188 404.750976562 223.842773438 399.823242188 c 2
 118.580078125 347.192382812 l 2
 101.510742188 338.658203125 99.814453125 316.979492188 111.749023438 305.044921875 c 0
 119.963867188 296.830078125 132.278320312 295.186523438 142.133789062 300.114257812 c 2
 185.47265625 321.783203125 l 1
 0.6650390625 -140.236328125 l 2
 -3.1279296875 -149.717773438 -1.1875 -160.966796875 6.4853515625 -168.639648438 c 0
 16.3837890625 -178.538085938 32.232421875 -178.896484375 42.5615234375 -169.71484375 c 2
 516.24609375 251.337890625 l 2
EndSplineSet
Ligature2: "liga-1" l w
EndChar

StartChar: A.alt2
Encoding: 120 -1 118
Width: 419
VWidth: 0
Flags: HW
LayerCount: 2
Fore
SplineSet
6.4853515625 342.26171875 m 0
 17.2890625 353.065429688 35.6884765625 352.900390625 45.884765625 339.790039062 c 2
 142.897460938 215.059570312 l 1
 156.8828125 326.939453125 l 2
 157.583007812 332.54296875 160.08203125 337.962890625 164.380859375 342.260742188 c 0
 174.650390625 352.53125 191.327148438 352.53125 201.596679688 342.260742188 c 0
 207.568359375 336.2890625 210.068359375 328.151367188 209.094726562 320.3671875 c 2
 188.587890625 156.314453125 l 1
 414.305664062 -133.89453125 l 2
 422.33203125 -144.213867188 421.604492188 -159.15625 412.123046875 -168.638671875 c 0
 405.662109375 -175.099609375 396.665039062 -177.49609375 388.32421875 -175.828125 c 2
 125.166015625 -123.197265625 l 2
 111.163085938 -120.397460938 102.670898438 -106.754882812 104.250976562 -94.1142578125 c 2
 133.6640625 141.1953125 l 1
 4.302734375 307.517578125 l 2
 -3.7236328125 317.837890625 -2.99609375 332.780273438 6.4853515625 342.26171875 c 0
329.315429688 -110.35546875 m 1
 179.35546875 82.4501953125 l 1
 159.5 -76.3935546875 l 1
 329.315429688 -110.35546875 l 1
338.815429688 216.322265625 m 2
 341.461914062 213.67578125 345.631835938 217.774414062 342.950195312 220.456054688 c 2
 290.319335938 273.087890625 l 2
 287.673828125 275.734375 283.502929688 271.635742188 286.185546875 268.954101562 c 2
 338.815429688 216.322265625 l 2
EndSplineSet
EndChar

StartChar: ".alt27"
Encoding: 121 -1 119
Width: 473
VWidth: 0
Flags: HW
LayerCount: 2
Fore
SplineSet
426.756835938 425.584960938 m 2
 432.688476562 428.126953125 429.163085938 433.301757812 421.052734375 433.301757812 c 0
 418.875976562 433.301757812 416.8828125 432.904296875 415.348632812 432.247070312 c 2
 46.927734375 274.352539062 l 2
 44.7705078125 273.428710938 43.412109375 271.998046875 43.9794921875 270.296875 c 2
 201.875 -203.387695312 l 2
 202.56640625 -205.463867188 206.1796875 -207.047851562 210.52734375 -207.047851562 c 0
 215.713867188 -207.047851562 220.12109375 -204.763671875 219.1796875 -201.9375 c 2
 62.0986328125 269.303710938 l 1
 426.756835938 425.584960938 l 2
55.9208984375 323.653320312 m 2
 55.9208984375 327.041992188 49.341796875 327.059570312 49.341796875 323.653320312 c 2
 49.341796875 165.7578125 l 2
 49.341796875 165.283203125 49.4990234375 164.838867188 49.7734375 164.455078125 c 2
 312.930664062 -203.965820312 l 2
 314.9609375 -206.807617188 320.826171875 -204.411132812 318.647460938 -201.360351562 c 2
 55.9208984375 166.456054688 l 1
 55.9208984375 323.653320312 l 2
EndSplineSet
EndChar

StartChar: glyph120
Encoding: 122 49 120
Width: 167
VWidth: 0
Flags: HW
LayerCount: 2
Fore
SplineSet
46.4248046875 115.828125 m 2
 42.8203125 112.223632812 47.478515625 107.86328125 53.9521484375 107.86328125 c 0
 57.1474609375 107.86328125 59.9462890625 108.890625 61.4794921875 110.423828125 c 2
 166.743164062 215.6875 l 2
 170.34765625 219.291992188 165.690429688 223.65234375 159.215820312 223.65234375 c 0
 156.020507812 223.65234375 153.221679688 222.625 151.688476562 221.091796875 c 2
 46.4248046875 115.828125 l 2
3.9521484375 271.020507812 m 2
 3.9521484375 276.66796875 -1.3115234375 276.697265625 -1.3115234375 271.020507812 c 2
 -1.3115234375 113.126953125 l 2
 -1.3115234375 108.26171875 2.72265625 107.33203125 3.7509765625 111.443359375 c 2
 56.3828125 321.969726562 l 2
 57.7216796875 327.328125 52.8095703125 330.48828125 51.521484375 325.337890625 c 2
 3.9521484375 135.05859375 l 1
 3.9521484375 271.020507812 l 2
109.215820312 323.654296875 m 2
 109.215820312 329.30078125 103.952148438 329.330078125 103.952148438 323.654296875 c 2
 103.952148438 -44.7685546875 l 2
 103.952148438 -50.4150390625 109.215820312 -50.4443359375 109.215820312 -44.7685546875 c 2
 109.215820312 323.654296875 l 2
EndSplineSet
EndChar

StartChar: glyph121
Encoding: 123 174 121
Width: 578
VWidth: 0
Flags: HW
LayerCount: 2
Fore
SplineSet
244.549804688 -78.79296875 m 0
 234.280273438 -89.0625 234.280273438 -105.739257812 244.549804688 -116.008789062 c 2
 297.181640625 -168.640625 l 2
 307.452148438 -178.91015625 324.12890625 -178.909179688 334.3984375 -168.639648438 c 0
 344.668945312 -158.369140625 344.668945312 -141.693359375 334.3984375 -131.422851562 c 2
 281.766601562 -78.791015625 l 2
 271.49609375 -68.521484375 254.8203125 -68.5224609375 244.549804688 -78.79296875 c 0
EndSplineSet
EndChar

StartChar: glyph122
Encoding: 124 62 122
Width: 473
VWidth: 0
Flags: HW
LayerCount: 2
Fore
SplineSet
125.259765625 446.024414062 m 2
 114.931640625 458.07421875 97.240234375 458.109375 86.6552734375 447.524414062 c 0
 76.87109375 437.740234375 76.408203125 422.141601562 85.265625 411.807617188 c 2
 380.344726562 67.5478515625 l 1
 39.578125 -127.174804688 l 2
 23.5380859375 -136.340820312 22.4521484375 -157.067382812 34.0234375 -168.638671875 c 0
 42.59765625 -177.212890625 55.63671875 -178.62890625 65.685546875 -172.88671875 c 2
 434.106445312 37.638671875 l 2
 449.541992188 46.458984375 451.068359375 65.9140625 441.049804688 77.6025390625 c 2
 125.259765625 446.024414062 l 2
EndSplineSet
EndChar

StartChar: \.alt12
Encoding: 125 -1 123
Width: 156
VWidth: 0
Flags: HW
LayerCount: 2
Fore
SplineSet
96.3330078125 342.260742188 m 0
 86.0625 352.53125 69.38671875 352.53125 59.1171875 342.260742188 c 0
 52.87109375 336.015625 50.423828125 327.401367188 51.7744140625 319.299804688 c 2
 99.2958984375 34.173828125 l 1
 25.0927734375 34.173828125 l 2
 18.3564453125 34.173828125 11.6201171875 31.6064453125 6.4853515625 26.4716796875 c 0
 -3.78515625 16.201171875 -3.78515625 -0.474609375 6.4853515625 -10.7451171875 c 0
 11.6201171875 -15.8798828125 18.3564453125 -18.447265625 25.0927734375 -18.447265625 c 2
 130.356445312 -18.447265625 l 2
 146.606445312 -18.447265625 158.856445312 -3.07421875 156.307617188 12.216796875 c 2
 103.67578125 328.006835938 l 2
 102.805664062 333.227539062 100.357421875 338.236328125 96.3330078125 342.260742188 c 0
EndSplineSet
EndChar

StartChar: C.alt2
Encoding: 126 -1 124
Width: 399
VWidth: 0
Flags: HW
LayerCount: 2
Fore
SplineSet
172.87890625 193.845703125 m 0
 191.53515625 201.049804688 194.627929688 224.352539062 181.983398438 236.997070312 c 0
 174.388671875 244.591796875 163.291015625 246.5703125 153.872070312 242.932617188 c 0
 121.243164062 230.333984375 92.994140625 211.532226562 69.8759765625 188.4140625 c 0
 -6.884765625 111.653320312 -26.2216796875 -12.166015625 35.7880859375 -111.341796875 c 0
 45.6689453125 -127.14453125 57.0908203125 -141.416992188 69.7568359375 -154.083007812 c 0
 154.5 -238.826171875 293.063476562 -249.524414062 390.46484375 -170.484375 c 0
 403.12109375 -160.212890625 403.21484375 -142.12890625 392.509765625 -131.423828125 c 0
 382.896484375 -121.810546875 367.670898438 -121.1953125 357.33984375 -129.579101562 c 0
 281.217773438 -191.3515625 173.055664062 -182.94921875 106.97265625 -116.8671875 c 0
 97.15234375 -107.046875 88.2197265625 -95.9052734375 80.4375 -83.458984375 c 0
 31.8701171875 -5.7822265625 46.9560546875 91.0615234375 107.091796875 151.197265625 c 0
 125.055664062 169.161132812 147.118164062 183.8984375 172.87890625 193.845703125 c 0
EndSplineSet
EndChar

StartChar: S.alt1
Encoding: 127 -1 125
Width: 441
VWidth: 0
Flags: HW
LayerCount: 2
Fore
SplineSet
263.384765625 268.91796875 m 2
 268.7109375 265.721679688 279.03125 269.8046875 273.49609375 273.125 c 2
 10.3388671875 431.01953125 l 2
 5.0126953125 434.215820312 -5.30859375 430.133789062 0.2265625 426.8125 c 2
 263.384765625 268.91796875 l 2
262.857421875 -204.40234375 m 2
 267.236328125 -207.90625 278.620117188 -204.600585938 274.0234375 -200.922851562 c 2
 41.474609375 -14.8837890625 l 1
 105.895507812 -47.09375 l 2
 111.848632812 -50.0703125 121.232421875 -45.4599609375 115.197265625 -42.4423828125 c 2
 9.93359375 10.189453125 l 2
 4.7763671875 12.767578125 -4.5126953125 9.4931640625 -0.2998046875 6.1240234375 c 2
 262.857421875 -204.40234375 l 2
372.049804688 4.6142578125 m 2
 375.791992188 2.119140625 378.966796875 8.70703125 375.358398438 11.11328125 c 2
 223.24609375 112.521484375 l 1
 245.086914062 122.184570312 266.337890625 126.49609375 286.41796875 126.49609375 c 0
 371.106445312 126.49609375 435.400390625 49.75390625 435.400390625 -28.724609375 c 0
 435.400390625 -71.048828125 416.84765625 -114.241210938 371.943359375 -146.856445312 c 0
 346.713867188 -165.181640625 319.518554688 -173.233398438 293.235351562 -173.233398438 c 0
 221.84765625 -173.233398438 157.874023438 -113.984375 157.874023438 -40.1767578125 c 0
 157.874023438 -25.2099609375 160.482421875 -9.5634765625 166.22265625 6.4404296875 c 0
 167.874023438 11.0439453125 161.719726562 13.7119140625 160.131835938 9.287109375 c 0
 154.087890625 -7.564453125 151.294921875 -24.189453125 151.294921875 -40.1767578125 c 0
 151.294921875 -119.263671875 219.124023438 -180.752929688 293.235351562 -180.752929688 c 0
 320.712890625 -180.752929688 349.150390625 -172.3203125 375.46484375 -153.20703125 c 0
 421.994140625 -119.411132812 441.978515625 -73.7548828125 441.978515625 -28.724609375 c 0
 441.978515625 54.3310546875 374.493164062 134.015625 286.41796875 134.015625 c 0
 263.537109375 134.015625 239.296875 128.635742188 214.524414062 116.587890625 c 0
 212.11328125 115.416015625 211.858398438 111.408203125 214.155273438 109.876953125 c 2
 372.049804688 4.6142578125 l 2
EndSplineSet
EndChar

StartChar: ".alt28"
Encoding: 129 -1 126
Width: 450
VWidth: 0
Flags: HW
LayerCount: 2
Fore
SplineSet
90.6171875 79.103515625 m 0
 80.34765625 68.8330078125 80.34765625 52.1572265625 90.6171875 41.8876953125 c 0
 96.86328125 35.6416015625 105.4765625 33.1943359375 113.579101562 34.544921875 c 2
 429.368164062 87.17578125 l 2
 434.588867188 88.0458984375 439.59765625 90.4931640625 443.622070312 94.5185546875 c 0
 457.348632812 108.244140625 451.844726562 133.543945312 431.428710938 138.6484375 c 2
 220.903320312 191.280273438 l 2
 212.227539062 193.44921875 202.658203125 191.14453125 195.880859375 184.366210938 c 0
 182.154296875 170.640625 187.658203125 145.340820312 208.07421875 140.236328125 c 2
 295.890625 118.282226562 l 1
 104.872070312 86.4462890625 l 2
 99.6513671875 85.5751953125 94.642578125 83.1279296875 90.6171875 79.103515625 c 0
8.07421875 377.926757812 m 2
 3.91796875 380.5234375 -4.470703125 377.342773438 -0.1494140625 374.642578125 c 2
 420.903320312 111.485351562 l 2
 425.05859375 108.887695312 433.447265625 112.068359375 429.126953125 114.768554688 c 2
 8.07421875 377.926757812 l 2
367.120117188 -97.3994140625 m 2
 367.120117188 -100.787109375 377.646484375 -100.8046875 377.646484375 -97.3994140625 c 2
 377.646484375 428.916015625 l 2
 377.646484375 432.249023438 367.455078125 432.338867188 367.126953125 429.049804688 c 2
 314.495117188 -97.265625 l 2
 314.15234375 -100.6953125 324.670898438 -100.899414062 325.0078125 -97.5322265625 c 2
 367.120117188 323.586914062 l 1
 367.120117188 -97.3994140625 l 2
EndSplineSet
EndChar

StartChar: /.alt2
Encoding: 130 -1 127
Width: 367
VWidth: 0
Flags: HW
LayerCount: 2
Fore
SplineSet
236.32421875 170.946289062 m 1
 231.358398438 195.79296875 194.396484375 200.590820312 185.568359375 174.109375 c 2
 80.3056640625 -141.6796875 l 2
 77.251953125 -150.83984375 79.369140625 -161.3515625 86.6552734375 -168.638671875 c 0
 98.5908203125 -180.573242188 120.263671875 -178.885742188 128.802734375 -161.807617188 c 2
 286.697265625 153.98046875 l 2
 291.625 163.8359375 289.981445312 176.150390625 281.765625 184.365234375 c 0
 269.831054688 196.299804688 248.158203125 194.612304688 239.618164062 177.534179688 c 2
 236.32421875 170.946289062 l 1
EndSplineSet
EndChar

StartChar: /.alt3
Encoding: 131 -1 128
Width: 368
VWidth: 0
Flags: HW
LayerCount: 2
Fore
SplineSet
229.133789062 79.103515625 m 0
 215.408203125 92.8291015625 190.107421875 87.3251953125 185.00390625 66.9091796875 c 2
 132.373046875 -143.6171875 l 2
 130.204101562 -152.29296875 132.508789062 -161.861328125 139.287109375 -168.639648438 c 0
 153.012695312 -182.365234375 178.3125 -176.862304688 183.416992188 -156.4453125 c 2
 236.047851562 54.0810546875 l 2
 238.216796875 62.7568359375 235.912109375 72.3251953125 229.133789062 79.103515625 c 0
EndSplineSet
EndChar

StartChar: v.alt2
Encoding: 132 -1 129
Width: 302
VWidth: 0
Flags: HW
LayerCount: 2
Fore
SplineSet
46.4228515625 169.651367188 m 0
 37.8515625 166.53125 43.3408203125 160.495117188 55.2734375 160.495117188 c 0
 58.6796875 160.495117188 61.7861328125 161.013671875 64.1240234375 161.864257812 c 0
 79.3681640625 167.413085938 94.08203125 169.775390625 107.904296875 169.775390625 c 0
 121.7265625 169.775390625 136.44140625 167.413085938 151.686523438 161.864257812 c 0
 187.1484375 148.958007812 216.268554688 126.987304688 237.125 99.6923828125 c 0
 289.280273438 31.4384765625 289.28125 -68.3427734375 237.125 -136.59765625 c 0
 219.841796875 -159.216796875 196.881835938 -178.1796875 169.341796875 -191.358398438 c 1
 68.265625 61.33203125 l 2
 67.2626953125 63.83984375 61.8232421875 65.7578125 55.2734375 65.7578125 c 0
 47.515625 65.7578125 40.9296875 63.0361328125 42.28125 59.658203125 c 2
 147.543945312 -203.5 l 2
 149.115234375 -207.42578125 161.583984375 -209.396484375 169.38671875 -206.556640625 c 0
 210.360351562 -191.642578125 240.689453125 -167.952148438 262.296875 -139.674804688 c 0
 316.302734375 -68.9990234375 316.301757812 32.0947265625 262.296875 102.76953125 c 0
 240.689453125 131.046875 210.360351562 154.73828125 169.38671875 169.651367188 c 0
 150.634765625 176.4765625 129.715820312 180.301757812 107.904296875 180.301757812 c 0
 86.09375 180.301757812 65.173828125 176.4765625 46.4228515625 169.651367188 c 0
158.674804688 56.6845703125 m 2
 162.974609375 53.818359375 166.54296875 61.5419921875 162.396484375 64.3056640625 c 2
 61.583984375 131.513671875 l 1
 106.42578125 109.09375 l 2
 110.998046875 106.807617188 113.77734375 114.962890625 109.3828125 117.16015625 c 2
 4.119140625 169.791015625 l 2
 -0.228515625 171.96484375 -3.1328125 164.5546875 0.7802734375 161.946289062 c 2
 158.674804688 56.6845703125 l 2
EndSplineSet
EndChar

